<?xml version="1.0" encoding="utf-8" standalone="no"?>
<!DOCTYPE svg PUBLIC "-//W3C//DTD SVG 1.1//EN"
  "http://www.w3.org/Graphics/SVG/1.1/DTD/svg11.dtd">
<svg xmlns:xlink="http://www.w3.org/1999/xlink" width="460.8pt" height="345.6pt" viewBox="0 0 460.8 345.6" xmlns="http://www.w3.org/2000/svg" version="1.1">
 <metadata>
  <rdf:RDF xmlns:dc="http://purl.org/dc/elements/1.1/" xmlns:cc="http://creativecommons.org/ns#" xmlns:rdf="http://www.w3.org/1999/02/22-rdf-syntax-ns#">
   <cc:Work>
    <dc:type rdf:resource="http://purl.org/dc/dcmitype/StillImage"/>
    <dc:date>2022-12-10T12:34:38.228275</dc:date>
    <dc:format>image/svg+xml</dc:format>
    <dc:creator>
     <cc:Agent>
      <dc:title>Matplotlib v3.6.2, https://matplotlib.org/</dc:title>
     </cc:Agent>
    </dc:creator>
   </cc:Work>
  </rdf:RDF>
 </metadata>
 <defs>
  <style type="text/css">*{stroke-linejoin: round; stroke-linecap: butt}</style>
 </defs>
 <g id="figure_1">
  <g id="patch_1">
   <path d="M 0 345.6 
L 460.8 345.6 
L 460.8 0 
L 0 0 
z
" style="fill: #ffffff"/>
  </g>
  <g id="axes_1">
   <g id="patch_2">
    <path d="M 57.6 307.584 
L 414.72 307.584 
L 414.72 41.472 
L 57.6 41.472 
z
" style="fill: #ffffff"/>
   </g>
   <g id="matplotlib.axis_1">
    <g id="xtick_1">
     <g id="line2d_1">
      <defs>
       <path id="m2d4b05f3e2" d="M 0 0 
L 0 3.5 
" style="stroke: #000000; stroke-width: 0.8"/>
      </defs>
      <g>
       <use xlink:href="#m2d4b05f3e2" x="73.832727" y="307.584" style="stroke: #000000; stroke-width: 0.8"/>
      </g>
     </g>
     <g id="text_1">
      <!-- 0 -->
      <g transform="translate(70.651477 322.182437) scale(0.1 -0.1)">
       <defs>
        <path id="DejaVuSans-30" d="M 2034 4250 
Q 1547 4250 1301 3770 
Q 1056 3291 1056 2328 
Q 1056 1369 1301 889 
Q 1547 409 2034 409 
Q 2525 409 2770 889 
Q 3016 1369 3016 2328 
Q 3016 3291 2770 3770 
Q 2525 4250 2034 4250 
z
M 2034 4750 
Q 2819 4750 3233 4129 
Q 3647 3509 3647 2328 
Q 3647 1150 3233 529 
Q 2819 -91 2034 -91 
Q 1250 -91 836 529 
Q 422 1150 422 2328 
Q 422 3509 836 4129 
Q 1250 4750 2034 4750 
z
" transform="scale(0.015625)"/>
       </defs>
       <use xlink:href="#DejaVuSans-30"/>
      </g>
     </g>
    </g>
    <g id="xtick_2">
     <g id="line2d_2">
      <g>
       <use xlink:href="#m2d4b05f3e2" x="140.088757" y="307.584" style="stroke: #000000; stroke-width: 0.8"/>
      </g>
     </g>
     <g id="text_2">
      <!-- 10 -->
      <g transform="translate(133.726257 322.182437) scale(0.1 -0.1)">
       <defs>
        <path id="DejaVuSans-31" d="M 794 531 
L 1825 531 
L 1825 4091 
L 703 3866 
L 703 4441 
L 1819 4666 
L 2450 4666 
L 2450 531 
L 3481 531 
L 3481 0 
L 794 0 
L 794 531 
z
" transform="scale(0.015625)"/>
       </defs>
       <use xlink:href="#DejaVuSans-31"/>
       <use xlink:href="#DejaVuSans-30" x="63.623047"/>
      </g>
     </g>
    </g>
    <g id="xtick_3">
     <g id="line2d_3">
      <g>
       <use xlink:href="#m2d4b05f3e2" x="206.344787" y="307.584" style="stroke: #000000; stroke-width: 0.8"/>
      </g>
     </g>
     <g id="text_3">
      <!-- 20 -->
      <g transform="translate(199.982287 322.182437) scale(0.1 -0.1)">
       <defs>
        <path id="DejaVuSans-32" d="M 1228 531 
L 3431 531 
L 3431 0 
L 469 0 
L 469 531 
Q 828 903 1448 1529 
Q 2069 2156 2228 2338 
Q 2531 2678 2651 2914 
Q 2772 3150 2772 3378 
Q 2772 3750 2511 3984 
Q 2250 4219 1831 4219 
Q 1534 4219 1204 4116 
Q 875 4013 500 3803 
L 500 4441 
Q 881 4594 1212 4672 
Q 1544 4750 1819 4750 
Q 2544 4750 2975 4387 
Q 3406 4025 3406 3419 
Q 3406 3131 3298 2873 
Q 3191 2616 2906 2266 
Q 2828 2175 2409 1742 
Q 1991 1309 1228 531 
z
" transform="scale(0.015625)"/>
       </defs>
       <use xlink:href="#DejaVuSans-32"/>
       <use xlink:href="#DejaVuSans-30" x="63.623047"/>
      </g>
     </g>
    </g>
    <g id="xtick_4">
     <g id="line2d_4">
      <g>
       <use xlink:href="#m2d4b05f3e2" x="272.600816" y="307.584" style="stroke: #000000; stroke-width: 0.8"/>
      </g>
     </g>
     <g id="text_4">
      <!-- 30 -->
      <g transform="translate(266.238316 322.182437) scale(0.1 -0.1)">
       <defs>
        <path id="DejaVuSans-33" d="M 2597 2516 
Q 3050 2419 3304 2112 
Q 3559 1806 3559 1356 
Q 3559 666 3084 287 
Q 2609 -91 1734 -91 
Q 1441 -91 1130 -33 
Q 819 25 488 141 
L 488 750 
Q 750 597 1062 519 
Q 1375 441 1716 441 
Q 2309 441 2620 675 
Q 2931 909 2931 1356 
Q 2931 1769 2642 2001 
Q 2353 2234 1838 2234 
L 1294 2234 
L 1294 2753 
L 1863 2753 
Q 2328 2753 2575 2939 
Q 2822 3125 2822 3475 
Q 2822 3834 2567 4026 
Q 2313 4219 1838 4219 
Q 1578 4219 1281 4162 
Q 984 4106 628 3988 
L 628 4550 
Q 988 4650 1302 4700 
Q 1616 4750 1894 4750 
Q 2613 4750 3031 4423 
Q 3450 4097 3450 3541 
Q 3450 3153 3228 2886 
Q 3006 2619 2597 2516 
z
" transform="scale(0.015625)"/>
       </defs>
       <use xlink:href="#DejaVuSans-33"/>
       <use xlink:href="#DejaVuSans-30" x="63.623047"/>
      </g>
     </g>
    </g>
    <g id="xtick_5">
     <g id="line2d_5">
      <g>
       <use xlink:href="#m2d4b05f3e2" x="338.856846" y="307.584" style="stroke: #000000; stroke-width: 0.8"/>
      </g>
     </g>
     <g id="text_5">
      <!-- 40 -->
      <g transform="translate(332.494346 322.182437) scale(0.1 -0.1)">
       <defs>
        <path id="DejaVuSans-34" d="M 2419 4116 
L 825 1625 
L 2419 1625 
L 2419 4116 
z
M 2253 4666 
L 3047 4666 
L 3047 1625 
L 3713 1625 
L 3713 1100 
L 3047 1100 
L 3047 0 
L 2419 0 
L 2419 1100 
L 313 1100 
L 313 1709 
L 2253 4666 
z
" transform="scale(0.015625)"/>
       </defs>
       <use xlink:href="#DejaVuSans-34"/>
       <use xlink:href="#DejaVuSans-30" x="63.623047"/>
      </g>
     </g>
    </g>
    <g id="xtick_6">
     <g id="line2d_6">
      <g>
       <use xlink:href="#m2d4b05f3e2" x="405.112876" y="307.584" style="stroke: #000000; stroke-width: 0.8"/>
      </g>
     </g>
     <g id="text_6">
      <!-- 50 -->
      <g transform="translate(398.750376 322.182437) scale(0.1 -0.1)">
       <defs>
        <path id="DejaVuSans-35" d="M 691 4666 
L 3169 4666 
L 3169 4134 
L 1269 4134 
L 1269 2991 
Q 1406 3038 1543 3061 
Q 1681 3084 1819 3084 
Q 2600 3084 3056 2656 
Q 3513 2228 3513 1497 
Q 3513 744 3044 326 
Q 2575 -91 1722 -91 
Q 1428 -91 1123 -41 
Q 819 9 494 109 
L 494 744 
Q 775 591 1075 516 
Q 1375 441 1709 441 
Q 2250 441 2565 725 
Q 2881 1009 2881 1497 
Q 2881 1984 2565 2268 
Q 2250 2553 1709 2553 
Q 1456 2553 1204 2497 
Q 953 2441 691 2322 
L 691 4666 
z
" transform="scale(0.015625)"/>
       </defs>
       <use xlink:href="#DejaVuSans-35"/>
       <use xlink:href="#DejaVuSans-30" x="63.623047"/>
      </g>
     </g>
    </g>
    <g id="text_7">
     <!-- $k$ -->
     <g transform="translate(233.26 335.860562) scale(0.1 -0.1)">
      <defs>
       <path id="DejaVuSans-Oblique-6b" d="M 1172 4863 
L 1747 4863 
L 1197 2028 
L 3169 3500 
L 3916 3500 
L 1716 1825 
L 3322 0 
L 2625 0 
L 1131 1709 
L 800 0 
L 225 0 
L 1172 4863 
z
" transform="scale(0.015625)"/>
      </defs>
      <use xlink:href="#DejaVuSans-Oblique-6b" transform="translate(0 0.015625)"/>
     </g>
    </g>
   </g>
   <g id="matplotlib.axis_2">
    <g id="ytick_1">
     <g id="line2d_7">
      <defs>
       <path id="m7160be88e3" d="M 0 0 
L -3.5 0 
" style="stroke: #000000; stroke-width: 0.8"/>
      </defs>
      <g>
       <use xlink:href="#m7160be88e3" x="57.6" y="295.488" style="stroke: #000000; stroke-width: 0.8"/>
      </g>
     </g>
     <g id="text_8">
      <!-- 0.0 -->
      <g transform="translate(34.696875 299.287219) scale(0.1 -0.1)">
       <defs>
        <path id="DejaVuSans-2e" d="M 684 794 
L 1344 794 
L 1344 0 
L 684 0 
L 684 794 
z
" transform="scale(0.015625)"/>
       </defs>
       <use xlink:href="#DejaVuSans-30"/>
       <use xlink:href="#DejaVuSans-2e" x="63.623047"/>
       <use xlink:href="#DejaVuSans-30" x="95.410156"/>
      </g>
     </g>
    </g>
    <g id="ytick_2">
     <g id="line2d_8">
      <g>
       <use xlink:href="#m7160be88e3" x="57.6" y="241.728" style="stroke: #000000; stroke-width: 0.8"/>
      </g>
     </g>
     <g id="text_9">
      <!-- 0.2 -->
      <g transform="translate(34.696875 245.527219) scale(0.1 -0.1)">
       <use xlink:href="#DejaVuSans-30"/>
       <use xlink:href="#DejaVuSans-2e" x="63.623047"/>
       <use xlink:href="#DejaVuSans-32" x="95.410156"/>
      </g>
     </g>
    </g>
    <g id="ytick_3">
     <g id="line2d_9">
      <g>
       <use xlink:href="#m7160be88e3" x="57.6" y="187.968" style="stroke: #000000; stroke-width: 0.8"/>
      </g>
     </g>
     <g id="text_10">
      <!-- 0.4 -->
      <g transform="translate(34.696875 191.767219) scale(0.1 -0.1)">
       <use xlink:href="#DejaVuSans-30"/>
       <use xlink:href="#DejaVuSans-2e" x="63.623047"/>
       <use xlink:href="#DejaVuSans-34" x="95.410156"/>
      </g>
     </g>
    </g>
    <g id="ytick_4">
     <g id="line2d_10">
      <g>
       <use xlink:href="#m7160be88e3" x="57.6" y="134.208" style="stroke: #000000; stroke-width: 0.8"/>
      </g>
     </g>
     <g id="text_11">
      <!-- 0.6 -->
      <g transform="translate(34.696875 138.007219) scale(0.1 -0.1)">
       <defs>
        <path id="DejaVuSans-36" d="M 2113 2584 
Q 1688 2584 1439 2293 
Q 1191 2003 1191 1497 
Q 1191 994 1439 701 
Q 1688 409 2113 409 
Q 2538 409 2786 701 
Q 3034 994 3034 1497 
Q 3034 2003 2786 2293 
Q 2538 2584 2113 2584 
z
M 3366 4563 
L 3366 3988 
Q 3128 4100 2886 4159 
Q 2644 4219 2406 4219 
Q 1781 4219 1451 3797 
Q 1122 3375 1075 2522 
Q 1259 2794 1537 2939 
Q 1816 3084 2150 3084 
Q 2853 3084 3261 2657 
Q 3669 2231 3669 1497 
Q 3669 778 3244 343 
Q 2819 -91 2113 -91 
Q 1303 -91 875 529 
Q 447 1150 447 2328 
Q 447 3434 972 4092 
Q 1497 4750 2381 4750 
Q 2619 4750 2861 4703 
Q 3103 4656 3366 4563 
z
" transform="scale(0.015625)"/>
       </defs>
       <use xlink:href="#DejaVuSans-30"/>
       <use xlink:href="#DejaVuSans-2e" x="63.623047"/>
       <use xlink:href="#DejaVuSans-36" x="95.410156"/>
      </g>
     </g>
    </g>
    <g id="ytick_5">
     <g id="line2d_11">
      <g>
       <use xlink:href="#m7160be88e3" x="57.6" y="80.448" style="stroke: #000000; stroke-width: 0.8"/>
      </g>
     </g>
     <g id="text_12">
      <!-- 0.8 -->
      <g transform="translate(34.696875 84.247219) scale(0.1 -0.1)">
       <defs>
        <path id="DejaVuSans-38" d="M 2034 2216 
Q 1584 2216 1326 1975 
Q 1069 1734 1069 1313 
Q 1069 891 1326 650 
Q 1584 409 2034 409 
Q 2484 409 2743 651 
Q 3003 894 3003 1313 
Q 3003 1734 2745 1975 
Q 2488 2216 2034 2216 
z
M 1403 2484 
Q 997 2584 770 2862 
Q 544 3141 544 3541 
Q 544 4100 942 4425 
Q 1341 4750 2034 4750 
Q 2731 4750 3128 4425 
Q 3525 4100 3525 3541 
Q 3525 3141 3298 2862 
Q 3072 2584 2669 2484 
Q 3125 2378 3379 2068 
Q 3634 1759 3634 1313 
Q 3634 634 3220 271 
Q 2806 -91 2034 -91 
Q 1263 -91 848 271 
Q 434 634 434 1313 
Q 434 1759 690 2068 
Q 947 2378 1403 2484 
z
M 1172 3481 
Q 1172 3119 1398 2916 
Q 1625 2713 2034 2713 
Q 2441 2713 2670 2916 
Q 2900 3119 2900 3481 
Q 2900 3844 2670 4047 
Q 2441 4250 2034 4250 
Q 1625 4250 1398 4047 
Q 1172 3844 1172 3481 
z
" transform="scale(0.015625)"/>
       </defs>
       <use xlink:href="#DejaVuSans-30"/>
       <use xlink:href="#DejaVuSans-2e" x="63.623047"/>
       <use xlink:href="#DejaVuSans-38" x="95.410156"/>
      </g>
     </g>
    </g>
    <g id="text_13">
     <!-- Probability -->
     <g transform="translate(28.617187 200.956906) rotate(-90) scale(0.1 -0.1)">
      <defs>
       <path id="DejaVuSans-50" d="M 1259 4147 
L 1259 2394 
L 2053 2394 
Q 2494 2394 2734 2622 
Q 2975 2850 2975 3272 
Q 2975 3691 2734 3919 
Q 2494 4147 2053 4147 
L 1259 4147 
z
M 628 4666 
L 2053 4666 
Q 2838 4666 3239 4311 
Q 3641 3956 3641 3272 
Q 3641 2581 3239 2228 
Q 2838 1875 2053 1875 
L 1259 1875 
L 1259 0 
L 628 0 
L 628 4666 
z
" transform="scale(0.015625)"/>
       <path id="DejaVuSans-72" d="M 2631 2963 
Q 2534 3019 2420 3045 
Q 2306 3072 2169 3072 
Q 1681 3072 1420 2755 
Q 1159 2438 1159 1844 
L 1159 0 
L 581 0 
L 581 3500 
L 1159 3500 
L 1159 2956 
Q 1341 3275 1631 3429 
Q 1922 3584 2338 3584 
Q 2397 3584 2469 3576 
Q 2541 3569 2628 3553 
L 2631 2963 
z
" transform="scale(0.015625)"/>
       <path id="DejaVuSans-6f" d="M 1959 3097 
Q 1497 3097 1228 2736 
Q 959 2375 959 1747 
Q 959 1119 1226 758 
Q 1494 397 1959 397 
Q 2419 397 2687 759 
Q 2956 1122 2956 1747 
Q 2956 2369 2687 2733 
Q 2419 3097 1959 3097 
z
M 1959 3584 
Q 2709 3584 3137 3096 
Q 3566 2609 3566 1747 
Q 3566 888 3137 398 
Q 2709 -91 1959 -91 
Q 1206 -91 779 398 
Q 353 888 353 1747 
Q 353 2609 779 3096 
Q 1206 3584 1959 3584 
z
" transform="scale(0.015625)"/>
       <path id="DejaVuSans-62" d="M 3116 1747 
Q 3116 2381 2855 2742 
Q 2594 3103 2138 3103 
Q 1681 3103 1420 2742 
Q 1159 2381 1159 1747 
Q 1159 1113 1420 752 
Q 1681 391 2138 391 
Q 2594 391 2855 752 
Q 3116 1113 3116 1747 
z
M 1159 2969 
Q 1341 3281 1617 3432 
Q 1894 3584 2278 3584 
Q 2916 3584 3314 3078 
Q 3713 2572 3713 1747 
Q 3713 922 3314 415 
Q 2916 -91 2278 -91 
Q 1894 -91 1617 61 
Q 1341 213 1159 525 
L 1159 0 
L 581 0 
L 581 4863 
L 1159 4863 
L 1159 2969 
z
" transform="scale(0.015625)"/>
       <path id="DejaVuSans-61" d="M 2194 1759 
Q 1497 1759 1228 1600 
Q 959 1441 959 1056 
Q 959 750 1161 570 
Q 1363 391 1709 391 
Q 2188 391 2477 730 
Q 2766 1069 2766 1631 
L 2766 1759 
L 2194 1759 
z
M 3341 1997 
L 3341 0 
L 2766 0 
L 2766 531 
Q 2569 213 2275 61 
Q 1981 -91 1556 -91 
Q 1019 -91 701 211 
Q 384 513 384 1019 
Q 384 1609 779 1909 
Q 1175 2209 1959 2209 
L 2766 2209 
L 2766 2266 
Q 2766 2663 2505 2880 
Q 2244 3097 1772 3097 
Q 1472 3097 1187 3025 
Q 903 2953 641 2809 
L 641 3341 
Q 956 3463 1253 3523 
Q 1550 3584 1831 3584 
Q 2591 3584 2966 3190 
Q 3341 2797 3341 1997 
z
" transform="scale(0.015625)"/>
       <path id="DejaVuSans-69" d="M 603 3500 
L 1178 3500 
L 1178 0 
L 603 0 
L 603 3500 
z
M 603 4863 
L 1178 4863 
L 1178 4134 
L 603 4134 
L 603 4863 
z
" transform="scale(0.015625)"/>
       <path id="DejaVuSans-6c" d="M 603 4863 
L 1178 4863 
L 1178 0 
L 603 0 
L 603 4863 
z
" transform="scale(0.015625)"/>
       <path id="DejaVuSans-74" d="M 1172 4494 
L 1172 3500 
L 2356 3500 
L 2356 3053 
L 1172 3053 
L 1172 1153 
Q 1172 725 1289 603 
Q 1406 481 1766 481 
L 2356 481 
L 2356 0 
L 1766 0 
Q 1100 0 847 248 
Q 594 497 594 1153 
L 594 3053 
L 172 3053 
L 172 3500 
L 594 3500 
L 594 4494 
L 1172 4494 
z
" transform="scale(0.015625)"/>
       <path id="DejaVuSans-79" d="M 2059 -325 
Q 1816 -950 1584 -1140 
Q 1353 -1331 966 -1331 
L 506 -1331 
L 506 -850 
L 844 -850 
Q 1081 -850 1212 -737 
Q 1344 -625 1503 -206 
L 1606 56 
L 191 3500 
L 800 3500 
L 1894 763 
L 2988 3500 
L 3597 3500 
L 2059 -325 
z
" transform="scale(0.015625)"/>
      </defs>
      <use xlink:href="#DejaVuSans-50"/>
      <use xlink:href="#DejaVuSans-72" x="58.552734"/>
      <use xlink:href="#DejaVuSans-6f" x="97.416016"/>
      <use xlink:href="#DejaVuSans-62" x="158.597656"/>
      <use xlink:href="#DejaVuSans-61" x="222.074219"/>
      <use xlink:href="#DejaVuSans-62" x="283.353516"/>
      <use xlink:href="#DejaVuSans-69" x="346.830078"/>
      <use xlink:href="#DejaVuSans-6c" x="374.613281"/>
      <use xlink:href="#DejaVuSans-69" x="402.396484"/>
      <use xlink:href="#DejaVuSans-74" x="430.179688"/>
      <use xlink:href="#DejaVuSans-79" x="469.388672"/>
     </g>
    </g>
   </g>
   <g id="line2d_12">
    <path d="M 73.832727 53.568 
L 80.45833 271.296 
L 87.083933 293.0688 
L 93.709536 295.24608 
L 100.335139 295.463808 
L 106.960742 295.485581 
L 113.586345 295.487758 
L 120.211948 295.487976 
L 126.837551 295.487998 
L 133.463154 295.488 
L 140.088757 295.488 
L 146.71436 295.488 
L 153.339963 295.488 
L 159.965566 295.488 
L 166.591169 295.488 
L 173.216772 295.488 
L 179.842375 295.488 
L 186.467978 295.488 
L 193.093581 295.488 
L 199.719184 295.488 
L 206.344787 295.488 
L 212.97039 295.488 
L 219.595993 295.488 
L 226.221596 295.488 
L 232.847199 295.488 
L 239.472801 295.488 
L 246.098404 295.488 
L 252.724007 295.488 
L 259.34961 295.488 
L 265.975213 295.488 
L 272.600816 295.488 
L 279.226419 295.488 
L 285.852022 295.488 
L 292.477625 295.488 
L 299.103228 295.488 
L 305.728831 295.488 
L 312.354434 295.488 
L 318.980037 295.488 
L 325.60564 295.488 
L 332.231243 295.488 
L 338.856846 295.488 
L 345.482449 295.488 
L 352.108052 295.488 
L 358.733655 295.488 
L 365.359258 295.488 
L 371.984861 295.488 
L 378.610464 295.488 
L 385.236067 295.488 
L 391.86167 295.488 
L 398.487273 295.488 
" clip-path="url(#p6f18aaa1f8)" style="fill: none; stroke: #e3eef9; stroke-width: 1.5; stroke-linecap: square"/>
   </g>
   <g id="line2d_13">
    <path d="M 73.832727 294.133692 
L 80.45833 293.194957 
L 87.083933 292.645833 
L 93.709536 292.256223 
L 100.335139 291.954018 
L 106.960742 291.707098 
L 113.586345 291.498331 
L 120.211948 291.317488 
L 126.837551 291.157974 
L 133.463154 291.015283 
L 140.088757 290.886204 
L 146.71436 290.768364 
L 153.339963 290.659961 
L 159.965566 290.559596 
L 166.591169 290.466158 
L 173.216772 290.378753 
L 179.842375 290.296649 
L 186.467978 290.219239 
L 193.093581 290.146015 
L 199.719184 290.076548 
L 206.344787 290.010471 
L 212.97039 289.947469 
L 219.595993 289.887268 
L 226.221596 289.829629 
L 232.847199 289.774343 
L 239.472801 289.721226 
L 246.098404 289.670114 
L 252.724007 289.620861 
L 259.34961 289.573337 
L 265.975213 289.527424 
L 272.600816 289.483016 
L 279.226419 289.440019 
L 285.852022 289.398344 
L 292.477625 289.357914 
L 299.103228 289.318656 
L 305.728831 289.280504 
L 312.354434 289.243398 
L 318.980037 289.207281 
L 325.60564 289.172102 
L 332.231243 289.137814 
L 338.856846 289.104372 
L 345.482449 289.071737 
L 352.108052 289.039869 
L 358.733655 289.008734 
L 365.359258 288.978299 
L 371.984861 288.948533 
L 378.610464 288.919407 
L 385.236067 288.890894 
L 391.86167 288.862969 
L 398.487273 288.835609 
" clip-path="url(#p6f18aaa1f8)" style="fill: none; stroke-dasharray: 5.55,2.4; stroke-dashoffset: 0; stroke: #fd8c3b; stroke-width: 1.5"/>
   </g>
   <g id="line2d_14">
    <path d="M 73.832727 295.277176 
L 80.45833 295.066353 
L 87.083933 294.855529 
L 93.709536 294.644706 
L 100.335139 294.433882 
L 106.960742 294.223059 
L 113.586345 294.012235 
L 120.211948 293.801412 
L 126.837551 293.590588 
L 133.463154 293.379765 
L 140.088757 293.168941 
L 146.71436 292.958118 
L 153.339963 292.747294 
L 159.965566 292.536471 
L 166.591169 292.325647 
L 173.216772 292.114824 
L 179.842375 291.904 
L 186.467978 291.693176 
L 193.093581 291.482353 
L 199.719184 291.271529 
L 206.344787 291.060706 
L 212.97039 290.849882 
L 219.595993 290.639059 
L 226.221596 290.428235 
L 232.847199 290.217412 
L 239.472801 290.006588 
L 246.098404 289.795765 
L 252.724007 289.584941 
L 259.34961 289.374118 
L 265.975213 289.163294 
L 272.600816 288.952471 
L 279.226419 288.741647 
L 285.852022 288.530824 
L 292.477625 288.32 
L 299.103228 288.109176 
L 305.728831 287.898353 
L 312.354434 287.687529 
L 318.980037 287.476706 
L 325.60564 287.265882 
L 332.231243 287.055059 
L 338.856846 286.844235 
L 345.482449 286.633412 
L 352.108052 286.422588 
L 358.733655 286.211765 
L 365.359258 286.000941 
L 371.984861 285.790118 
L 378.610464 285.579294 
L 385.236067 285.368471 
L 391.86167 285.157647 
L 398.487273 284.946824 
" clip-path="url(#p6f18aaa1f8)" style="fill: none; stroke-dasharray: 5.55,2.4; stroke-dashoffset: 0; stroke: #73c476; stroke-width: 1.5"/>
   </g>
   <g id="line2d_15">
    <path d="M 73.832727 295.488 
L 80.45833 295.488 
L 87.083933 295.488 
L 93.709536 295.488 
L 100.335139 295.488 
L 106.960742 295.488 
L 113.586345 295.488 
L 120.211948 295.488 
L 126.837551 295.488 
L 133.463154 295.488 
L 140.088757 295.488 
L 146.71436 295.488 
L 153.339963 295.488 
L 159.965566 295.488 
L 166.591169 295.488 
L 173.216772 295.488 
L 179.842375 295.488 
L 186.467978 295.488 
L 193.093581 295.488 
L 199.719184 295.488 
L 206.344787 295.488 
L 212.97039 295.488 
L 219.595993 295.488 
L 226.221596 295.488 
L 232.847199 295.488 
L 239.472801 295.488 
L 246.098404 295.488 
L 252.724007 295.488 
L 259.34961 295.488 
L 265.975213 295.488 
L 272.600816 295.488 
L 279.226419 295.488 
L 285.852022 295.488 
L 292.477625 295.488 
L 299.103228 295.488 
L 305.728831 295.488 
L 312.354434 295.488 
L 318.980037 295.488 
L 325.60564 295.488 
L 332.231243 295.488 
L 338.856846 295.488 
L 345.482449 295.487998 
L 352.108052 295.487976 
L 358.733655 295.487758 
L 365.359258 295.485581 
L 371.984861 295.463808 
L 378.610464 295.24608 
L 385.236067 293.0688 
L 391.86167 271.296 
L 398.487273 53.568 
" clip-path="url(#p6f18aaa1f8)" style="fill: none; stroke: #f2f0f7; stroke-width: 1.5; stroke-linecap: square"/>
   </g>
   <g id="line2d_16">
    <path d="M 73.832727 80.448 
L 80.45833 252.48 
L 87.083933 286.8864 
L 93.709536 293.76768 
L 100.335139 295.143936 
L 106.960742 295.419187 
L 113.586345 295.474237 
L 120.211948 295.485247 
L 126.837551 295.487449 
L 133.463154 295.48789 
L 140.088757 295.487978 
L 146.71436 295.487996 
L 153.339963 295.487999 
L 159.965566 295.488 
L 166.591169 295.488 
L 173.216772 295.488 
L 179.842375 295.488 
L 186.467978 295.488 
L 193.093581 295.488 
L 199.719184 295.488 
L 206.344787 295.488 
L 212.97039 295.488 
L 219.595993 295.488 
L 226.221596 295.488 
L 232.847199 295.488 
L 239.472801 295.488 
L 246.098404 295.488 
L 252.724007 295.488 
L 259.34961 295.488 
L 265.975213 295.488 
L 272.600816 295.488 
L 279.226419 295.488 
L 285.852022 295.488 
L 292.477625 295.488 
L 299.103228 295.488 
L 305.728831 295.488 
L 312.354434 295.488 
L 318.980037 295.488 
L 325.60564 295.488 
L 332.231243 295.488 
L 338.856846 295.488 
L 345.482449 295.488 
L 352.108052 295.488 
L 358.733655 295.488 
L 365.359258 295.488 
L 371.984861 295.488 
L 378.610464 295.488 
L 385.236067 295.488 
L 391.86167 295.488 
L 398.487273 295.488 
" clip-path="url(#p6f18aaa1f8)" style="fill: none; stroke: #d0e1f2; stroke-width: 1.5; stroke-linecap: square"/>
   </g>
   <g id="line2d_17">
    <path d="M 73.832727 294.133692 
L 80.45833 293.194957 
L 87.083933 292.645833 
L 93.709536 292.256223 
L 100.335139 291.954018 
L 106.960742 291.707098 
L 113.586345 291.498331 
L 120.211948 291.317488 
L 126.837551 291.157974 
L 133.463154 291.015283 
L 140.088757 290.886204 
L 146.71436 290.768364 
L 153.339963 290.659961 
L 159.965566 290.559596 
L 166.591169 290.466158 
L 173.216772 290.378753 
L 179.842375 290.296649 
L 186.467978 290.219239 
L 193.093581 290.146015 
L 199.719184 290.076548 
L 206.344787 290.010471 
L 212.97039 289.947469 
L 219.595993 289.887268 
L 226.221596 289.829629 
L 232.847199 289.774343 
L 239.472801 289.721226 
L 246.098404 289.670114 
L 252.724007 289.620861 
L 259.34961 289.573337 
L 265.975213 289.527424 
L 272.600816 289.483016 
L 279.226419 289.440019 
L 285.852022 289.398344 
L 292.477625 289.357914 
L 299.103228 289.318656 
L 305.728831 289.280504 
L 312.354434 289.243398 
L 318.980037 289.207281 
L 325.60564 289.172102 
L 332.231243 289.137814 
L 338.856846 289.104372 
L 345.482449 289.071737 
L 352.108052 289.039869 
L 358.733655 289.008734 
L 365.359258 288.978299 
L 371.984861 288.948533 
L 378.610464 288.919407 
L 385.236067 288.890894 
L 391.86167 288.862969 
L 398.487273 288.835609 
" clip-path="url(#p6f18aaa1f8)" style="fill: none; stroke-dasharray: 5.55,2.4; stroke-dashoffset: 0; stroke: #fd8c3b; stroke-width: 1.5"/>
   </g>
   <g id="line2d_18">
    <path d="M 73.832727 295.277176 
L 80.45833 295.066353 
L 87.083933 294.855529 
L 93.709536 294.644706 
L 100.335139 294.433882 
L 106.960742 294.223059 
L 113.586345 294.012235 
L 120.211948 293.801412 
L 126.837551 293.590588 
L 133.463154 293.379765 
L 140.088757 293.168941 
L 146.71436 292.958118 
L 153.339963 292.747294 
L 159.965566 292.536471 
L 166.591169 292.325647 
L 173.216772 292.114824 
L 179.842375 291.904 
L 186.467978 291.693176 
L 193.093581 291.482353 
L 199.719184 291.271529 
L 206.344787 291.060706 
L 212.97039 290.849882 
L 219.595993 290.639059 
L 226.221596 290.428235 
L 232.847199 290.217412 
L 239.472801 290.006588 
L 246.098404 289.795765 
L 252.724007 289.584941 
L 259.34961 289.374118 
L 265.975213 289.163294 
L 272.600816 288.952471 
L 279.226419 288.741647 
L 285.852022 288.530824 
L 292.477625 288.32 
L 299.103228 288.109176 
L 305.728831 287.898353 
L 312.354434 287.687529 
L 318.980037 287.476706 
L 325.60564 287.265882 
L 332.231243 287.055059 
L 338.856846 286.844235 
L 345.482449 286.633412 
L 352.108052 286.422588 
L 358.733655 286.211765 
L 365.359258 286.000941 
L 371.984861 285.790118 
L 378.610464 285.579294 
L 385.236067 285.368471 
L 391.86167 285.157647 
L 398.487273 284.946824 
" clip-path="url(#p6f18aaa1f8)" style="fill: none; stroke-dasharray: 5.55,2.4; stroke-dashoffset: 0; stroke: #73c476; stroke-width: 1.5"/>
   </g>
   <g id="line2d_19">
    <path d="M 73.832727 295.488 
L 80.45833 295.488 
L 87.083933 295.488 
L 93.709536 295.488 
L 100.335139 295.488 
L 106.960742 295.488 
L 113.586345 295.488 
L 120.211948 295.488 
L 126.837551 295.488 
L 133.463154 295.488 
L 140.088757 295.488 
L 146.71436 295.488 
L 153.339963 295.488 
L 159.965566 295.488 
L 166.591169 295.488 
L 173.216772 295.488 
L 179.842375 295.488 
L 186.467978 295.488 
L 193.093581 295.488 
L 199.719184 295.488 
L 206.344787 295.488 
L 212.97039 295.488 
L 219.595993 295.488 
L 226.221596 295.488 
L 232.847199 295.488 
L 239.472801 295.488 
L 246.098404 295.488 
L 252.724007 295.488 
L 259.34961 295.488 
L 265.975213 295.488 
L 272.600816 295.488 
L 279.226419 295.488 
L 285.852022 295.488 
L 292.477625 295.488 
L 299.103228 295.488 
L 305.728831 295.488 
L 312.354434 295.488 
L 318.980037 295.487999 
L 325.60564 295.487996 
L 332.231243 295.487978 
L 338.856846 295.48789 
L 345.482449 295.487449 
L 352.108052 295.485247 
L 358.733655 295.474237 
L 365.359258 295.419187 
L 371.984861 295.143936 
L 378.610464 293.76768 
L 385.236067 286.8864 
L 391.86167 252.48 
L 398.487273 80.448 
" clip-path="url(#p6f18aaa1f8)" style="fill: none; stroke: #e2e2ef; stroke-width: 1.5; stroke-linecap: square"/>
   </g>
   <g id="line2d_20">
    <path d="M 73.832727 107.328 
L 80.45833 239.04 
L 87.083933 278.5536 
L 93.709536 290.40768 
L 100.335139 293.963904 
L 106.960742 295.030771 
L 113.586345 295.350831 
L 120.211948 295.446849 
L 126.837551 295.475655 
L 133.463154 295.484296 
L 140.088757 295.486889 
L 146.71436 295.487667 
L 153.339963 295.4879 
L 159.965566 295.48797 
L 166.591169 295.487991 
L 173.216772 295.487997 
L 179.842375 295.487999 
L 186.467978 295.488 
L 193.093581 295.488 
L 199.719184 295.488 
L 206.344787 295.488 
L 212.97039 295.488 
L 219.595993 295.488 
L 226.221596 295.488 
L 232.847199 295.488 
L 239.472801 295.488 
L 246.098404 295.488 
L 252.724007 295.488 
L 259.34961 295.488 
L 265.975213 295.488 
L 272.600816 295.488 
L 279.226419 295.488 
L 285.852022 295.488 
L 292.477625 295.488 
L 299.103228 295.488 
L 305.728831 295.488 
L 312.354434 295.488 
L 318.980037 295.488 
L 325.60564 295.488 
L 332.231243 295.488 
L 338.856846 295.488 
L 345.482449 295.488 
L 352.108052 295.488 
L 358.733655 295.488 
L 365.359258 295.488 
L 371.984861 295.488 
L 378.610464 295.488 
L 385.236067 295.488 
L 391.86167 295.488 
L 398.487273 295.488 
" clip-path="url(#p6f18aaa1f8)" style="fill: none; stroke: #b7d4ea; stroke-width: 1.5; stroke-linecap: square"/>
   </g>
   <g id="line2d_21">
    <path d="M 73.832727 294.133692 
L 80.45833 293.194957 
L 87.083933 292.645833 
L 93.709536 292.256223 
L 100.335139 291.954018 
L 106.960742 291.707098 
L 113.586345 291.498331 
L 120.211948 291.317488 
L 126.837551 291.157974 
L 133.463154 291.015283 
L 140.088757 290.886204 
L 146.71436 290.768364 
L 153.339963 290.659961 
L 159.965566 290.559596 
L 166.591169 290.466158 
L 173.216772 290.378753 
L 179.842375 290.296649 
L 186.467978 290.219239 
L 193.093581 290.146015 
L 199.719184 290.076548 
L 206.344787 290.010471 
L 212.97039 289.947469 
L 219.595993 289.887268 
L 226.221596 289.829629 
L 232.847199 289.774343 
L 239.472801 289.721226 
L 246.098404 289.670114 
L 252.724007 289.620861 
L 259.34961 289.573337 
L 265.975213 289.527424 
L 272.600816 289.483016 
L 279.226419 289.440019 
L 285.852022 289.398344 
L 292.477625 289.357914 
L 299.103228 289.318656 
L 305.728831 289.280504 
L 312.354434 289.243398 
L 318.980037 289.207281 
L 325.60564 289.172102 
L 332.231243 289.137814 
L 338.856846 289.104372 
L 345.482449 289.071737 
L 352.108052 289.039869 
L 358.733655 289.008734 
L 365.359258 288.978299 
L 371.984861 288.948533 
L 378.610464 288.919407 
L 385.236067 288.890894 
L 391.86167 288.862969 
L 398.487273 288.835609 
" clip-path="url(#p6f18aaa1f8)" style="fill: none; stroke-dasharray: 5.55,2.4; stroke-dashoffset: 0; stroke: #fd8c3b; stroke-width: 1.5"/>
   </g>
   <g id="line2d_22">
    <path d="M 73.832727 295.277176 
L 80.45833 295.066353 
L 87.083933 294.855529 
L 93.709536 294.644706 
L 100.335139 294.433882 
L 106.960742 294.223059 
L 113.586345 294.012235 
L 120.211948 293.801412 
L 126.837551 293.590588 
L 133.463154 293.379765 
L 140.088757 293.168941 
L 146.71436 292.958118 
L 153.339963 292.747294 
L 159.965566 292.536471 
L 166.591169 292.325647 
L 173.216772 292.114824 
L 179.842375 291.904 
L 186.467978 291.693176 
L 193.093581 291.482353 
L 199.719184 291.271529 
L 206.344787 291.060706 
L 212.97039 290.849882 
L 219.595993 290.639059 
L 226.221596 290.428235 
L 232.847199 290.217412 
L 239.472801 290.006588 
L 246.098404 289.795765 
L 252.724007 289.584941 
L 259.34961 289.374118 
L 265.975213 289.163294 
L 272.600816 288.952471 
L 279.226419 288.741647 
L 285.852022 288.530824 
L 292.477625 288.32 
L 299.103228 288.109176 
L 305.728831 287.898353 
L 312.354434 287.687529 
L 318.980037 287.476706 
L 325.60564 287.265882 
L 332.231243 287.055059 
L 338.856846 286.844235 
L 345.482449 286.633412 
L 352.108052 286.422588 
L 358.733655 286.211765 
L 365.359258 286.000941 
L 371.984861 285.790118 
L 378.610464 285.579294 
L 385.236067 285.368471 
L 391.86167 285.157647 
L 398.487273 284.946824 
" clip-path="url(#p6f18aaa1f8)" style="fill: none; stroke-dasharray: 5.55,2.4; stroke-dashoffset: 0; stroke: #73c476; stroke-width: 1.5"/>
   </g>
   <g id="line2d_23">
    <path d="M 73.832727 295.488 
L 80.45833 295.488 
L 87.083933 295.488 
L 93.709536 295.488 
L 100.335139 295.488 
L 106.960742 295.488 
L 113.586345 295.488 
L 120.211948 295.488 
L 126.837551 295.488 
L 133.463154 295.488 
L 140.088757 295.488 
L 146.71436 295.488 
L 153.339963 295.488 
L 159.965566 295.488 
L 166.591169 295.488 
L 173.216772 295.488 
L 179.842375 295.488 
L 186.467978 295.488 
L 193.093581 295.488 
L 199.719184 295.488 
L 206.344787 295.488 
L 212.97039 295.488 
L 219.595993 295.488 
L 226.221596 295.488 
L 232.847199 295.488 
L 239.472801 295.488 
L 246.098404 295.488 
L 252.724007 295.488 
L 259.34961 295.488 
L 265.975213 295.488 
L 272.600816 295.488 
L 279.226419 295.488 
L 285.852022 295.488 
L 292.477625 295.487999 
L 299.103228 295.487997 
L 305.728831 295.487991 
L 312.354434 295.48797 
L 318.980037 295.4879 
L 325.60564 295.487667 
L 332.231243 295.486889 
L 338.856846 295.484296 
L 345.482449 295.475655 
L 352.108052 295.446849 
L 358.733655 295.350831 
L 365.359258 295.030771 
L 371.984861 293.963904 
L 378.610464 290.40768 
L 385.236067 278.5536 
L 391.86167 239.04 
L 398.487273 107.328 
" clip-path="url(#p6f18aaa1f8)" style="fill: none; stroke: #cecfe5; stroke-width: 1.5; stroke-linecap: square"/>
   </g>
   <g id="line2d_24">
    <path d="M 73.832727 134.208 
L 80.45833 230.976 
L 87.083933 269.6832 
L 93.709536 285.16608 
L 100.335139 291.359232 
L 106.960742 293.836493 
L 113.586345 294.827397 
L 120.211948 295.223759 
L 126.837551 295.382304 
L 133.463154 295.445721 
L 140.088757 295.471089 
L 146.71436 295.481235 
L 153.339963 295.485294 
L 159.965566 295.486918 
L 166.591169 295.487567 
L 173.216772 295.487827 
L 179.842375 295.487931 
L 186.467978 295.487972 
L 193.093581 295.487989 
L 199.719184 295.487996 
L 206.344787 295.487998 
L 212.97039 295.487999 
L 219.595993 295.488 
L 226.221596 295.488 
L 232.847199 295.488 
L 239.472801 295.488 
L 246.098404 295.488 
L 252.724007 295.488 
L 259.34961 295.488 
L 265.975213 295.488 
L 272.600816 295.488 
L 279.226419 295.488 
L 285.852022 295.488 
L 292.477625 295.488 
L 299.103228 295.488 
L 305.728831 295.488 
L 312.354434 295.488 
L 318.980037 295.488 
L 325.60564 295.488 
L 332.231243 295.488 
L 338.856846 295.488 
L 345.482449 295.488 
L 352.108052 295.488 
L 358.733655 295.488 
L 365.359258 295.488 
L 371.984861 295.488 
L 378.610464 295.488 
L 385.236067 295.488 
L 391.86167 295.488 
L 398.487273 295.488 
" clip-path="url(#p6f18aaa1f8)" style="fill: none; stroke: #94c4df; stroke-width: 1.5; stroke-linecap: square"/>
   </g>
   <g id="line2d_25">
    <path d="M 73.832727 294.133692 
L 80.45833 293.194957 
L 87.083933 292.645833 
L 93.709536 292.256223 
L 100.335139 291.954018 
L 106.960742 291.707098 
L 113.586345 291.498331 
L 120.211948 291.317488 
L 126.837551 291.157974 
L 133.463154 291.015283 
L 140.088757 290.886204 
L 146.71436 290.768364 
L 153.339963 290.659961 
L 159.965566 290.559596 
L 166.591169 290.466158 
L 173.216772 290.378753 
L 179.842375 290.296649 
L 186.467978 290.219239 
L 193.093581 290.146015 
L 199.719184 290.076548 
L 206.344787 290.010471 
L 212.97039 289.947469 
L 219.595993 289.887268 
L 226.221596 289.829629 
L 232.847199 289.774343 
L 239.472801 289.721226 
L 246.098404 289.670114 
L 252.724007 289.620861 
L 259.34961 289.573337 
L 265.975213 289.527424 
L 272.600816 289.483016 
L 279.226419 289.440019 
L 285.852022 289.398344 
L 292.477625 289.357914 
L 299.103228 289.318656 
L 305.728831 289.280504 
L 312.354434 289.243398 
L 318.980037 289.207281 
L 325.60564 289.172102 
L 332.231243 289.137814 
L 338.856846 289.104372 
L 345.482449 289.071737 
L 352.108052 289.039869 
L 358.733655 289.008734 
L 365.359258 288.978299 
L 371.984861 288.948533 
L 378.610464 288.919407 
L 385.236067 288.890894 
L 391.86167 288.862969 
L 398.487273 288.835609 
" clip-path="url(#p6f18aaa1f8)" style="fill: none; stroke-dasharray: 5.55,2.4; stroke-dashoffset: 0; stroke: #fd8c3b; stroke-width: 1.5"/>
   </g>
   <g id="line2d_26">
    <path d="M 73.832727 295.277176 
L 80.45833 295.066353 
L 87.083933 294.855529 
L 93.709536 294.644706 
L 100.335139 294.433882 
L 106.960742 294.223059 
L 113.586345 294.012235 
L 120.211948 293.801412 
L 126.837551 293.590588 
L 133.463154 293.379765 
L 140.088757 293.168941 
L 146.71436 292.958118 
L 153.339963 292.747294 
L 159.965566 292.536471 
L 166.591169 292.325647 
L 173.216772 292.114824 
L 179.842375 291.904 
L 186.467978 291.693176 
L 193.093581 291.482353 
L 199.719184 291.271529 
L 206.344787 291.060706 
L 212.97039 290.849882 
L 219.595993 290.639059 
L 226.221596 290.428235 
L 232.847199 290.217412 
L 239.472801 290.006588 
L 246.098404 289.795765 
L 252.724007 289.584941 
L 259.34961 289.374118 
L 265.975213 289.163294 
L 272.600816 288.952471 
L 279.226419 288.741647 
L 285.852022 288.530824 
L 292.477625 288.32 
L 299.103228 288.109176 
L 305.728831 287.898353 
L 312.354434 287.687529 
L 318.980037 287.476706 
L 325.60564 287.265882 
L 332.231243 287.055059 
L 338.856846 286.844235 
L 345.482449 286.633412 
L 352.108052 286.422588 
L 358.733655 286.211765 
L 365.359258 286.000941 
L 371.984861 285.790118 
L 378.610464 285.579294 
L 385.236067 285.368471 
L 391.86167 285.157647 
L 398.487273 284.946824 
" clip-path="url(#p6f18aaa1f8)" style="fill: none; stroke-dasharray: 5.55,2.4; stroke-dashoffset: 0; stroke: #73c476; stroke-width: 1.5"/>
   </g>
   <g id="line2d_27">
    <path d="M 73.832727 295.488 
L 80.45833 295.488 
L 87.083933 295.488 
L 93.709536 295.488 
L 100.335139 295.488 
L 106.960742 295.488 
L 113.586345 295.488 
L 120.211948 295.488 
L 126.837551 295.488 
L 133.463154 295.488 
L 140.088757 295.488 
L 146.71436 295.488 
L 153.339963 295.488 
L 159.965566 295.488 
L 166.591169 295.488 
L 173.216772 295.488 
L 179.842375 295.488 
L 186.467978 295.488 
L 193.093581 295.488 
L 199.719184 295.488 
L 206.344787 295.488 
L 212.97039 295.488 
L 219.595993 295.488 
L 226.221596 295.488 
L 232.847199 295.488 
L 239.472801 295.488 
L 246.098404 295.488 
L 252.724007 295.488 
L 259.34961 295.487999 
L 265.975213 295.487998 
L 272.600816 295.487996 
L 279.226419 295.487989 
L 285.852022 295.487972 
L 292.477625 295.487931 
L 299.103228 295.487827 
L 305.728831 295.487567 
L 312.354434 295.486918 
L 318.980037 295.485294 
L 325.60564 295.481235 
L 332.231243 295.471089 
L 338.856846 295.445721 
L 345.482449 295.382304 
L 352.108052 295.223759 
L 358.733655 294.827397 
L 365.359258 293.836493 
L 371.984861 291.359232 
L 378.610464 285.16608 
L 385.236067 269.6832 
L 391.86167 230.976 
L 398.487273 134.208 
" clip-path="url(#p6f18aaa1f8)" style="fill: none; stroke: #b6b6d8; stroke-width: 1.5; stroke-linecap: square"/>
   </g>
   <g id="line2d_28">
    <path d="M 73.832727 161.088 
L 80.45833 228.288 
L 87.083933 261.888 
L 93.709536 278.688 
L 100.335139 287.088 
L 106.960742 291.288 
L 113.586345 293.388 
L 120.211948 294.438 
L 126.837551 294.963 
L 133.463154 295.2255 
L 140.088757 295.35675 
L 146.71436 295.422375 
L 153.339963 295.455188 
L 159.965566 295.471594 
L 166.591169 295.479797 
L 173.216772 295.483898 
L 179.842375 295.485949 
L 186.467978 295.486975 
L 193.093581 295.487487 
L 199.719184 295.487744 
L 206.344787 295.487872 
L 212.97039 295.487936 
L 219.595993 295.487968 
L 226.221596 295.487984 
L 232.847199 295.487992 
L 239.472801 295.487996 
L 246.098404 295.487998 
L 252.724007 295.487999 
L 259.34961 295.487999 
L 265.975213 295.488 
L 272.600816 295.488 
L 279.226419 295.488 
L 285.852022 295.488 
L 292.477625 295.488 
L 299.103228 295.488 
L 305.728831 295.488 
L 312.354434 295.488 
L 318.980037 295.488 
L 325.60564 295.488 
L 332.231243 295.488 
L 338.856846 295.488 
L 345.482449 295.488 
L 352.108052 295.488 
L 358.733655 295.488 
L 365.359258 295.488 
L 371.984861 295.488 
L 378.610464 295.488 
L 385.236067 295.488 
L 391.86167 295.488 
L 398.487273 295.488 
" clip-path="url(#p6f18aaa1f8)" style="fill: none; stroke: #6aaed6; stroke-width: 1.5; stroke-linecap: square"/>
   </g>
   <g id="line2d_29">
    <path d="M 73.832727 294.133692 
L 80.45833 293.194957 
L 87.083933 292.645833 
L 93.709536 292.256223 
L 100.335139 291.954018 
L 106.960742 291.707098 
L 113.586345 291.498331 
L 120.211948 291.317488 
L 126.837551 291.157974 
L 133.463154 291.015283 
L 140.088757 290.886204 
L 146.71436 290.768364 
L 153.339963 290.659961 
L 159.965566 290.559596 
L 166.591169 290.466158 
L 173.216772 290.378753 
L 179.842375 290.296649 
L 186.467978 290.219239 
L 193.093581 290.146015 
L 199.719184 290.076548 
L 206.344787 290.010471 
L 212.97039 289.947469 
L 219.595993 289.887268 
L 226.221596 289.829629 
L 232.847199 289.774343 
L 239.472801 289.721226 
L 246.098404 289.670114 
L 252.724007 289.620861 
L 259.34961 289.573337 
L 265.975213 289.527424 
L 272.600816 289.483016 
L 279.226419 289.440019 
L 285.852022 289.398344 
L 292.477625 289.357914 
L 299.103228 289.318656 
L 305.728831 289.280504 
L 312.354434 289.243398 
L 318.980037 289.207281 
L 325.60564 289.172102 
L 332.231243 289.137814 
L 338.856846 289.104372 
L 345.482449 289.071737 
L 352.108052 289.039869 
L 358.733655 289.008734 
L 365.359258 288.978299 
L 371.984861 288.948533 
L 378.610464 288.919407 
L 385.236067 288.890894 
L 391.86167 288.862969 
L 398.487273 288.835609 
" clip-path="url(#p6f18aaa1f8)" style="fill: none; stroke-dasharray: 5.55,2.4; stroke-dashoffset: 0; stroke: #fd8c3b; stroke-width: 1.5"/>
   </g>
   <g id="line2d_30">
    <path d="M 73.832727 295.277176 
L 80.45833 295.066353 
L 87.083933 294.855529 
L 93.709536 294.644706 
L 100.335139 294.433882 
L 106.960742 294.223059 
L 113.586345 294.012235 
L 120.211948 293.801412 
L 126.837551 293.590588 
L 133.463154 293.379765 
L 140.088757 293.168941 
L 146.71436 292.958118 
L 153.339963 292.747294 
L 159.965566 292.536471 
L 166.591169 292.325647 
L 173.216772 292.114824 
L 179.842375 291.904 
L 186.467978 291.693176 
L 193.093581 291.482353 
L 199.719184 291.271529 
L 206.344787 291.060706 
L 212.97039 290.849882 
L 219.595993 290.639059 
L 226.221596 290.428235 
L 232.847199 290.217412 
L 239.472801 290.006588 
L 246.098404 289.795765 
L 252.724007 289.584941 
L 259.34961 289.374118 
L 265.975213 289.163294 
L 272.600816 288.952471 
L 279.226419 288.741647 
L 285.852022 288.530824 
L 292.477625 288.32 
L 299.103228 288.109176 
L 305.728831 287.898353 
L 312.354434 287.687529 
L 318.980037 287.476706 
L 325.60564 287.265882 
L 332.231243 287.055059 
L 338.856846 286.844235 
L 345.482449 286.633412 
L 352.108052 286.422588 
L 358.733655 286.211765 
L 365.359258 286.000941 
L 371.984861 285.790118 
L 378.610464 285.579294 
L 385.236067 285.368471 
L 391.86167 285.157647 
L 398.487273 284.946824 
" clip-path="url(#p6f18aaa1f8)" style="fill: none; stroke-dasharray: 5.55,2.4; stroke-dashoffset: 0; stroke: #73c476; stroke-width: 1.5"/>
   </g>
   <g id="line2d_31">
    <path d="M 73.832727 295.488 
L 80.45833 295.488 
L 87.083933 295.488 
L 93.709536 295.488 
L 100.335139 295.488 
L 106.960742 295.488 
L 113.586345 295.488 
L 120.211948 295.488 
L 126.837551 295.488 
L 133.463154 295.488 
L 140.088757 295.488 
L 146.71436 295.488 
L 153.339963 295.488 
L 159.965566 295.488 
L 166.591169 295.488 
L 173.216772 295.488 
L 179.842375 295.488 
L 186.467978 295.488 
L 193.093581 295.488 
L 199.719184 295.488 
L 206.344787 295.488 
L 212.97039 295.487999 
L 219.595993 295.487999 
L 226.221596 295.487998 
L 232.847199 295.487996 
L 239.472801 295.487992 
L 246.098404 295.487984 
L 252.724007 295.487968 
L 259.34961 295.487936 
L 265.975213 295.487872 
L 272.600816 295.487744 
L 279.226419 295.487487 
L 285.852022 295.486975 
L 292.477625 295.485949 
L 299.103228 295.483898 
L 305.728831 295.479797 
L 312.354434 295.471594 
L 318.980037 295.455188 
L 325.60564 295.422375 
L 332.231243 295.35675 
L 338.856846 295.2255 
L 345.482449 294.963 
L 352.108052 294.438 
L 358.733655 293.388 
L 365.359258 291.288 
L 371.984861 287.088 
L 378.610464 278.688 
L 385.236067 261.888 
L 391.86167 228.288 
L 398.487273 161.088 
" clip-path="url(#p6f18aaa1f8)" style="fill: none; stroke: #9e9ac8; stroke-width: 1.5; stroke-linecap: square"/>
   </g>
   <g id="line2d_32">
    <path d="M 73.832727 187.968 
L 80.45833 230.976 
L 87.083933 256.7808 
L 93.709536 272.26368 
L 100.335139 281.553408 
L 106.960742 287.127245 
L 113.586345 290.471547 
L 120.211948 292.478128 
L 126.837551 293.682077 
L 133.463154 294.404446 
L 140.088757 294.837868 
L 146.71436 295.097921 
L 153.339963 295.253952 
L 159.965566 295.347571 
L 166.591169 295.403743 
L 173.216772 295.437446 
L 179.842375 295.457667 
L 186.467978 295.4698 
L 193.093581 295.47708 
L 199.719184 295.481448 
L 206.344787 295.484069 
L 212.97039 295.485641 
L 219.595993 295.486585 
L 226.221596 295.487151 
L 232.847199 295.487491 
L 239.472801 295.487694 
L 246.098404 295.487817 
L 252.724007 295.48789 
L 259.34961 295.487934 
L 265.975213 295.48796 
L 272.600816 295.487976 
L 279.226419 295.487986 
L 285.852022 295.487991 
L 292.477625 295.487995 
L 299.103228 295.487997 
L 305.728831 295.487998 
L 312.354434 295.487999 
L 318.980037 295.487999 
L 325.60564 295.488 
L 332.231243 295.488 
L 338.856846 295.488 
L 345.482449 295.488 
L 352.108052 295.488 
L 358.733655 295.488 
L 365.359258 295.488 
L 371.984861 295.488 
L 378.610464 295.488 
L 385.236067 295.488 
L 391.86167 295.488 
L 398.487273 295.488 
" clip-path="url(#p6f18aaa1f8)" style="fill: none; stroke: #4a98c9; stroke-width: 1.5; stroke-linecap: square"/>
   </g>
   <g id="line2d_33">
    <path d="M 73.832727 294.133692 
L 80.45833 293.194957 
L 87.083933 292.645833 
L 93.709536 292.256223 
L 100.335139 291.954018 
L 106.960742 291.707098 
L 113.586345 291.498331 
L 120.211948 291.317488 
L 126.837551 291.157974 
L 133.463154 291.015283 
L 140.088757 290.886204 
L 146.71436 290.768364 
L 153.339963 290.659961 
L 159.965566 290.559596 
L 166.591169 290.466158 
L 173.216772 290.378753 
L 179.842375 290.296649 
L 186.467978 290.219239 
L 193.093581 290.146015 
L 199.719184 290.076548 
L 206.344787 290.010471 
L 212.97039 289.947469 
L 219.595993 289.887268 
L 226.221596 289.829629 
L 232.847199 289.774343 
L 239.472801 289.721226 
L 246.098404 289.670114 
L 252.724007 289.620861 
L 259.34961 289.573337 
L 265.975213 289.527424 
L 272.600816 289.483016 
L 279.226419 289.440019 
L 285.852022 289.398344 
L 292.477625 289.357914 
L 299.103228 289.318656 
L 305.728831 289.280504 
L 312.354434 289.243398 
L 318.980037 289.207281 
L 325.60564 289.172102 
L 332.231243 289.137814 
L 338.856846 289.104372 
L 345.482449 289.071737 
L 352.108052 289.039869 
L 358.733655 289.008734 
L 365.359258 288.978299 
L 371.984861 288.948533 
L 378.610464 288.919407 
L 385.236067 288.890894 
L 391.86167 288.862969 
L 398.487273 288.835609 
" clip-path="url(#p6f18aaa1f8)" style="fill: none; stroke-dasharray: 5.55,2.4; stroke-dashoffset: 0; stroke: #fd8c3b; stroke-width: 1.5"/>
   </g>
   <g id="line2d_34">
    <path d="M 73.832727 295.277176 
L 80.45833 295.066353 
L 87.083933 294.855529 
L 93.709536 294.644706 
L 100.335139 294.433882 
L 106.960742 294.223059 
L 113.586345 294.012235 
L 120.211948 293.801412 
L 126.837551 293.590588 
L 133.463154 293.379765 
L 140.088757 293.168941 
L 146.71436 292.958118 
L 153.339963 292.747294 
L 159.965566 292.536471 
L 166.591169 292.325647 
L 173.216772 292.114824 
L 179.842375 291.904 
L 186.467978 291.693176 
L 193.093581 291.482353 
L 199.719184 291.271529 
L 206.344787 291.060706 
L 212.97039 290.849882 
L 219.595993 290.639059 
L 226.221596 290.428235 
L 232.847199 290.217412 
L 239.472801 290.006588 
L 246.098404 289.795765 
L 252.724007 289.584941 
L 259.34961 289.374118 
L 265.975213 289.163294 
L 272.600816 288.952471 
L 279.226419 288.741647 
L 285.852022 288.530824 
L 292.477625 288.32 
L 299.103228 288.109176 
L 305.728831 287.898353 
L 312.354434 287.687529 
L 318.980037 287.476706 
L 325.60564 287.265882 
L 332.231243 287.055059 
L 338.856846 286.844235 
L 345.482449 286.633412 
L 352.108052 286.422588 
L 358.733655 286.211765 
L 365.359258 286.000941 
L 371.984861 285.790118 
L 378.610464 285.579294 
L 385.236067 285.368471 
L 391.86167 285.157647 
L 398.487273 284.946824 
" clip-path="url(#p6f18aaa1f8)" style="fill: none; stroke-dasharray: 5.55,2.4; stroke-dashoffset: 0; stroke: #73c476; stroke-width: 1.5"/>
   </g>
   <g id="line2d_35">
    <path d="M 73.832727 295.488 
L 80.45833 295.488 
L 87.083933 295.488 
L 93.709536 295.488 
L 100.335139 295.488 
L 106.960742 295.488 
L 113.586345 295.488 
L 120.211948 295.488 
L 126.837551 295.488 
L 133.463154 295.488 
L 140.088757 295.488 
L 146.71436 295.488 
L 153.339963 295.487999 
L 159.965566 295.487999 
L 166.591169 295.487998 
L 173.216772 295.487997 
L 179.842375 295.487995 
L 186.467978 295.487991 
L 193.093581 295.487986 
L 199.719184 295.487976 
L 206.344787 295.48796 
L 212.97039 295.487934 
L 219.595993 295.48789 
L 226.221596 295.487817 
L 232.847199 295.487694 
L 239.472801 295.487491 
L 246.098404 295.487151 
L 252.724007 295.486585 
L 259.34961 295.485641 
L 265.975213 295.484069 
L 272.600816 295.481448 
L 279.226419 295.47708 
L 285.852022 295.4698 
L 292.477625 295.457667 
L 299.103228 295.437446 
L 305.728831 295.403743 
L 312.354434 295.347571 
L 318.980037 295.253952 
L 325.60564 295.097921 
L 332.231243 294.837868 
L 338.856846 294.404446 
L 345.482449 293.682077 
L 352.108052 292.478128 
L 358.733655 290.471547 
L 365.359258 287.127245 
L 371.984861 281.553408 
L 378.610464 272.26368 
L 385.236067 256.7808 
L 391.86167 230.976 
L 398.487273 187.968 
" clip-path="url(#p6f18aaa1f8)" style="fill: none; stroke: #8683bd; stroke-width: 1.5; stroke-linecap: square"/>
   </g>
   <g id="line2d_36">
    <path d="M 73.832727 214.847999 
L 80.45833 239.039999 
L 87.083933 255.974399 
L 93.709536 267.82848 
L 100.335139 276.126336 
L 106.960742 281.934835 
L 113.586345 286.000784 
L 120.211948 288.846949 
L 126.837551 290.839264 
L 133.463154 292.233885 
L 140.088757 293.21012 
L 146.71436 293.893484 
L 153.339963 294.371839 
L 159.965566 294.706687 
L 166.591169 294.941081 
L 173.216772 295.105157 
L 179.842375 295.22001 
L 186.467978 295.300407 
L 193.093581 295.356685 
L 199.719184 295.396079 
L 206.344787 295.423656 
L 212.97039 295.442959 
L 219.595993 295.456471 
L 226.221596 295.46593 
L 232.847199 295.472551 
L 239.472801 295.477186 
L 246.098404 295.48043 
L 252.724007 295.482701 
L 259.34961 295.484291 
L 265.975213 295.485403 
L 272.600816 295.486182 
L 279.226419 295.486728 
L 285.852022 295.487109 
L 292.477625 295.487377 
L 299.103228 295.487564 
L 305.728831 295.487695 
L 312.354434 295.487786 
L 318.980037 295.48785 
L 325.60564 295.487895 
L 332.231243 295.487927 
L 338.856846 295.487949 
L 345.482449 295.487964 
L 352.108052 295.487975 
L 358.733655 295.487982 
L 365.359258 295.487988 
L 371.984861 295.487991 
L 378.610464 295.487994 
L 385.236067 295.487996 
L 391.86167 295.487997 
L 398.487273 295.487998 
" clip-path="url(#p6f18aaa1f8)" style="fill: none; stroke: #2e7ebc; stroke-width: 1.5; stroke-linecap: square"/>
   </g>
   <g id="line2d_37">
    <path d="M 73.832727 294.133692 
L 80.45833 293.194957 
L 87.083933 292.645833 
L 93.709536 292.256223 
L 100.335139 291.954018 
L 106.960742 291.707098 
L 113.586345 291.498331 
L 120.211948 291.317488 
L 126.837551 291.157974 
L 133.463154 291.015283 
L 140.088757 290.886204 
L 146.71436 290.768364 
L 153.339963 290.659961 
L 159.965566 290.559596 
L 166.591169 290.466158 
L 173.216772 290.378753 
L 179.842375 290.296649 
L 186.467978 290.219239 
L 193.093581 290.146015 
L 199.719184 290.076548 
L 206.344787 290.010471 
L 212.97039 289.947469 
L 219.595993 289.887268 
L 226.221596 289.829629 
L 232.847199 289.774343 
L 239.472801 289.721226 
L 246.098404 289.670114 
L 252.724007 289.620861 
L 259.34961 289.573337 
L 265.975213 289.527424 
L 272.600816 289.483016 
L 279.226419 289.440019 
L 285.852022 289.398344 
L 292.477625 289.357914 
L 299.103228 289.318656 
L 305.728831 289.280504 
L 312.354434 289.243398 
L 318.980037 289.207281 
L 325.60564 289.172102 
L 332.231243 289.137814 
L 338.856846 289.104372 
L 345.482449 289.071737 
L 352.108052 289.039869 
L 358.733655 289.008734 
L 365.359258 288.978299 
L 371.984861 288.948533 
L 378.610464 288.919407 
L 385.236067 288.890894 
L 391.86167 288.862969 
L 398.487273 288.835609 
" clip-path="url(#p6f18aaa1f8)" style="fill: none; stroke-dasharray: 5.55,2.4; stroke-dashoffset: 0; stroke: #fd8c3b; stroke-width: 1.5"/>
   </g>
   <g id="line2d_38">
    <path d="M 73.832727 295.277176 
L 80.45833 295.066353 
L 87.083933 294.855529 
L 93.709536 294.644706 
L 100.335139 294.433882 
L 106.960742 294.223059 
L 113.586345 294.012235 
L 120.211948 293.801412 
L 126.837551 293.590588 
L 133.463154 293.379765 
L 140.088757 293.168941 
L 146.71436 292.958118 
L 153.339963 292.747294 
L 159.965566 292.536471 
L 166.591169 292.325647 
L 173.216772 292.114824 
L 179.842375 291.904 
L 186.467978 291.693176 
L 193.093581 291.482353 
L 199.719184 291.271529 
L 206.344787 291.060706 
L 212.97039 290.849882 
L 219.595993 290.639059 
L 226.221596 290.428235 
L 232.847199 290.217412 
L 239.472801 290.006588 
L 246.098404 289.795765 
L 252.724007 289.584941 
L 259.34961 289.374118 
L 265.975213 289.163294 
L 272.600816 288.952471 
L 279.226419 288.741647 
L 285.852022 288.530824 
L 292.477625 288.32 
L 299.103228 288.109176 
L 305.728831 287.898353 
L 312.354434 287.687529 
L 318.980037 287.476706 
L 325.60564 287.265882 
L 332.231243 287.055059 
L 338.856846 286.844235 
L 345.482449 286.633412 
L 352.108052 286.422588 
L 358.733655 286.211765 
L 365.359258 286.000941 
L 371.984861 285.790118 
L 378.610464 285.579294 
L 385.236067 285.368471 
L 391.86167 285.157647 
L 398.487273 284.946824 
" clip-path="url(#p6f18aaa1f8)" style="fill: none; stroke-dasharray: 5.55,2.4; stroke-dashoffset: 0; stroke: #73c476; stroke-width: 1.5"/>
   </g>
   <g id="line2d_39">
    <path d="M 73.832727 295.487998 
L 80.45833 295.487997 
L 87.083933 295.487996 
L 93.709536 295.487994 
L 100.335139 295.487991 
L 106.960742 295.487988 
L 113.586345 295.487982 
L 120.211948 295.487975 
L 126.837551 295.487964 
L 133.463154 295.487949 
L 140.088757 295.487927 
L 146.71436 295.487895 
L 153.339963 295.48785 
L 159.965566 295.487786 
L 166.591169 295.487695 
L 173.216772 295.487564 
L 179.842375 295.487377 
L 186.467978 295.487109 
L 193.093581 295.486728 
L 199.719184 295.486182 
L 206.344787 295.485403 
L 212.97039 295.484291 
L 219.595993 295.482701 
L 226.221596 295.48043 
L 232.847199 295.477186 
L 239.472801 295.472551 
L 246.098404 295.46593 
L 252.724007 295.456471 
L 259.34961 295.442959 
L 265.975213 295.423656 
L 272.600816 295.396079 
L 279.226419 295.356685 
L 285.852022 295.300407 
L 292.477625 295.22001 
L 299.103228 295.105157 
L 305.728831 294.941081 
L 312.354434 294.706687 
L 318.980037 294.371839 
L 325.60564 293.893484 
L 332.231243 293.21012 
L 338.856846 292.233885 
L 345.482449 290.839264 
L 352.108052 288.846949 
L 358.733655 286.000784 
L 365.359258 281.934835 
L 371.984861 276.126336 
L 378.610464 267.82848 
L 385.236067 255.974399 
L 391.86167 239.039999 
L 398.487273 214.847999 
" clip-path="url(#p6f18aaa1f8)" style="fill: none; stroke: #7262ac; stroke-width: 1.5; stroke-linecap: square"/>
   </g>
   <g id="line2d_40">
    <path d="M 73.832727 241.727233 
L 80.45833 252.479386 
L 87.083933 261.081109 
L 93.709536 267.962487 
L 100.335139 273.46759 
L 106.960742 277.871672 
L 113.586345 281.394937 
L 120.211948 284.21355 
L 126.837551 286.46844 
L 133.463154 288.272352 
L 140.088757 289.715482 
L 146.71436 290.869985 
L 153.339963 291.793588 
L 159.965566 292.532471 
L 166.591169 293.123576 
L 173.216772 293.596461 
L 179.842375 293.974769 
L 186.467978 294.277415 
L 193.093581 294.519532 
L 199.719184 294.713226 
L 206.344787 294.868181 
L 212.97039 294.992144 
L 219.595993 295.091316 
L 226.221596 295.170652 
L 232.847199 295.234122 
L 239.472801 295.284898 
L 246.098404 295.325518 
L 252.724007 295.358014 
L 259.34961 295.384012 
L 265.975213 295.404809 
L 272.600816 295.421447 
L 279.226419 295.434758 
L 285.852022 295.445406 
L 292.477625 295.453925 
L 299.103228 295.46074 
L 305.728831 295.466192 
L 312.354434 295.470554 
L 318.980037 295.474043 
L 325.60564 295.476834 
L 332.231243 295.479067 
L 338.856846 295.480854 
L 345.482449 295.482283 
L 352.108052 295.483427 
L 358.733655 295.484341 
L 365.359258 295.485073 
L 371.984861 295.485658 
L 378.610464 295.486127 
L 385.236067 295.486501 
L 391.86167 295.486801 
L 398.487273 295.487041 
" clip-path="url(#p6f18aaa1f8)" style="fill: none; stroke: #1764ab; stroke-width: 1.5; stroke-linecap: square"/>
   </g>
   <g id="line2d_41">
    <path d="M 73.832727 294.133692 
L 80.45833 293.194957 
L 87.083933 292.645833 
L 93.709536 292.256223 
L 100.335139 291.954018 
L 106.960742 291.707098 
L 113.586345 291.498331 
L 120.211948 291.317488 
L 126.837551 291.157974 
L 133.463154 291.015283 
L 140.088757 290.886204 
L 146.71436 290.768364 
L 153.339963 290.659961 
L 159.965566 290.559596 
L 166.591169 290.466158 
L 173.216772 290.378753 
L 179.842375 290.296649 
L 186.467978 290.219239 
L 193.093581 290.146015 
L 199.719184 290.076548 
L 206.344787 290.010471 
L 212.97039 289.947469 
L 219.595993 289.887268 
L 226.221596 289.829629 
L 232.847199 289.774343 
L 239.472801 289.721226 
L 246.098404 289.670114 
L 252.724007 289.620861 
L 259.34961 289.573337 
L 265.975213 289.527424 
L 272.600816 289.483016 
L 279.226419 289.440019 
L 285.852022 289.398344 
L 292.477625 289.357914 
L 299.103228 289.318656 
L 305.728831 289.280504 
L 312.354434 289.243398 
L 318.980037 289.207281 
L 325.60564 289.172102 
L 332.231243 289.137814 
L 338.856846 289.104372 
L 345.482449 289.071737 
L 352.108052 289.039869 
L 358.733655 289.008734 
L 365.359258 288.978299 
L 371.984861 288.948533 
L 378.610464 288.919407 
L 385.236067 288.890894 
L 391.86167 288.862969 
L 398.487273 288.835609 
" clip-path="url(#p6f18aaa1f8)" style="fill: none; stroke-dasharray: 5.55,2.4; stroke-dashoffset: 0; stroke: #fd8c3b; stroke-width: 1.5"/>
   </g>
   <g id="line2d_42">
    <path d="M 73.832727 295.277176 
L 80.45833 295.066353 
L 87.083933 294.855529 
L 93.709536 294.644706 
L 100.335139 294.433882 
L 106.960742 294.223059 
L 113.586345 294.012235 
L 120.211948 293.801412 
L 126.837551 293.590588 
L 133.463154 293.379765 
L 140.088757 293.168941 
L 146.71436 292.958118 
L 153.339963 292.747294 
L 159.965566 292.536471 
L 166.591169 292.325647 
L 173.216772 292.114824 
L 179.842375 291.904 
L 186.467978 291.693176 
L 193.093581 291.482353 
L 199.719184 291.271529 
L 206.344787 291.060706 
L 212.97039 290.849882 
L 219.595993 290.639059 
L 226.221596 290.428235 
L 232.847199 290.217412 
L 239.472801 290.006588 
L 246.098404 289.795765 
L 252.724007 289.584941 
L 259.34961 289.374118 
L 265.975213 289.163294 
L 272.600816 288.952471 
L 279.226419 288.741647 
L 285.852022 288.530824 
L 292.477625 288.32 
L 299.103228 288.109176 
L 305.728831 287.898353 
L 312.354434 287.687529 
L 318.980037 287.476706 
L 325.60564 287.265882 
L 332.231243 287.055059 
L 338.856846 286.844235 
L 345.482449 286.633412 
L 352.108052 286.422588 
L 358.733655 286.211765 
L 365.359258 286.000941 
L 371.984861 285.790118 
L 378.610464 285.579294 
L 385.236067 285.368471 
L 391.86167 285.157647 
L 398.487273 284.946824 
" clip-path="url(#p6f18aaa1f8)" style="fill: none; stroke-dasharray: 5.55,2.4; stroke-dashoffset: 0; stroke: #73c476; stroke-width: 1.5"/>
   </g>
   <g id="line2d_43">
    <path d="M 73.832727 295.487041 
L 80.45833 295.486801 
L 87.083933 295.486501 
L 93.709536 295.486127 
L 100.335139 295.485658 
L 106.960742 295.485073 
L 113.586345 295.484341 
L 120.211948 295.483427 
L 126.837551 295.482283 
L 133.463154 295.480854 
L 140.088757 295.479067 
L 146.71436 295.476834 
L 153.339963 295.474043 
L 159.965566 295.470554 
L 166.591169 295.466192 
L 173.216772 295.46074 
L 179.842375 295.453925 
L 186.467978 295.445406 
L 193.093581 295.434758 
L 199.719184 295.421447 
L 206.344787 295.404809 
L 212.97039 295.384012 
L 219.595993 295.358014 
L 226.221596 295.325518 
L 232.847199 295.284898 
L 239.472801 295.234122 
L 246.098404 295.170652 
L 252.724007 295.091316 
L 259.34961 294.992144 
L 265.975213 294.868181 
L 272.600816 294.713226 
L 279.226419 294.519532 
L 285.852022 294.277415 
L 292.477625 293.974769 
L 299.103228 293.596461 
L 305.728831 293.123576 
L 312.354434 292.532471 
L 318.980037 291.793588 
L 325.60564 290.869985 
L 332.231243 289.715482 
L 338.856846 288.272352 
L 345.482449 286.46844 
L 352.108052 284.21355 
L 358.733655 281.394937 
L 365.359258 277.871672 
L 371.984861 273.46759 
L 378.610464 267.962487 
L 385.236067 261.081109 
L 391.86167 252.479386 
L 398.487273 241.727233 
" clip-path="url(#p6f18aaa1f8)" style="fill: none; stroke: #61409b; stroke-width: 1.5; stroke-linecap: square"/>
   </g>
   <g id="line2d_44">
    <path d="M 73.832727 268.468749 
L 80.45833 271.170674 
L 87.083933 273.602407 
L 93.709536 275.790966 
L 100.335139 277.760669 
L 106.960742 279.533402 
L 113.586345 281.128862 
L 120.211948 282.564776 
L 126.837551 283.857098 
L 133.463154 285.020189 
L 140.088757 286.06697 
L 146.71436 287.009073 
L 153.339963 287.856965 
L 159.965566 288.620069 
L 166.591169 289.306862 
L 173.216772 289.924976 
L 179.842375 290.481278 
L 186.467978 290.98195 
L 193.093581 291.432555 
L 199.719184 291.8381 
L 206.344787 292.20309 
L 212.97039 292.531581 
L 219.595993 292.827223 
L 226.221596 293.0933 
L 232.847199 293.33277 
L 239.472801 293.548293 
L 246.098404 293.742264 
L 252.724007 293.916838 
L 259.34961 294.073954 
L 265.975213 294.215358 
L 272.600816 294.342623 
L 279.226419 294.45716 
L 285.852022 294.560244 
L 292.477625 294.65302 
L 299.103228 294.736518 
L 305.728831 294.811666 
L 312.354434 294.8793 
L 318.980037 294.94017 
L 325.60564 294.994953 
L 332.231243 295.044257 
L 338.856846 295.088632 
L 345.482449 295.128568 
L 352.108052 295.164512 
L 358.733655 295.19686 
L 365.359258 295.225974 
L 371.984861 295.252177 
L 378.610464 295.275759 
L 385.236067 295.296983 
L 391.86167 295.316085 
L 398.487273 295.333277 
" clip-path="url(#p6f18aaa1f8)" style="fill: none; stroke: #084a91; stroke-width: 1.5; stroke-linecap: square"/>
   </g>
   <g id="line2d_45">
    <path d="M 73.832727 294.133692 
L 80.45833 293.194957 
L 87.083933 292.645833 
L 93.709536 292.256223 
L 100.335139 291.954018 
L 106.960742 291.707098 
L 113.586345 291.498331 
L 120.211948 291.317488 
L 126.837551 291.157974 
L 133.463154 291.015283 
L 140.088757 290.886204 
L 146.71436 290.768364 
L 153.339963 290.659961 
L 159.965566 290.559596 
L 166.591169 290.466158 
L 173.216772 290.378753 
L 179.842375 290.296649 
L 186.467978 290.219239 
L 193.093581 290.146015 
L 199.719184 290.076548 
L 206.344787 290.010471 
L 212.97039 289.947469 
L 219.595993 289.887268 
L 226.221596 289.829629 
L 232.847199 289.774343 
L 239.472801 289.721226 
L 246.098404 289.670114 
L 252.724007 289.620861 
L 259.34961 289.573337 
L 265.975213 289.527424 
L 272.600816 289.483016 
L 279.226419 289.440019 
L 285.852022 289.398344 
L 292.477625 289.357914 
L 299.103228 289.318656 
L 305.728831 289.280504 
L 312.354434 289.243398 
L 318.980037 289.207281 
L 325.60564 289.172102 
L 332.231243 289.137814 
L 338.856846 289.104372 
L 345.482449 289.071737 
L 352.108052 289.039869 
L 358.733655 289.008734 
L 365.359258 288.978299 
L 371.984861 288.948533 
L 378.610464 288.919407 
L 385.236067 288.890894 
L 391.86167 288.862969 
L 398.487273 288.835609 
" clip-path="url(#p6f18aaa1f8)" style="fill: none; stroke-dasharray: 5.55,2.4; stroke-dashoffset: 0; stroke: #fd8c3b; stroke-width: 1.5"/>
   </g>
   <g id="line2d_46">
    <path d="M 73.832727 295.277176 
L 80.45833 295.066353 
L 87.083933 294.855529 
L 93.709536 294.644706 
L 100.335139 294.433882 
L 106.960742 294.223059 
L 113.586345 294.012235 
L 120.211948 293.801412 
L 126.837551 293.590588 
L 133.463154 293.379765 
L 140.088757 293.168941 
L 146.71436 292.958118 
L 153.339963 292.747294 
L 159.965566 292.536471 
L 166.591169 292.325647 
L 173.216772 292.114824 
L 179.842375 291.904 
L 186.467978 291.693176 
L 193.093581 291.482353 
L 199.719184 291.271529 
L 206.344787 291.060706 
L 212.97039 290.849882 
L 219.595993 290.639059 
L 226.221596 290.428235 
L 232.847199 290.217412 
L 239.472801 290.006588 
L 246.098404 289.795765 
L 252.724007 289.584941 
L 259.34961 289.374118 
L 265.975213 289.163294 
L 272.600816 288.952471 
L 279.226419 288.741647 
L 285.852022 288.530824 
L 292.477625 288.32 
L 299.103228 288.109176 
L 305.728831 287.898353 
L 312.354434 287.687529 
L 318.980037 287.476706 
L 325.60564 287.265882 
L 332.231243 287.055059 
L 338.856846 286.844235 
L 345.482449 286.633412 
L 352.108052 286.422588 
L 358.733655 286.211765 
L 365.359258 286.000941 
L 371.984861 285.790118 
L 378.610464 285.579294 
L 385.236067 285.368471 
L 391.86167 285.157647 
L 398.487273 284.946824 
" clip-path="url(#p6f18aaa1f8)" style="fill: none; stroke-dasharray: 5.55,2.4; stroke-dashoffset: 0; stroke: #73c476; stroke-width: 1.5"/>
   </g>
   <g id="line2d_47">
    <path d="M 73.832727 295.333277 
L 80.45833 295.316085 
L 87.083933 295.296983 
L 93.709536 295.275759 
L 100.335139 295.252177 
L 106.960742 295.225974 
L 113.586345 295.19686 
L 120.211948 295.164512 
L 126.837551 295.128568 
L 133.463154 295.088632 
L 140.088757 295.044257 
L 146.71436 294.994953 
L 153.339963 294.94017 
L 159.965566 294.8793 
L 166.591169 294.811666 
L 173.216772 294.736518 
L 179.842375 294.65302 
L 186.467978 294.560244 
L 193.093581 294.45716 
L 199.719184 294.342623 
L 206.344787 294.215358 
L 212.97039 294.073954 
L 219.595993 293.916838 
L 226.221596 293.742264 
L 232.847199 293.548293 
L 239.472801 293.33277 
L 246.098404 293.0933 
L 252.724007 292.827223 
L 259.34961 292.531581 
L 265.975213 292.20309 
L 272.600816 291.8381 
L 279.226419 291.432555 
L 285.852022 290.98195 
L 292.477625 290.481278 
L 299.103228 289.924976 
L 305.728831 289.306862 
L 312.354434 288.620069 
L 318.980037 287.856965 
L 325.60564 287.009073 
L 332.231243 286.06697 
L 338.856846 285.020189 
L 345.482449 283.857098 
L 352.108052 282.564776 
L 358.733655 281.128862 
L 365.359258 279.533402 
L 371.984861 277.760669 
L 378.610464 275.790966 
L 385.236067 273.602407 
L 391.86167 271.170674 
L 398.487273 268.468749 
" clip-path="url(#p6f18aaa1f8)" style="fill: none; stroke: #4f1f8b; stroke-width: 1.5; stroke-linecap: square"/>
   </g>
   <g id="line2d_48">
    <path d="M 73.832727 290.112 
L 80.45833 290.112 
L 87.083933 290.112 
L 93.709536 290.112 
L 100.335139 290.112 
L 106.960742 290.112 
L 113.586345 290.112 
L 120.211948 290.112 
L 126.837551 290.112 
L 133.463154 290.112 
L 140.088757 290.112 
L 146.71436 290.112 
L 153.339963 290.112 
L 159.965566 290.112 
L 166.591169 290.112 
L 173.216772 290.112 
L 179.842375 290.112 
L 186.467978 290.112 
L 193.093581 290.112 
L 199.719184 290.112 
L 206.344787 290.112 
L 212.97039 290.112 
L 219.595993 290.112 
L 226.221596 290.112 
L 232.847199 290.112 
L 239.472801 290.112 
L 246.098404 290.112 
L 252.724007 290.112 
L 259.34961 290.112 
L 265.975213 290.112 
L 272.600816 290.112 
L 279.226419 290.112 
L 285.852022 290.112 
L 292.477625 290.112 
L 299.103228 290.112 
L 305.728831 290.112 
L 312.354434 290.112 
L 318.980037 290.112 
L 325.60564 290.112 
L 332.231243 290.112 
L 338.856846 290.112 
L 345.482449 290.112 
L 352.108052 290.112 
L 358.733655 290.112 
L 365.359258 290.112 
L 371.984861 290.112 
L 378.610464 290.112 
L 385.236067 290.112 
L 391.86167 290.112 
L 398.487273 290.112 
" clip-path="url(#p6f18aaa1f8)" style="fill: none; stroke: #08306b; stroke-width: 1.5; stroke-linecap: square"/>
   </g>
   <g id="line2d_49">
    <path d="M 73.832727 294.133692 
L 80.45833 293.194957 
L 87.083933 292.645833 
L 93.709536 292.256223 
L 100.335139 291.954018 
L 106.960742 291.707098 
L 113.586345 291.498331 
L 120.211948 291.317488 
L 126.837551 291.157974 
L 133.463154 291.015283 
L 140.088757 290.886204 
L 146.71436 290.768364 
L 153.339963 290.659961 
L 159.965566 290.559596 
L 166.591169 290.466158 
L 173.216772 290.378753 
L 179.842375 290.296649 
L 186.467978 290.219239 
L 193.093581 290.146015 
L 199.719184 290.076548 
L 206.344787 290.010471 
L 212.97039 289.947469 
L 219.595993 289.887268 
L 226.221596 289.829629 
L 232.847199 289.774343 
L 239.472801 289.721226 
L 246.098404 289.670114 
L 252.724007 289.620861 
L 259.34961 289.573337 
L 265.975213 289.527424 
L 272.600816 289.483016 
L 279.226419 289.440019 
L 285.852022 289.398344 
L 292.477625 289.357914 
L 299.103228 289.318656 
L 305.728831 289.280504 
L 312.354434 289.243398 
L 318.980037 289.207281 
L 325.60564 289.172102 
L 332.231243 289.137814 
L 338.856846 289.104372 
L 345.482449 289.071737 
L 352.108052 289.039869 
L 358.733655 289.008734 
L 365.359258 288.978299 
L 371.984861 288.948533 
L 378.610464 288.919407 
L 385.236067 288.890894 
L 391.86167 288.862969 
L 398.487273 288.835609 
" clip-path="url(#p6f18aaa1f8)" style="fill: none; stroke-dasharray: 5.55,2.4; stroke-dashoffset: 0; stroke: #fd8c3b; stroke-width: 1.5"/>
   </g>
   <g id="line2d_50">
    <path d="M 73.832727 295.277176 
L 80.45833 295.066353 
L 87.083933 294.855529 
L 93.709536 294.644706 
L 100.335139 294.433882 
L 106.960742 294.223059 
L 113.586345 294.012235 
L 120.211948 293.801412 
L 126.837551 293.590588 
L 133.463154 293.379765 
L 140.088757 293.168941 
L 146.71436 292.958118 
L 153.339963 292.747294 
L 159.965566 292.536471 
L 166.591169 292.325647 
L 173.216772 292.114824 
L 179.842375 291.904 
L 186.467978 291.693176 
L 193.093581 291.482353 
L 199.719184 291.271529 
L 206.344787 291.060706 
L 212.97039 290.849882 
L 219.595993 290.639059 
L 226.221596 290.428235 
L 232.847199 290.217412 
L 239.472801 290.006588 
L 246.098404 289.795765 
L 252.724007 289.584941 
L 259.34961 289.374118 
L 265.975213 289.163294 
L 272.600816 288.952471 
L 279.226419 288.741647 
L 285.852022 288.530824 
L 292.477625 288.32 
L 299.103228 288.109176 
L 305.728831 287.898353 
L 312.354434 287.687529 
L 318.980037 287.476706 
L 325.60564 287.265882 
L 332.231243 287.055059 
L 338.856846 286.844235 
L 345.482449 286.633412 
L 352.108052 286.422588 
L 358.733655 286.211765 
L 365.359258 286.000941 
L 371.984861 285.790118 
L 378.610464 285.579294 
L 385.236067 285.368471 
L 391.86167 285.157647 
L 398.487273 284.946824 
" clip-path="url(#p6f18aaa1f8)" style="fill: none; stroke-dasharray: 5.55,2.4; stroke-dashoffset: 0; stroke: #73c476; stroke-width: 1.5"/>
   </g>
   <g id="line2d_51">
    <path d="M 73.832727 290.112 
L 80.45833 290.112 
L 87.083933 290.112 
L 93.709536 290.112 
L 100.335139 290.112 
L 106.960742 290.112 
L 113.586345 290.112 
L 120.211948 290.112 
L 126.837551 290.112 
L 133.463154 290.112 
L 140.088757 290.112 
L 146.71436 290.112 
L 153.339963 290.112 
L 159.965566 290.112 
L 166.591169 290.112 
L 173.216772 290.112 
L 179.842375 290.112 
L 186.467978 290.112 
L 193.093581 290.112 
L 199.719184 290.112 
L 206.344787 290.112 
L 212.97039 290.112 
L 219.595993 290.112 
L 226.221596 290.112 
L 232.847199 290.112 
L 239.472801 290.112 
L 246.098404 290.112 
L 252.724007 290.112 
L 259.34961 290.112 
L 265.975213 290.112 
L 272.600816 290.112 
L 279.226419 290.112 
L 285.852022 290.112 
L 292.477625 290.112 
L 299.103228 290.112 
L 305.728831 290.112 
L 312.354434 290.112 
L 318.980037 290.112 
L 325.60564 290.112 
L 332.231243 290.112 
L 338.856846 290.112 
L 345.482449 290.112 
L 352.108052 290.112 
L 358.733655 290.112 
L 365.359258 290.112 
L 371.984861 290.112 
L 378.610464 290.112 
L 385.236067 290.112 
L 391.86167 290.112 
L 398.487273 290.112 
" clip-path="url(#p6f18aaa1f8)" style="fill: none; stroke: #3f007d; stroke-width: 1.5; stroke-linecap: square"/>
   </g>
   <g id="patch_3">
    <path d="M 57.6 307.584 
L 57.6 41.472 
" style="fill: none; stroke: #000000; stroke-width: 0.8; stroke-linejoin: miter; stroke-linecap: square"/>
   </g>
   <g id="patch_4">
    <path d="M 414.72 307.584 
L 414.72 41.472 
" style="fill: none; stroke: #000000; stroke-width: 0.8; stroke-linejoin: miter; stroke-linecap: square"/>
   </g>
   <g id="patch_5">
    <path d="M 57.6 307.584 
L 414.72 307.584 
" style="fill: none; stroke: #000000; stroke-width: 0.8; stroke-linejoin: miter; stroke-linecap: square"/>
   </g>
   <g id="patch_6">
    <path d="M 57.6 41.472 
L 414.72 41.472 
" style="fill: none; stroke: #000000; stroke-width: 0.8; stroke-linejoin: miter; stroke-linecap: square"/>
   </g>
   <g id="legend_1">
    <g id="patch_7">
     <path d="M 202.76 196.25325 
L 269.56 196.25325 
Q 271.56 196.25325 271.56 194.25325 
L 271.56 48.472 
Q 271.56 46.472 269.56 46.472 
L 202.76 46.472 
Q 200.76 46.472 200.76 48.472 
L 200.76 194.25325 
Q 200.76 196.25325 202.76 196.25325 
z
" style="fill: #ffffff; opacity: 0.8; stroke: #cccccc; stroke-linejoin: miter"/>
    </g>
    <g id="line2d_52">
     <path d="M 204.76 54.570437 
L 214.76 54.570437 
L 224.76 54.570437 
" style="fill: none; stroke: #f3f3f3; stroke-width: 1.5; stroke-linecap: square"/>
    </g>
    <g id="text_14">
     <!-- $\alpha=$0.1 -->
     <g transform="translate(232.76 58.070437) scale(0.1 -0.1)">
      <defs>
       <path id="DejaVuSans-Oblique-3b1" d="M 2619 1628 
L 2622 2350 
Q 2625 3088 2069 3091 
Q 1653 3094 1394 2747 
Q 1069 2319 959 1747 
Q 825 1059 994 731 
Q 1169 397 1547 397 
Q 1966 397 2319 1063 
L 2619 1628 
z
M 2166 3578 
Q 3141 3594 3128 2584 
Q 3128 2584 3616 3500 
L 4128 3500 
L 3119 1603 
L 3109 919 
Q 3109 766 3194 638 
Q 3291 488 3391 488 
L 3669 488 
L 3575 0 
L 3228 0 
Q 2934 0 2722 263 
Q 2622 394 2619 669 
Q 2416 334 2066 50 
Q 1900 -81 1453 -78 
Q 722 -72 456 397 
Q 184 884 353 1747 
Q 534 2675 1009 3097 
Q 1544 3569 2166 3578 
z
" transform="scale(0.015625)"/>
       <path id="DejaVuSans-3d" d="M 678 2906 
L 4684 2906 
L 4684 2381 
L 678 2381 
L 678 2906 
z
M 678 1631 
L 4684 1631 
L 4684 1100 
L 678 1100 
L 678 1631 
z
" transform="scale(0.015625)"/>
      </defs>
      <use xlink:href="#DejaVuSans-Oblique-3b1" transform="translate(0 0.78125)"/>
      <use xlink:href="#DejaVuSans-3d" transform="translate(85.400391 0.78125)"/>
      <use xlink:href="#DejaVuSans-30" transform="translate(188.671875 0.78125)"/>
      <use xlink:href="#DejaVuSans-2e" transform="translate(252.294922 0.78125)"/>
      <use xlink:href="#DejaVuSans-31" transform="translate(284.082031 0.78125)"/>
     </g>
    </g>
    <g id="line2d_53">
     <path d="M 204.76 69.248562 
L 214.76 69.248562 
L 224.76 69.248562 
" style="fill: none; stroke: #e2e2e2; stroke-width: 1.5; stroke-linecap: square"/>
    </g>
    <g id="text_15">
     <!-- $\alpha=$0.2 -->
     <g transform="translate(232.76 72.748562) scale(0.1 -0.1)">
      <use xlink:href="#DejaVuSans-Oblique-3b1" transform="translate(0 0.78125)"/>
      <use xlink:href="#DejaVuSans-3d" transform="translate(85.400391 0.78125)"/>
      <use xlink:href="#DejaVuSans-30" transform="translate(188.671875 0.78125)"/>
      <use xlink:href="#DejaVuSans-2e" transform="translate(252.294922 0.78125)"/>
      <use xlink:href="#DejaVuSans-32" transform="translate(278.582031 0.78125)"/>
     </g>
    </g>
    <g id="line2d_54">
     <path d="M 204.76 83.926688 
L 214.76 83.926688 
L 224.76 83.926688 
" style="fill: none; stroke: #cecece; stroke-width: 1.5; stroke-linecap: square"/>
    </g>
    <g id="text_16">
     <!-- $\alpha=$0.3 -->
     <g transform="translate(232.76 87.426688) scale(0.1 -0.1)">
      <use xlink:href="#DejaVuSans-Oblique-3b1" transform="translate(0 0.78125)"/>
      <use xlink:href="#DejaVuSans-3d" transform="translate(85.400391 0.78125)"/>
      <use xlink:href="#DejaVuSans-30" transform="translate(188.671875 0.78125)"/>
      <use xlink:href="#DejaVuSans-2e" transform="translate(252.294922 0.78125)"/>
      <use xlink:href="#DejaVuSans-33" transform="translate(284.082031 0.78125)"/>
     </g>
    </g>
    <g id="line2d_55">
     <path d="M 204.76 98.604812 
L 214.76 98.604812 
L 224.76 98.604812 
" style="fill: none; stroke: #b5b5b5; stroke-width: 1.5; stroke-linecap: square"/>
    </g>
    <g id="text_17">
     <!-- $\alpha=$0.4 -->
     <g transform="translate(232.76 102.104812) scale(0.1 -0.1)">
      <use xlink:href="#DejaVuSans-Oblique-3b1" transform="translate(0 0.78125)"/>
      <use xlink:href="#DejaVuSans-3d" transform="translate(85.400391 0.78125)"/>
      <use xlink:href="#DejaVuSans-30" transform="translate(188.671875 0.78125)"/>
      <use xlink:href="#DejaVuSans-2e" transform="translate(252.294922 0.78125)"/>
      <use xlink:href="#DejaVuSans-34" transform="translate(284.082031 0.78125)"/>
     </g>
    </g>
    <g id="line2d_56">
     <path d="M 204.76 113.282938 
L 214.76 113.282938 
L 224.76 113.282938 
" style="fill: none; stroke: #959595; stroke-width: 1.5; stroke-linecap: square"/>
    </g>
    <g id="text_18">
     <!-- $\alpha=$0.5 -->
     <g transform="translate(232.76 116.782938) scale(0.1 -0.1)">
      <use xlink:href="#DejaVuSans-Oblique-3b1" transform="translate(0 0.78125)"/>
      <use xlink:href="#DejaVuSans-3d" transform="translate(85.400391 0.78125)"/>
      <use xlink:href="#DejaVuSans-30" transform="translate(188.671875 0.78125)"/>
      <use xlink:href="#DejaVuSans-2e" transform="translate(252.294922 0.78125)"/>
      <use xlink:href="#DejaVuSans-35" transform="translate(284.082031 0.78125)"/>
     </g>
    </g>
    <g id="line2d_57">
     <path d="M 204.76 127.961062 
L 214.76 127.961062 
L 224.76 127.961062 
" style="fill: none; stroke: #7a7a7a; stroke-width: 1.5; stroke-linecap: square"/>
    </g>
    <g id="text_19">
     <!-- $\alpha=$0.6 -->
     <g transform="translate(232.76 131.461062) scale(0.1 -0.1)">
      <use xlink:href="#DejaVuSans-Oblique-3b1" transform="translate(0 0.78125)"/>
      <use xlink:href="#DejaVuSans-3d" transform="translate(85.400391 0.78125)"/>
      <use xlink:href="#DejaVuSans-30" transform="translate(188.671875 0.78125)"/>
      <use xlink:href="#DejaVuSans-2e" transform="translate(252.294922 0.78125)"/>
      <use xlink:href="#DejaVuSans-36" transform="translate(284.082031 0.78125)"/>
     </g>
    </g>
    <g id="line2d_58">
     <path d="M 204.76 142.639187 
L 214.76 142.639187 
L 224.76 142.639187 
" style="fill: none; stroke: #5f5f5f; stroke-width: 1.5; stroke-linecap: square"/>
    </g>
    <g id="text_20">
     <!-- $\alpha=$0.7 -->
     <g transform="translate(232.76 146.139187) scale(0.1 -0.1)">
      <defs>
       <path id="DejaVuSans-37" d="M 525 4666 
L 3525 4666 
L 3525 4397 
L 1831 0 
L 1172 0 
L 2766 4134 
L 525 4134 
L 525 4666 
z
" transform="scale(0.015625)"/>
      </defs>
      <use xlink:href="#DejaVuSans-Oblique-3b1" transform="translate(0 0.78125)"/>
      <use xlink:href="#DejaVuSans-3d" transform="translate(85.400391 0.78125)"/>
      <use xlink:href="#DejaVuSans-30" transform="translate(188.671875 0.78125)"/>
      <use xlink:href="#DejaVuSans-2e" transform="translate(252.294922 0.78125)"/>
      <use xlink:href="#DejaVuSans-37" transform="translate(276.332031 0.78125)"/>
     </g>
    </g>
    <g id="line2d_59">
     <path d="M 204.76 157.317312 
L 214.76 157.317312 
L 224.76 157.317312 
" style="fill: none; stroke: #404040; stroke-width: 1.5; stroke-linecap: square"/>
    </g>
    <g id="text_21">
     <!-- $\alpha=$0.8 -->
     <g transform="translate(232.76 160.817312) scale(0.1 -0.1)">
      <use xlink:href="#DejaVuSans-Oblique-3b1" transform="translate(0 0.78125)"/>
      <use xlink:href="#DejaVuSans-3d" transform="translate(85.400391 0.78125)"/>
      <use xlink:href="#DejaVuSans-30" transform="translate(188.671875 0.78125)"/>
      <use xlink:href="#DejaVuSans-2e" transform="translate(252.294922 0.78125)"/>
      <use xlink:href="#DejaVuSans-38" transform="translate(281.457031 0.78125)"/>
     </g>
    </g>
    <g id="line2d_60">
     <path d="M 204.76 171.995437 
L 214.76 171.995437 
L 224.76 171.995437 
" style="fill: none; stroke: #1d1d1d; stroke-width: 1.5; stroke-linecap: square"/>
    </g>
    <g id="text_22">
     <!-- $\alpha=$0.9 -->
     <g transform="translate(232.76 175.495437) scale(0.1 -0.1)">
      <defs>
       <path id="DejaVuSans-39" d="M 703 97 
L 703 672 
Q 941 559 1184 500 
Q 1428 441 1663 441 
Q 2288 441 2617 861 
Q 2947 1281 2994 2138 
Q 2813 1869 2534 1725 
Q 2256 1581 1919 1581 
Q 1219 1581 811 2004 
Q 403 2428 403 3163 
Q 403 3881 828 4315 
Q 1253 4750 1959 4750 
Q 2769 4750 3195 4129 
Q 3622 3509 3622 2328 
Q 3622 1225 3098 567 
Q 2575 -91 1691 -91 
Q 1453 -91 1209 -44 
Q 966 3 703 97 
z
M 1959 2075 
Q 2384 2075 2632 2365 
Q 2881 2656 2881 3163 
Q 2881 3666 2632 3958 
Q 2384 4250 1959 4250 
Q 1534 4250 1286 3958 
Q 1038 3666 1038 3163 
Q 1038 2656 1286 2365 
Q 1534 2075 1959 2075 
z
" transform="scale(0.015625)"/>
      </defs>
      <use xlink:href="#DejaVuSans-Oblique-3b1" transform="translate(0 0.78125)"/>
      <use xlink:href="#DejaVuSans-3d" transform="translate(85.400391 0.78125)"/>
      <use xlink:href="#DejaVuSans-30" transform="translate(188.671875 0.78125)"/>
      <use xlink:href="#DejaVuSans-2e" transform="translate(252.294922 0.78125)"/>
      <use xlink:href="#DejaVuSans-39" transform="translate(284.082031 0.78125)"/>
     </g>
    </g>
    <g id="line2d_61">
     <path d="M 204.76 186.673562 
L 214.76 186.673562 
L 224.76 186.673562 
" style="fill: none; stroke: #000000; stroke-width: 1.5; stroke-linecap: square"/>
    </g>
    <g id="text_23">
     <!-- $\alpha=$1.0 -->
     <g transform="translate(232.76 190.173562) scale(0.1 -0.1)">
      <use xlink:href="#DejaVuSans-Oblique-3b1" transform="translate(0 0.78125)"/>
      <use xlink:href="#DejaVuSans-3d" transform="translate(85.400391 0.78125)"/>
      <use xlink:href="#DejaVuSans-31" transform="translate(188.671875 0.78125)"/>
      <use xlink:href="#DejaVuSans-2e" transform="translate(252.294922 0.78125)"/>
      <use xlink:href="#DejaVuSans-30" transform="translate(284.082031 0.78125)"/>
     </g>
    </g>
   </g>
   <g id="legend_2">
    <g id="patch_8">
     <path d="M 341.927813 108.1845 
L 407.72 108.1845 
Q 409.72 108.1845 409.72 106.1845 
L 409.72 48.472 
Q 409.72 46.472 407.72 46.472 
L 341.927813 46.472 
Q 339.927813 46.472 339.927813 48.472 
L 339.927813 106.1845 
Q 339.927813 108.1845 341.927813 108.1845 
z
" style="fill: #ffffff; opacity: 0.8; stroke: #cccccc; stroke-linejoin: miter"/>
    </g>
    <g id="line2d_62">
     <path d="M 343.927813 54.570438 
L 353.927813 54.570438 
L 363.927813 54.570438 
" style="fill: none; stroke: #2e7ebc; stroke-width: 1.5; stroke-linecap: square"/>
    </g>
    <g id="text_24">
     <!-- ExpInv -->
     <g transform="translate(371.927813 58.070438) scale(0.1 -0.1)">
      <defs>
       <path id="DejaVuSans-45" d="M 628 4666 
L 3578 4666 
L 3578 4134 
L 1259 4134 
L 1259 2753 
L 3481 2753 
L 3481 2222 
L 1259 2222 
L 1259 531 
L 3634 531 
L 3634 0 
L 628 0 
L 628 4666 
z
" transform="scale(0.015625)"/>
       <path id="DejaVuSans-78" d="M 3513 3500 
L 2247 1797 
L 3578 0 
L 2900 0 
L 1881 1375 
L 863 0 
L 184 0 
L 1544 1831 
L 300 3500 
L 978 3500 
L 1906 2253 
L 2834 3500 
L 3513 3500 
z
" transform="scale(0.015625)"/>
       <path id="DejaVuSans-70" d="M 1159 525 
L 1159 -1331 
L 581 -1331 
L 581 3500 
L 1159 3500 
L 1159 2969 
Q 1341 3281 1617 3432 
Q 1894 3584 2278 3584 
Q 2916 3584 3314 3078 
Q 3713 2572 3713 1747 
Q 3713 922 3314 415 
Q 2916 -91 2278 -91 
Q 1894 -91 1617 61 
Q 1341 213 1159 525 
z
M 3116 1747 
Q 3116 2381 2855 2742 
Q 2594 3103 2138 3103 
Q 1681 3103 1420 2742 
Q 1159 2381 1159 1747 
Q 1159 1113 1420 752 
Q 1681 391 2138 391 
Q 2594 391 2855 752 
Q 3116 1113 3116 1747 
z
" transform="scale(0.015625)"/>
       <path id="DejaVuSans-49" d="M 628 4666 
L 1259 4666 
L 1259 0 
L 628 0 
L 628 4666 
z
" transform="scale(0.015625)"/>
       <path id="DejaVuSans-6e" d="M 3513 2113 
L 3513 0 
L 2938 0 
L 2938 2094 
Q 2938 2591 2744 2837 
Q 2550 3084 2163 3084 
Q 1697 3084 1428 2787 
Q 1159 2491 1159 1978 
L 1159 0 
L 581 0 
L 581 3500 
L 1159 3500 
L 1159 2956 
Q 1366 3272 1645 3428 
Q 1925 3584 2291 3584 
Q 2894 3584 3203 3211 
Q 3513 2838 3513 2113 
z
" transform="scale(0.015625)"/>
       <path id="DejaVuSans-76" d="M 191 3500 
L 800 3500 
L 1894 563 
L 2988 3500 
L 3597 3500 
L 2284 0 
L 1503 0 
L 191 3500 
z
" transform="scale(0.015625)"/>
      </defs>
      <use xlink:href="#DejaVuSans-45"/>
      <use xlink:href="#DejaVuSans-78" x="63.183594"/>
      <use xlink:href="#DejaVuSans-70" x="122.363281"/>
      <use xlink:href="#DejaVuSans-49" x="185.839844"/>
      <use xlink:href="#DejaVuSans-6e" x="215.332031"/>
      <use xlink:href="#DejaVuSans-76" x="278.710938"/>
     </g>
    </g>
    <g id="line2d_63">
     <path d="M 343.927813 69.248563 
L 353.927813 69.248563 
L 363.927813 69.248563 
" style="fill: none; stroke: #7262ac; stroke-width: 1.5; stroke-linecap: square"/>
    </g>
    <g id="text_25">
     <!-- Exp -->
     <g transform="translate(371.927813 72.748563) scale(0.1 -0.1)">
      <use xlink:href="#DejaVuSans-45"/>
      <use xlink:href="#DejaVuSans-78" x="63.183594"/>
      <use xlink:href="#DejaVuSans-70" x="122.363281"/>
     </g>
    </g>
    <g id="line2d_64">
     <path d="M 343.927813 83.926688 
L 353.927813 83.926688 
L 363.927813 83.926688 
" style="fill: none; stroke-dasharray: 5.55,2.4; stroke-dashoffset: 0; stroke: #e25508; stroke-width: 1.5"/>
    </g>
    <g id="text_26">
     <!-- Log -->
     <g transform="translate(371.927813 87.426688) scale(0.1 -0.1)">
      <defs>
       <path id="DejaVuSans-4c" d="M 628 4666 
L 1259 4666 
L 1259 531 
L 3531 531 
L 3531 0 
L 628 0 
L 628 4666 
z
" transform="scale(0.015625)"/>
       <path id="DejaVuSans-67" d="M 2906 1791 
Q 2906 2416 2648 2759 
Q 2391 3103 1925 3103 
Q 1463 3103 1205 2759 
Q 947 2416 947 1791 
Q 947 1169 1205 825 
Q 1463 481 1925 481 
Q 2391 481 2648 825 
Q 2906 1169 2906 1791 
z
M 3481 434 
Q 3481 -459 3084 -895 
Q 2688 -1331 1869 -1331 
Q 1566 -1331 1297 -1286 
Q 1028 -1241 775 -1147 
L 775 -588 
Q 1028 -725 1275 -790 
Q 1522 -856 1778 -856 
Q 2344 -856 2625 -561 
Q 2906 -266 2906 331 
L 2906 616 
Q 2728 306 2450 153 
Q 2172 0 1784 0 
Q 1141 0 747 490 
Q 353 981 353 1791 
Q 353 2603 747 3093 
Q 1141 3584 1784 3584 
Q 2172 3584 2450 3431 
Q 2728 3278 2906 2969 
L 2906 3500 
L 3481 3500 
L 3481 434 
z
" transform="scale(0.015625)"/>
      </defs>
      <use xlink:href="#DejaVuSans-4c"/>
      <use xlink:href="#DejaVuSans-6f" x="53.962891"/>
      <use xlink:href="#DejaVuSans-67" x="115.144531"/>
     </g>
    </g>
    <g id="line2d_65">
     <path d="M 343.927813 98.604813 
L 353.927813 98.604813 
L 363.927813 98.604813 
" style="fill: none; stroke-dasharray: 5.55,2.4; stroke-dashoffset: 0; stroke: #2f974e; stroke-width: 1.5"/>
    </g>
    <g id="text_27">
     <!-- Lin -->
     <g transform="translate(371.927813 102.104813) scale(0.1 -0.1)">
      <use xlink:href="#DejaVuSans-4c"/>
      <use xlink:href="#DejaVuSans-69" x="55.712891"/>
      <use xlink:href="#DejaVuSans-6e" x="83.496094"/>
     </g>
    </g>
   </g>
  </g>
 </g>
 <defs>
  <clipPath id="p6f18aaa1f8">
   <rect x="57.6" y="41.472" width="357.12" height="266.112"/>
  </clipPath>
 </defs>
</svg>
