<?xml version="1.0" encoding="utf-8" standalone="no"?>
<!DOCTYPE svg PUBLIC "-//W3C//DTD SVG 1.1//EN"
  "http://www.w3.org/Graphics/SVG/1.1/DTD/svg11.dtd">
<svg xmlns:xlink="http://www.w3.org/1999/xlink" width="460.8pt" height="345.6pt" viewBox="0 0 460.8 345.6" xmlns="http://www.w3.org/2000/svg" version="1.1">
 <metadata>
  <rdf:RDF xmlns:dc="http://purl.org/dc/elements/1.1/" xmlns:cc="http://creativecommons.org/ns#" xmlns:rdf="http://www.w3.org/1999/02/22-rdf-syntax-ns#">
   <cc:Work>
    <dc:type rdf:resource="http://purl.org/dc/dcmitype/StillImage"/>
    <dc:date>2022-12-12T14:34:27.453606</dc:date>
    <dc:format>image/svg+xml</dc:format>
    <dc:creator>
     <cc:Agent>
      <dc:title>Matplotlib v3.6.2, https://matplotlib.org/</dc:title>
     </cc:Agent>
    </dc:creator>
   </cc:Work>
  </rdf:RDF>
 </metadata>
 <defs>
  <style type="text/css">*{stroke-linejoin: round; stroke-linecap: butt}</style>
 </defs>
 <g id="figure_1">
  <g id="patch_1">
   <path d="M 0 345.6 
L 460.8 345.6 
L 460.8 0 
L 0 0 
z
" style="fill: #ffffff"/>
  </g>
  <g id="axes_1">
   <g id="patch_2">
    <path d="M 57.6 307.584 
L 414.72 307.584 
L 414.72 41.472 
L 57.6 41.472 
z
" style="fill: #ffffff"/>
   </g>
   <g id="matplotlib.axis_1">
    <g id="xtick_1">
     <g id="line2d_1">
      <defs>
       <path id="m158102b03a" d="M 0 0 
L 0 3.5 
" style="stroke: #000000; stroke-width: 0.8"/>
      </defs>
      <g>
       <use xlink:href="#m158102b03a" x="73.832727" y="307.584" style="stroke: #000000; stroke-width: 0.8"/>
      </g>
     </g>
    </g>
    <g id="xtick_2">
     <g id="line2d_2">
      <g>
       <use xlink:href="#m158102b03a" x="138.763636" y="307.584" style="stroke: #000000; stroke-width: 0.8"/>
      </g>
     </g>
    </g>
    <g id="xtick_3">
     <g id="line2d_3">
      <g>
       <use xlink:href="#m158102b03a" x="203.694545" y="307.584" style="stroke: #000000; stroke-width: 0.8"/>
      </g>
     </g>
    </g>
    <g id="xtick_4">
     <g id="line2d_4">
      <g>
       <use xlink:href="#m158102b03a" x="268.625455" y="307.584" style="stroke: #000000; stroke-width: 0.8"/>
      </g>
     </g>
    </g>
    <g id="xtick_5">
     <g id="line2d_5">
      <g>
       <use xlink:href="#m158102b03a" x="333.556364" y="307.584" style="stroke: #000000; stroke-width: 0.8"/>
      </g>
     </g>
    </g>
    <g id="xtick_6">
     <g id="line2d_6">
      <g>
       <use xlink:href="#m158102b03a" x="398.487273" y="307.584" style="stroke: #000000; stroke-width: 0.8"/>
      </g>
     </g>
    </g>
    <g id="text_1">
     <!-- Videos -->
     <g transform="translate(212.903594 329.221812) scale(0.14 -0.14)">
      <defs>
       <path id="DejaVuSans-56" d="M 1831 0 
L 50 4666 
L 709 4666 
L 2188 738 
L 3669 4666 
L 4325 4666 
L 2547 0 
L 1831 0 
z
" transform="scale(0.015625)"/>
       <path id="DejaVuSans-69" d="M 603 3500 
L 1178 3500 
L 1178 0 
L 603 0 
L 603 3500 
z
M 603 4863 
L 1178 4863 
L 1178 4134 
L 603 4134 
L 603 4863 
z
" transform="scale(0.015625)"/>
       <path id="DejaVuSans-64" d="M 2906 2969 
L 2906 4863 
L 3481 4863 
L 3481 0 
L 2906 0 
L 2906 525 
Q 2725 213 2448 61 
Q 2172 -91 1784 -91 
Q 1150 -91 751 415 
Q 353 922 353 1747 
Q 353 2572 751 3078 
Q 1150 3584 1784 3584 
Q 2172 3584 2448 3432 
Q 2725 3281 2906 2969 
z
M 947 1747 
Q 947 1113 1208 752 
Q 1469 391 1925 391 
Q 2381 391 2643 752 
Q 2906 1113 2906 1747 
Q 2906 2381 2643 2742 
Q 2381 3103 1925 3103 
Q 1469 3103 1208 2742 
Q 947 2381 947 1747 
z
" transform="scale(0.015625)"/>
       <path id="DejaVuSans-65" d="M 3597 1894 
L 3597 1613 
L 953 1613 
Q 991 1019 1311 708 
Q 1631 397 2203 397 
Q 2534 397 2845 478 
Q 3156 559 3463 722 
L 3463 178 
Q 3153 47 2828 -22 
Q 2503 -91 2169 -91 
Q 1331 -91 842 396 
Q 353 884 353 1716 
Q 353 2575 817 3079 
Q 1281 3584 2069 3584 
Q 2775 3584 3186 3129 
Q 3597 2675 3597 1894 
z
M 3022 2063 
Q 3016 2534 2758 2815 
Q 2500 3097 2075 3097 
Q 1594 3097 1305 2825 
Q 1016 2553 972 2059 
L 3022 2063 
z
" transform="scale(0.015625)"/>
       <path id="DejaVuSans-6f" d="M 1959 3097 
Q 1497 3097 1228 2736 
Q 959 2375 959 1747 
Q 959 1119 1226 758 
Q 1494 397 1959 397 
Q 2419 397 2687 759 
Q 2956 1122 2956 1747 
Q 2956 2369 2687 2733 
Q 2419 3097 1959 3097 
z
M 1959 3584 
Q 2709 3584 3137 3096 
Q 3566 2609 3566 1747 
Q 3566 888 3137 398 
Q 2709 -91 1959 -91 
Q 1206 -91 779 398 
Q 353 888 353 1747 
Q 353 2609 779 3096 
Q 1206 3584 1959 3584 
z
" transform="scale(0.015625)"/>
       <path id="DejaVuSans-73" d="M 2834 3397 
L 2834 2853 
Q 2591 2978 2328 3040 
Q 2066 3103 1784 3103 
Q 1356 3103 1142 2972 
Q 928 2841 928 2578 
Q 928 2378 1081 2264 
Q 1234 2150 1697 2047 
L 1894 2003 
Q 2506 1872 2764 1633 
Q 3022 1394 3022 966 
Q 3022 478 2636 193 
Q 2250 -91 1575 -91 
Q 1294 -91 989 -36 
Q 684 19 347 128 
L 347 722 
Q 666 556 975 473 
Q 1284 391 1588 391 
Q 1994 391 2212 530 
Q 2431 669 2431 922 
Q 2431 1156 2273 1281 
Q 2116 1406 1581 1522 
L 1381 1569 
Q 847 1681 609 1914 
Q 372 2147 372 2553 
Q 372 3047 722 3315 
Q 1072 3584 1716 3584 
Q 2034 3584 2315 3537 
Q 2597 3491 2834 3397 
z
" transform="scale(0.015625)"/>
      </defs>
      <use xlink:href="#DejaVuSans-56"/>
      <use xlink:href="#DejaVuSans-69" x="66.158203"/>
      <use xlink:href="#DejaVuSans-64" x="93.941406"/>
      <use xlink:href="#DejaVuSans-65" x="157.417969"/>
      <use xlink:href="#DejaVuSans-6f" x="218.941406"/>
      <use xlink:href="#DejaVuSans-73" x="280.123047"/>
     </g>
    </g>
   </g>
   <g id="matplotlib.axis_2">
    <g id="ytick_1">
     <g id="line2d_7">
      <defs>
       <path id="m501efda622" d="M 0 0 
L -3.5 0 
" style="stroke: #000000; stroke-width: 0.8"/>
      </defs>
      <g>
       <use xlink:href="#m501efda622" x="57.6" y="295.488" style="stroke: #000000; stroke-width: 0.8"/>
      </g>
     </g>
     <g id="text_2">
      <!-- $\mathdefault{10^{0}}$ -->
      <g transform="translate(25.96 300.806906) scale(0.14 -0.14)">
       <defs>
        <path id="DejaVuSans-31" d="M 794 531 
L 1825 531 
L 1825 4091 
L 703 3866 
L 703 4441 
L 1819 4666 
L 2450 4666 
L 2450 531 
L 3481 531 
L 3481 0 
L 794 0 
L 794 531 
z
" transform="scale(0.015625)"/>
        <path id="DejaVuSans-30" d="M 2034 4250 
Q 1547 4250 1301 3770 
Q 1056 3291 1056 2328 
Q 1056 1369 1301 889 
Q 1547 409 2034 409 
Q 2525 409 2770 889 
Q 3016 1369 3016 2328 
Q 3016 3291 2770 3770 
Q 2525 4250 2034 4250 
z
M 2034 4750 
Q 2819 4750 3233 4129 
Q 3647 3509 3647 2328 
Q 3647 1150 3233 529 
Q 2819 -91 2034 -91 
Q 1250 -91 836 529 
Q 422 1150 422 2328 
Q 422 3509 836 4129 
Q 1250 4750 2034 4750 
z
" transform="scale(0.015625)"/>
       </defs>
       <use xlink:href="#DejaVuSans-31" transform="translate(0 0.765625)"/>
       <use xlink:href="#DejaVuSans-30" transform="translate(63.623047 0.765625)"/>
       <use xlink:href="#DejaVuSans-30" transform="translate(128.203125 39.046875) scale(0.7)"/>
      </g>
     </g>
    </g>
    <g id="ytick_2">
     <g id="line2d_8">
      <g>
       <use xlink:href="#m501efda622" x="57.6" y="240.150673" style="stroke: #000000; stroke-width: 0.8"/>
      </g>
     </g>
     <g id="text_3">
      <!-- $\mathdefault{10^{1}}$ -->
      <g transform="translate(25.96 245.469579) scale(0.14 -0.14)">
       <use xlink:href="#DejaVuSans-31" transform="translate(0 0.684375)"/>
       <use xlink:href="#DejaVuSans-30" transform="translate(63.623047 0.684375)"/>
       <use xlink:href="#DejaVuSans-31" transform="translate(128.203125 38.965625) scale(0.7)"/>
      </g>
     </g>
    </g>
    <g id="ytick_3">
     <g id="line2d_9">
      <g>
       <use xlink:href="#m501efda622" x="57.6" y="184.813346" style="stroke: #000000; stroke-width: 0.8"/>
      </g>
     </g>
     <g id="text_4">
      <!-- $\mathdefault{10^{2}}$ -->
      <g transform="translate(25.96 190.132252) scale(0.14 -0.14)">
       <defs>
        <path id="DejaVuSans-32" d="M 1228 531 
L 3431 531 
L 3431 0 
L 469 0 
L 469 531 
Q 828 903 1448 1529 
Q 2069 2156 2228 2338 
Q 2531 2678 2651 2914 
Q 2772 3150 2772 3378 
Q 2772 3750 2511 3984 
Q 2250 4219 1831 4219 
Q 1534 4219 1204 4116 
Q 875 4013 500 3803 
L 500 4441 
Q 881 4594 1212 4672 
Q 1544 4750 1819 4750 
Q 2544 4750 2975 4387 
Q 3406 4025 3406 3419 
Q 3406 3131 3298 2873 
Q 3191 2616 2906 2266 
Q 2828 2175 2409 1742 
Q 1991 1309 1228 531 
z
" transform="scale(0.015625)"/>
       </defs>
       <use xlink:href="#DejaVuSans-31" transform="translate(0 0.765625)"/>
       <use xlink:href="#DejaVuSans-30" transform="translate(63.623047 0.765625)"/>
       <use xlink:href="#DejaVuSans-32" transform="translate(128.203125 39.046875) scale(0.7)"/>
      </g>
     </g>
    </g>
    <g id="ytick_4">
     <g id="line2d_10">
      <g>
       <use xlink:href="#m501efda622" x="57.6" y="129.476019" style="stroke: #000000; stroke-width: 0.8"/>
      </g>
     </g>
     <g id="text_5">
      <!-- $\mathdefault{10^{3}}$ -->
      <g transform="translate(25.96 134.794925) scale(0.14 -0.14)">
       <defs>
        <path id="DejaVuSans-33" d="M 2597 2516 
Q 3050 2419 3304 2112 
Q 3559 1806 3559 1356 
Q 3559 666 3084 287 
Q 2609 -91 1734 -91 
Q 1441 -91 1130 -33 
Q 819 25 488 141 
L 488 750 
Q 750 597 1062 519 
Q 1375 441 1716 441 
Q 2309 441 2620 675 
Q 2931 909 2931 1356 
Q 2931 1769 2642 2001 
Q 2353 2234 1838 2234 
L 1294 2234 
L 1294 2753 
L 1863 2753 
Q 2328 2753 2575 2939 
Q 2822 3125 2822 3475 
Q 2822 3834 2567 4026 
Q 2313 4219 1838 4219 
Q 1578 4219 1281 4162 
Q 984 4106 628 3988 
L 628 4550 
Q 988 4650 1302 4700 
Q 1616 4750 1894 4750 
Q 2613 4750 3031 4423 
Q 3450 4097 3450 3541 
Q 3450 3153 3228 2886 
Q 3006 2619 2597 2516 
z
" transform="scale(0.015625)"/>
       </defs>
       <use xlink:href="#DejaVuSans-31" transform="translate(0 0.765625)"/>
       <use xlink:href="#DejaVuSans-30" transform="translate(63.623047 0.765625)"/>
       <use xlink:href="#DejaVuSans-33" transform="translate(128.203125 39.046875) scale(0.7)"/>
      </g>
     </g>
    </g>
    <g id="ytick_5">
     <g id="line2d_11">
      <g>
       <use xlink:href="#m501efda622" x="57.6" y="74.138692" style="stroke: #000000; stroke-width: 0.8"/>
      </g>
     </g>
     <g id="text_6">
      <!-- $\mathdefault{10^{4}}$ -->
      <g transform="translate(25.96 79.457598) scale(0.14 -0.14)">
       <defs>
        <path id="DejaVuSans-34" d="M 2419 4116 
L 825 1625 
L 2419 1625 
L 2419 4116 
z
M 2253 4666 
L 3047 4666 
L 3047 1625 
L 3713 1625 
L 3713 1100 
L 3047 1100 
L 3047 0 
L 2419 0 
L 2419 1100 
L 313 1100 
L 313 1709 
L 2253 4666 
z
" transform="scale(0.015625)"/>
       </defs>
       <use xlink:href="#DejaVuSans-31" transform="translate(0 0.684375)"/>
       <use xlink:href="#DejaVuSans-30" transform="translate(63.623047 0.684375)"/>
       <use xlink:href="#DejaVuSans-34" transform="translate(128.203125 38.965625) scale(0.7)"/>
      </g>
     </g>
    </g>
    <g id="ytick_6">
     <g id="line2d_12">
      <defs>
       <path id="mb8158754e3" d="M 0 0 
L -2 0 
" style="stroke: #000000; stroke-width: 0.6"/>
      </defs>
      <g>
       <use xlink:href="#mb8158754e3" x="57.6" y="304.05986" style="stroke: #000000; stroke-width: 0.6"/>
      </g>
     </g>
    </g>
    <g id="ytick_7">
     <g id="line2d_13">
      <g>
       <use xlink:href="#mb8158754e3" x="57.6" y="300.850741" style="stroke: #000000; stroke-width: 0.6"/>
      </g>
     </g>
    </g>
    <g id="ytick_8">
     <g id="line2d_14">
      <g>
       <use xlink:href="#mb8158754e3" x="57.6" y="298.020097" style="stroke: #000000; stroke-width: 0.6"/>
      </g>
     </g>
    </g>
    <g id="ytick_9">
     <g id="line2d_15">
      <g>
       <use xlink:href="#mb8158754e3" x="57.6" y="278.829805" style="stroke: #000000; stroke-width: 0.6"/>
      </g>
     </g>
    </g>
    <g id="ytick_10">
     <g id="line2d_16">
      <g>
       <use xlink:href="#mb8158754e3" x="57.6" y="269.085385" style="stroke: #000000; stroke-width: 0.6"/>
      </g>
     </g>
    </g>
    <g id="ytick_11">
     <g id="line2d_17">
      <g>
       <use xlink:href="#mb8158754e3" x="57.6" y="262.171609" style="stroke: #000000; stroke-width: 0.6"/>
      </g>
     </g>
    </g>
    <g id="ytick_12">
     <g id="line2d_18">
      <g>
       <use xlink:href="#mb8158754e3" x="57.6" y="256.808868" style="stroke: #000000; stroke-width: 0.6"/>
      </g>
     </g>
    </g>
    <g id="ytick_13">
     <g id="line2d_19">
      <g>
       <use xlink:href="#mb8158754e3" x="57.6" y="252.42719" style="stroke: #000000; stroke-width: 0.6"/>
      </g>
     </g>
    </g>
    <g id="ytick_14">
     <g id="line2d_20">
      <g>
       <use xlink:href="#mb8158754e3" x="57.6" y="248.722533" style="stroke: #000000; stroke-width: 0.6"/>
      </g>
     </g>
    </g>
    <g id="ytick_15">
     <g id="line2d_21">
      <g>
       <use xlink:href="#mb8158754e3" x="57.6" y="245.513414" style="stroke: #000000; stroke-width: 0.6"/>
      </g>
     </g>
    </g>
    <g id="ytick_16">
     <g id="line2d_22">
      <g>
       <use xlink:href="#mb8158754e3" x="57.6" y="242.68277" style="stroke: #000000; stroke-width: 0.6"/>
      </g>
     </g>
    </g>
    <g id="ytick_17">
     <g id="line2d_23">
      <g>
       <use xlink:href="#mb8158754e3" x="57.6" y="223.492478" style="stroke: #000000; stroke-width: 0.6"/>
      </g>
     </g>
    </g>
    <g id="ytick_18">
     <g id="line2d_24">
      <g>
       <use xlink:href="#mb8158754e3" x="57.6" y="213.748058" style="stroke: #000000; stroke-width: 0.6"/>
      </g>
     </g>
    </g>
    <g id="ytick_19">
     <g id="line2d_25">
      <g>
       <use xlink:href="#mb8158754e3" x="57.6" y="206.834282" style="stroke: #000000; stroke-width: 0.6"/>
      </g>
     </g>
    </g>
    <g id="ytick_20">
     <g id="line2d_26">
      <g>
       <use xlink:href="#mb8158754e3" x="57.6" y="201.471541" style="stroke: #000000; stroke-width: 0.6"/>
      </g>
     </g>
    </g>
    <g id="ytick_21">
     <g id="line2d_27">
      <g>
       <use xlink:href="#mb8158754e3" x="57.6" y="197.089863" style="stroke: #000000; stroke-width: 0.6"/>
      </g>
     </g>
    </g>
    <g id="ytick_22">
     <g id="line2d_28">
      <g>
       <use xlink:href="#mb8158754e3" x="57.6" y="193.385206" style="stroke: #000000; stroke-width: 0.6"/>
      </g>
     </g>
    </g>
    <g id="ytick_23">
     <g id="line2d_29">
      <g>
       <use xlink:href="#mb8158754e3" x="57.6" y="190.176087" style="stroke: #000000; stroke-width: 0.6"/>
      </g>
     </g>
    </g>
    <g id="ytick_24">
     <g id="line2d_30">
      <g>
       <use xlink:href="#mb8158754e3" x="57.6" y="187.345443" style="stroke: #000000; stroke-width: 0.6"/>
      </g>
     </g>
    </g>
    <g id="ytick_25">
     <g id="line2d_31">
      <g>
       <use xlink:href="#mb8158754e3" x="57.6" y="168.15515" style="stroke: #000000; stroke-width: 0.6"/>
      </g>
     </g>
    </g>
    <g id="ytick_26">
     <g id="line2d_32">
      <g>
       <use xlink:href="#mb8158754e3" x="57.6" y="158.410731" style="stroke: #000000; stroke-width: 0.6"/>
      </g>
     </g>
    </g>
    <g id="ytick_27">
     <g id="line2d_33">
      <g>
       <use xlink:href="#mb8158754e3" x="57.6" y="151.496955" style="stroke: #000000; stroke-width: 0.6"/>
      </g>
     </g>
    </g>
    <g id="ytick_28">
     <g id="line2d_34">
      <g>
       <use xlink:href="#mb8158754e3" x="57.6" y="146.134214" style="stroke: #000000; stroke-width: 0.6"/>
      </g>
     </g>
    </g>
    <g id="ytick_29">
     <g id="line2d_35">
      <g>
       <use xlink:href="#mb8158754e3" x="57.6" y="141.752535" style="stroke: #000000; stroke-width: 0.6"/>
      </g>
     </g>
    </g>
    <g id="ytick_30">
     <g id="line2d_36">
      <g>
       <use xlink:href="#mb8158754e3" x="57.6" y="138.047879" style="stroke: #000000; stroke-width: 0.6"/>
      </g>
     </g>
    </g>
    <g id="ytick_31">
     <g id="line2d_37">
      <g>
       <use xlink:href="#mb8158754e3" x="57.6" y="134.83876" style="stroke: #000000; stroke-width: 0.6"/>
      </g>
     </g>
    </g>
    <g id="ytick_32">
     <g id="line2d_38">
      <g>
       <use xlink:href="#mb8158754e3" x="57.6" y="132.008116" style="stroke: #000000; stroke-width: 0.6"/>
      </g>
     </g>
    </g>
    <g id="ytick_33">
     <g id="line2d_39">
      <g>
       <use xlink:href="#mb8158754e3" x="57.6" y="112.817823" style="stroke: #000000; stroke-width: 0.6"/>
      </g>
     </g>
    </g>
    <g id="ytick_34">
     <g id="line2d_40">
      <g>
       <use xlink:href="#mb8158754e3" x="57.6" y="103.073404" style="stroke: #000000; stroke-width: 0.6"/>
      </g>
     </g>
    </g>
    <g id="ytick_35">
     <g id="line2d_41">
      <g>
       <use xlink:href="#mb8158754e3" x="57.6" y="96.159628" style="stroke: #000000; stroke-width: 0.6"/>
      </g>
     </g>
    </g>
    <g id="ytick_36">
     <g id="line2d_42">
      <g>
       <use xlink:href="#mb8158754e3" x="57.6" y="90.796887" style="stroke: #000000; stroke-width: 0.6"/>
      </g>
     </g>
    </g>
    <g id="ytick_37">
     <g id="line2d_43">
      <g>
       <use xlink:href="#mb8158754e3" x="57.6" y="86.415208" style="stroke: #000000; stroke-width: 0.6"/>
      </g>
     </g>
    </g>
    <g id="ytick_38">
     <g id="line2d_44">
      <g>
       <use xlink:href="#mb8158754e3" x="57.6" y="82.710552" style="stroke: #000000; stroke-width: 0.6"/>
      </g>
     </g>
    </g>
    <g id="ytick_39">
     <g id="line2d_45">
      <g>
       <use xlink:href="#mb8158754e3" x="57.6" y="79.501433" style="stroke: #000000; stroke-width: 0.6"/>
      </g>
     </g>
    </g>
    <g id="ytick_40">
     <g id="line2d_46">
      <g>
       <use xlink:href="#mb8158754e3" x="57.6" y="76.670789" style="stroke: #000000; stroke-width: 0.6"/>
      </g>
     </g>
    </g>
    <g id="ytick_41">
     <g id="line2d_47">
      <g>
       <use xlink:href="#mb8158754e3" x="57.6" y="57.480496" style="stroke: #000000; stroke-width: 0.6"/>
      </g>
     </g>
    </g>
    <g id="ytick_42">
     <g id="line2d_48">
      <g>
       <use xlink:href="#mb8158754e3" x="57.6" y="47.736077" style="stroke: #000000; stroke-width: 0.6"/>
      </g>
     </g>
    </g>
    <g id="text_7">
     <!-- Watched -->
     <g transform="translate(19.048437 205.073156) rotate(-90) scale(0.14 -0.14)">
      <defs>
       <path id="DejaVuSans-57" d="M 213 4666 
L 850 4666 
L 1831 722 
L 2809 4666 
L 3519 4666 
L 4500 722 
L 5478 4666 
L 6119 4666 
L 4947 0 
L 4153 0 
L 3169 4050 
L 2175 0 
L 1381 0 
L 213 4666 
z
" transform="scale(0.015625)"/>
       <path id="DejaVuSans-61" d="M 2194 1759 
Q 1497 1759 1228 1600 
Q 959 1441 959 1056 
Q 959 750 1161 570 
Q 1363 391 1709 391 
Q 2188 391 2477 730 
Q 2766 1069 2766 1631 
L 2766 1759 
L 2194 1759 
z
M 3341 1997 
L 3341 0 
L 2766 0 
L 2766 531 
Q 2569 213 2275 61 
Q 1981 -91 1556 -91 
Q 1019 -91 701 211 
Q 384 513 384 1019 
Q 384 1609 779 1909 
Q 1175 2209 1959 2209 
L 2766 2209 
L 2766 2266 
Q 2766 2663 2505 2880 
Q 2244 3097 1772 3097 
Q 1472 3097 1187 3025 
Q 903 2953 641 2809 
L 641 3341 
Q 956 3463 1253 3523 
Q 1550 3584 1831 3584 
Q 2591 3584 2966 3190 
Q 3341 2797 3341 1997 
z
" transform="scale(0.015625)"/>
       <path id="DejaVuSans-74" d="M 1172 4494 
L 1172 3500 
L 2356 3500 
L 2356 3053 
L 1172 3053 
L 1172 1153 
Q 1172 725 1289 603 
Q 1406 481 1766 481 
L 2356 481 
L 2356 0 
L 1766 0 
Q 1100 0 847 248 
Q 594 497 594 1153 
L 594 3053 
L 172 3053 
L 172 3500 
L 594 3500 
L 594 4494 
L 1172 4494 
z
" transform="scale(0.015625)"/>
       <path id="DejaVuSans-63" d="M 3122 3366 
L 3122 2828 
Q 2878 2963 2633 3030 
Q 2388 3097 2138 3097 
Q 1578 3097 1268 2742 
Q 959 2388 959 1747 
Q 959 1106 1268 751 
Q 1578 397 2138 397 
Q 2388 397 2633 464 
Q 2878 531 3122 666 
L 3122 134 
Q 2881 22 2623 -34 
Q 2366 -91 2075 -91 
Q 1284 -91 818 406 
Q 353 903 353 1747 
Q 353 2603 823 3093 
Q 1294 3584 2113 3584 
Q 2378 3584 2631 3529 
Q 2884 3475 3122 3366 
z
" transform="scale(0.015625)"/>
       <path id="DejaVuSans-68" d="M 3513 2113 
L 3513 0 
L 2938 0 
L 2938 2094 
Q 2938 2591 2744 2837 
Q 2550 3084 2163 3084 
Q 1697 3084 1428 2787 
Q 1159 2491 1159 1978 
L 1159 0 
L 581 0 
L 581 4863 
L 1159 4863 
L 1159 2956 
Q 1366 3272 1645 3428 
Q 1925 3584 2291 3584 
Q 2894 3584 3203 3211 
Q 3513 2838 3513 2113 
z
" transform="scale(0.015625)"/>
      </defs>
      <use xlink:href="#DejaVuSans-57"/>
      <use xlink:href="#DejaVuSans-61" x="92.501953"/>
      <use xlink:href="#DejaVuSans-74" x="153.78125"/>
      <use xlink:href="#DejaVuSans-63" x="192.990234"/>
      <use xlink:href="#DejaVuSans-68" x="247.970703"/>
      <use xlink:href="#DejaVuSans-65" x="311.349609"/>
      <use xlink:href="#DejaVuSans-64" x="372.873047"/>
     </g>
    </g>
   </g>
   <g id="line2d_49">
    <path d="M 73.832727 53.568 
L 73.976963 102.684041 
L 73.986842 103.31494 
L 74.407694 162.222437 
L 74.698141 170.821135 
L 74.702092 170.821135 
L 74.866086 174.43645 
L 74.868062 174.43645 
L 75.008346 176.899289 
L 75.026129 176.899289 
L 75.154558 178.508025 
L 75.166412 178.508025 
L 75.292866 180.034424 
L 75.310648 180.034424 
L 75.435125 181.45449 
L 75.458835 181.45449 
L 75.579361 182.522785 
L 75.583313 182.522785 
L 75.705814 183.870766 
L 75.727548 183.870766 
L 75.848074 185.054882 
L 75.89747 185.054882 
L 76.017995 186.300379 
L 76.049608 186.300379 
L 76.168158 187.345443 
L 76.209651 187.345443 
L 76.326225 188.160189 
L 76.33808 188.160189 
L 76.454654 189.003528 
L 76.476388 189.003528 
L 76.592962 189.87754 
L 76.600865 189.87754 
L 76.717439 190.784542 
L 76.735221 190.784542 
L 76.851795 191.727122 
L 76.885385 191.727122 
L 76.999983 192.376693 
L 77.00591 192.376693 
L 77.122484 193.385206 
L 77.175832 193.385206 
L 77.292406 194.437901 
L 77.33785 194.437901 
L 77.454424 195.538828 
L 77.523578 195.538828 
L 77.638176 196.301835 
L 77.705354 196.301835 
L 77.819952 197.089863 
L 77.900961 197.089863 
L 78.015559 197.904608 
L 78.074834 197.904608 
L 78.189432 198.747947 
L 78.31391 198.747947 
L 78.426532 199.180981 
L 78.442339 199.180981 
L 78.556937 200.071182 
L 78.68339 200.071182 
L 78.796012 200.528962 
L 78.819722 200.528962 
L 78.932344 200.995631 
L 78.983716 200.995631 
L 79.096338 201.471541 
L 79.10029 201.471541 
L 79.212912 201.957067 
L 79.220816 201.957067 
L 79.333438 202.452604 
L 79.376906 202.452604 
L 79.489528 202.958574 
L 79.558682 202.958574 
L 79.671305 203.475426 
L 79.714773 203.475426 
L 79.827395 204.003638 
L 79.894574 204.003638 
L 80.007196 204.543722 
L 80.078326 204.543722 
L 80.190948 205.096222 
L 80.301595 205.096222 
L 80.414217 205.661723 
L 80.505105 205.661723 
L 80.617727 206.240852 
L 80.726398 206.240852 
L 80.83902 206.834282 
L 80.953618 206.834282 
L 81.066241 207.442737 
L 81.277654 207.442737 
L 81.390277 208.066998 
L 81.522657 208.066998 
L 81.63528 208.707908 
L 81.836814 208.707908 
L 81.949437 209.366379 
L 82.135165 209.366379 
L 82.247787 210.043402 
L 82.471056 210.043402 
L 82.583678 210.74005 
L 82.83856 210.74005 
L 82.951182 211.457497 
L 83.247557 211.457497 
L 83.360179 212.197023 
L 83.65853 212.197023 
L 83.771152 212.96003 
L 84.132729 212.96003 
L 84.245351 213.748058 
L 84.599025 213.748058 
L 84.711647 214.562804 
L 85.142378 214.562804 
L 85.255 215.406143 
L 85.679804 215.406143 
L 85.792426 216.280155 
L 86.23106 216.280155 
L 86.343682 217.187157 
L 86.827761 217.187157 
L 86.940383 218.129736 
L 87.481761 218.129736 
L 87.594383 219.110799 
L 88.147615 219.110799 
L 88.260238 220.133621 
L 88.862866 220.133621 
L 88.975488 221.201917 
L 89.69469 221.201917 
L 89.807312 222.319918 
L 90.548249 222.319918 
L 90.660871 223.492478 
L 91.470961 223.492478 
L 91.583583 224.725194 
L 92.553716 224.725194 
L 92.666338 226.024575 
L 93.755021 226.024575 
L 93.867643 227.398246 
L 95.031407 227.398246 
L 95.144029 228.855219 
L 96.535013 228.855219 
L 96.647636 230.406253 
L 98.350801 230.406253 
L 98.463423 232.064338 
L 100.391833 232.064338 
L 100.504456 233.845352 
L 102.820128 233.845352 
L 102.932751 235.768994 
L 105.631734 235.768994 
L 105.744357 237.860112 
L 108.988669 237.860112 
L 109.101292 240.150673 
L 112.940329 240.150673 
L 113.052952 242.68277 
L 117.78704 242.68277 
L 117.899662 245.513414 
L 124.149213 245.513414 
L 124.261835 248.722533 
L 132.236285 248.722533 
L 132.348907 252.42719 
L 142.686449 252.42719 
L 142.799071 256.808868 
L 157.532835 256.808868 
L 157.645458 262.171609 
L 178.855992 262.171609 
L 178.968614 269.085385 
L 211.615253 269.085385 
L 211.727875 278.829805 
L 270.684665 278.829805 
L 270.797287 295.488 
L 398.487273 295.488 
L 398.487273 295.488 
" clip-path="url(#p2378c07338)" style="fill: none; stroke: #3182bd; stroke-width: 1.5; stroke-linecap: square"/>
   </g>
   <g id="line2d_50">
    <path d="M 73.832727 84.935627 
L 74.502118 98.479045 
L 74.836813 99.054947 
L 75.171509 99.184064 
L 75.506204 99.714547 
L 75.8409 100.797413 
L 76.510291 102.030896 
L 76.844986 102.100033 
L 77.179681 102.94557 
L 77.514377 103.412239 
L 77.849072 104.373675 
L 78.518463 104.475365 
L 79.187854 105.829063 
L 81.530722 107.493565 
L 81.865417 107.51283 
L 82.200112 108.088199 
L 82.534808 108.891036 
L 83.538894 109.06515 
L 83.87359 109.230182 
L 84.208285 109.553193 
L 84.877676 109.679404 
L 85.547067 110.09423 
L 87.555239 110.801925 
L 88.22463 110.946 
L 88.894021 111.542487 
L 89.563411 111.679621 
L 90.567498 112.189249 
L 90.902193 112.236119 
L 91.236888 112.436344 
L 91.906279 112.531148 
L 92.57567 112.697959 
L 93.914452 113.181045 
L 94.583843 113.811406 
L 96.592015 114.782556 
L 97.930797 115.044781 
L 98.600187 115.12401 
L 99.269578 115.645463 
L 99.604274 115.645463 
L 100.273664 116.512468 
L 100.60836 116.582637 
L 100.943055 117.470187 
L 101.277751 117.49937 
L 101.612446 117.867187 
L 101.947142 118.513307 
L 102.281837 118.835281 
L 102.616532 118.912581 
L 102.951228 119.161627 
L 103.955314 119.397475 
L 104.624705 119.683582 
L 105.294096 120.496673 
L 106.298182 121.544678 
L 106.632877 121.561962 
L 106.967573 121.735484 
L 107.302268 122.10401 
L 107.971659 122.174851 
L 108.306354 122.712919 
L 108.64105 122.821993 
L 108.975745 123.412235 
L 109.979831 123.618525 
L 110.314527 123.826602 
L 111.653308 124.113278 
L 112.322699 124.559598 
L 113.326785 124.61843 
L 114.330872 124.835386 
L 114.665567 125.234941 
L 115.000262 125.234941 
L 115.669653 125.826357 
L 117.008435 126.432695 
L 117.34313 126.432695 
L 117.677826 126.881518 
L 118.012521 126.946325 
L 118.681912 127.471173 
L 119.016607 127.962564 
L 119.351303 128.007739 
L 119.685998 128.166521 
L 120.020694 128.672491 
L 121.02478 128.906047 
L 121.359475 129.356155 
L 121.694171 129.356155 
L 122.028866 129.741843 
L 122.698257 129.814854 
L 123.032952 130.282479 
L 123.367648 130.382096 
L 123.702343 130.632962 
L 124.371734 130.683451 
L 124.706429 130.861002 
L 125.041125 130.911972 
L 125.37582 131.16846 
L 125.710515 131.19426 
L 126.379906 131.689797 
L 127.383993 131.84843 
L 127.718688 132.061581 
L 129.05747 132.27664 
L 129.392165 132.412036 
L 130.396251 132.466409 
L 130.730947 132.71262 
L 131.065642 132.71262 
L 132.069728 133.01701 
L 132.404424 133.410077 
L 133.073814 133.609048 
L 133.40851 134.012001 
L 133.743205 134.157566 
L 134.412596 134.186785 
L 136.086073 134.569901 
L 136.420769 134.868819 
L 136.755464 134.898917 
L 137.424855 135.11066 
L 137.75955 135.201981 
L 138.094246 135.570777 
L 138.763636 135.819822 
L 139.433027 136.103119 
L 139.767723 136.230108 
L 140.102418 136.230108 
L 140.437113 136.357772 
L 141.106504 136.453967 
L 141.4412 136.744884 
L 141.775895 136.744884 
L 142.11059 136.940804 
L 143.114677 137.1053 
L 143.449372 137.808746 
L 143.784067 137.979312 
L 144.453458 138.013571 
L 145.457545 138.603573 
L 145.79224 138.603573 
L 146.796326 138.993205 
L 147.131022 138.993205 
L 148.804499 139.791948 
L 149.473889 140.201501 
L 151.147366 140.465807 
L 151.482062 140.771473 
L 154.494321 141.712514 
L 155.163711 141.832778 
L 155.833102 142.360991 
L 158.845361 143.196995 
L 159.180056 143.367743 
L 159.514752 143.367743 
L 160.853533 143.799997 
L 162.192315 144.063132 
L 163.196401 144.41852 
L 163.531097 144.643336 
L 164.869878 145.053383 
L 165.539269 145.377216 
L 165.873964 145.423836 
L 166.20866 145.611227 
L 166.543355 145.658303 
L 167.212746 145.990449 
L 170.225005 146.866231 
L 170.5597 147.065261 
L 172.902568 147.468334 
L 173.571959 147.981873 
L 174.576045 148.400754 
L 174.91074 148.453631 
L 175.245436 149.043091 
L 175.914827 149.043091 
L 176.584217 149.315883 
L 176.918913 149.315883 
L 177.253608 149.591807 
L 177.588304 150.039982 
L 178.257694 150.039982 
L 179.596476 150.612216 
L 180.265867 150.728316 
L 181.604649 150.962213 
L 182.608735 151.436948 
L 183.278126 151.496955 
L 183.612821 151.557112 
L 183.947516 151.738492 
L 184.282212 151.738492 
L 184.616907 151.860177 
L 184.951603 152.10541 
L 185.620993 152.228972 
L 185.955689 152.415514 
L 186.62508 152.478018 
L 187.963861 152.792999 
L 188.298557 153.112163 
L 188.633252 153.112163 
L 188.967948 153.305715 
L 189.302643 153.370581 
L 189.637338 153.566235 
L 190.306729 153.566235 
L 190.641425 153.962387 
L 191.310815 154.365179 
L 191.645511 154.365179 
L 191.980206 154.569136 
L 192.314902 154.637507 
L 192.649597 154.982315 
L 193.988379 155.051875 
L 195.661856 155.75877 
L 196.665942 155.830616 
L 198.004724 156.047454 
L 199.00881 156.12017 
L 199.343505 156.266266 
L 201.686373 156.339648 
L 202.021068 156.413256 
L 202.690459 157.010372 
L 204.029241 157.238172 
L 204.363936 157.545303 
L 205.702718 157.778255 
L 206.037413 157.778255 
L 206.706804 158.092412 
L 207.376195 158.092412 
L 207.71089 158.330755 
L 211.727235 159.225477 
L 212.061931 159.225477 
L 212.396626 159.475385 
L 215.74358 160.241094 
L 217.082362 160.327698 
L 217.417057 160.501849 
L 218.421143 160.5894 
L 219.759925 160.853982 
L 220.764011 160.942828 
L 223.441575 161.757574 
L 223.77627 162.035411 
L 224.110965 162.035411 
L 224.445661 162.316499 
L 224.780356 162.792409 
L 225.784442 162.888733 
L 227.457919 163.474925 
L 228.12731 163.773472 
L 229.131396 163.873817 
L 230.470178 164.177392 
L 230.804873 164.177392 
L 231.139569 164.588218 
L 232.813046 165.006188 
L 233.482437 165.111826 
L 237.164086 166.194563 
L 238.168172 166.305569 
L 238.837563 166.41709 
L 239.172259 166.41709 
L 240.845736 166.868421 
L 241.180431 166.868421 
L 243.523299 167.56172 
L 244.19269 167.56172 
L 249.547816 169.514688 
L 250.217207 169.89922 
L 250.551903 169.89922 
L 251.221293 170.159035 
L 251.890684 170.554102 
L 252.22538 170.687248 
L 252.560075 170.687248 
L 252.89477 170.821135 
L 253.229466 171.091168 
L 253.564161 171.091168 
L 253.898857 171.501993 
L 254.233552 171.640511 
L 254.568247 171.640511 
L 254.902943 171.779831 
L 255.237638 171.779831 
L 255.572334 171.919964 
L 255.907029 171.919964 
L 256.241724 172.202705 
L 256.57642 172.778366 
L 256.911115 172.778366 
L 257.245811 172.924461 
L 257.580506 172.924461 
L 258.584592 173.368155 
L 258.919288 173.668567 
L 259.253983 173.668567 
L 259.588679 173.820194 
L 259.923374 173.820194 
L 260.258069 174.126347 
L 260.592765 174.126347 
L 260.92746 174.280898 
L 261.596851 174.280898 
L 262.266242 174.593016 
L 262.600937 174.593016 
L 262.935633 174.90924 
L 263.270328 174.90924 
L 263.605023 175.068926 
L 263.939719 175.391518 
L 264.274414 175.554452 
L 264.60911 175.883672 
L 264.943805 175.883672 
L 265.2785 176.049989 
L 266.282587 176.049989 
L 266.617282 176.217465 
L 266.951978 176.217465 
L 267.286673 176.386116 
L 267.621368 176.386116 
L 267.956064 176.555959 
L 268.96015 176.555959 
L 269.294845 176.727011 
L 269.629541 176.727011 
L 269.964236 176.899289 
L 270.298932 177.247595 
L 270.968322 177.247595 
L 271.303018 177.42366 
L 271.637713 177.959727 
L 272.307104 177.959727 
L 272.976495 178.693607 
L 273.980581 179.259108 
L 274.649972 179.259108 
L 274.984667 179.450605 
L 275.988754 179.450605 
L 276.323449 179.838237 
L 276.658144 180.034424 
L 277.662231 181.246413 
L 277.996926 181.246413 
L 278.331621 181.664383 
L 279.335708 182.305293 
L 280.005098 182.305293 
L 281.009185 182.963764 
L 281.34388 183.412987 
L 282.347966 183.412987 
L 282.682662 183.640787 
L 283.017357 183.640787 
L 283.352052 183.870766 
L 283.686748 183.870766 
L 284.021443 184.102968 
L 284.356139 184.102968 
L 284.690834 184.337435 
L 285.69492 184.337435 
L 286.029616 184.574213 
L 286.364311 184.574213 
L 286.699007 184.813346 
L 287.033702 184.813346 
L 287.368397 185.054882 
L 288.707179 185.054882 
L 289.041874 185.298871 
L 289.711265 185.298871 
L 290.045961 185.794408 
L 290.380656 185.794408 
L 291.050047 186.300379 
L 291.719438 186.300379 
L 292.054133 186.557415 
L 293.72761 186.557415 
L 294.062306 186.817231 
L 294.397001 186.817231 
L 294.731696 187.079886 
L 295.735783 187.079886 
L 296.405173 187.613968 
L 297.074564 187.613968 
L 297.40926 187.885526 
L 298.413346 187.885526 
L 298.748041 188.160189 
L 299.082737 188.719114 
L 299.417432 188.719114 
L 299.752127 189.003528 
L 300.086823 189.003528 
L 300.421518 189.291348 
L 301.7603 189.291348 
L 302.094995 189.582657 
L 302.429691 189.582657 
L 302.764386 190.176087 
L 303.099082 190.478389 
L 304.103168 190.478389 
L 304.772559 191.094646 
L 306.446036 191.094646 
L 306.780731 191.408803 
L 307.115426 191.408803 
L 307.784817 192.049713 
L 308.119513 192.049713 
L 308.454208 192.376693 
L 309.123599 192.376693 
L 309.458294 192.708184 
L 310.127685 192.708184 
L 310.462381 193.044311 
L 311.801162 193.044311 
L 312.135858 193.385206 
L 313.474639 193.385206 
L 313.809335 194.081855 
L 314.478725 194.081855 
L 314.813421 194.437901 
L 315.482812 194.437901 
L 316.152202 195.166221 
L 316.821593 195.166221 
L 317.156289 195.538828 
L 317.490984 195.538828 
L 317.825679 195.917303 
L 319.164461 195.917303 
L 319.499157 196.301835 
L 320.837938 196.301835 
L 321.172634 196.692619 
L 321.842024 196.692619 
L 322.17672 197.089863 
L 322.511415 197.089863 
L 323.180806 197.904608 
L 324.519588 197.904608 
L 324.854283 198.322579 
L 325.523674 198.322579 
L 325.858369 198.747947 
L 326.862455 198.747947 
L 327.197151 199.180981 
L 327.866542 199.180981 
L 328.535933 200.071182 
L 329.540019 200.071182 
L 329.874714 200.528962 
L 330.20941 200.528962 
L 330.544105 200.995631 
L 330.8788 200.995631 
L 331.213496 201.471541 
L 331.882887 201.471541 
L 332.217582 201.957067 
L 334.225754 201.957067 
L 334.56045 202.452604 
L 335.564536 202.452604 
L 335.899231 202.958574 
L 336.568622 202.958574 
L 336.903318 203.475426 
L 337.572709 203.475426 
L 337.907404 204.003638 
L 339.246186 204.003638 
L 339.580881 204.543722 
L 340.584967 204.543722 
L 340.919663 205.096222 
L 341.589053 205.096222 
L 342.258444 206.240852 
L 342.59314 206.240852 
L 342.927835 206.834282 
L 344.266617 206.834282 
L 344.601312 207.442737 
L 345.270703 207.442737 
L 345.605398 208.066998 
L 346.274789 208.066998 
L 347.278875 210.043402 
L 348.617657 210.043402 
L 348.952352 210.74005 
L 349.621743 210.74005 
L 349.956439 211.457497 
L 351.29522 211.457497 
L 351.629916 212.197023 
L 352.634002 212.197023 
L 352.968697 212.96003 
L 353.303393 212.96003 
L 353.638088 213.748058 
L 354.307479 213.748058 
L 354.642174 214.562804 
L 355.980956 214.562804 
L 356.315651 215.406143 
L 356.650347 215.406143 
L 356.985042 216.280155 
L 357.654433 216.280155 
L 357.989128 217.187157 
L 358.658519 217.187157 
L 358.993215 218.129736 
L 359.32791 218.129736 
L 359.662605 219.110799 
L 360.666692 219.110799 
L 361.001387 220.133621 
L 362.340169 220.133621 
L 362.674864 221.201917 
L 364.013646 221.201917 
L 364.348341 222.319918 
L 365.687123 222.319918 
L 366.021818 223.492478 
L 366.356514 223.492478 
L 366.691209 224.725194 
L 368.029991 224.725194 
L 368.364686 226.024575 
L 369.368772 226.024575 
L 369.703468 227.398246 
L 371.042249 227.398246 
L 371.376945 228.855219 
L 372.381031 228.855219 
L 372.715726 230.406253 
L 374.054508 230.406253 
L 374.389203 232.064338 
L 375.727985 232.064338 
L 376.06268 233.845352 
L 379.074939 233.845352 
L 379.409634 235.768994 
L 381.752502 235.768994 
L 382.087198 237.860112 
L 384.430066 237.860112 
L 384.764761 240.150673 
L 386.772933 240.150673 
L 387.107629 242.68277 
L 389.450497 242.68277 
L 389.785192 245.513414 
L 392.12806 245.513414 
L 392.462755 248.722533 
L 394.136232 248.722533 
L 394.470928 252.42719 
L 395.475014 252.42719 
L 395.809709 256.808868 
L 396.813796 256.808868 
L 397.483187 278.829805 
L 398.152577 278.829805 
L 398.487273 295.488 
L 398.487273 295.488 
" clip-path="url(#p2378c07338)" style="fill: none; stroke: #e6550d; stroke-width: 1.5; stroke-linecap: square"/>
   </g>
   <g id="patch_3">
    <path d="M 57.6 307.584 
L 57.6 41.472 
" style="fill: none; stroke: #000000; stroke-width: 0.8; stroke-linejoin: miter; stroke-linecap: square"/>
   </g>
   <g id="patch_4">
    <path d="M 414.72 307.584 
L 414.72 41.472 
" style="fill: none; stroke: #000000; stroke-width: 0.8; stroke-linejoin: miter; stroke-linecap: square"/>
   </g>
   <g id="patch_5">
    <path d="M 57.6 307.584 
L 414.72 307.584 
" style="fill: none; stroke: #000000; stroke-width: 0.8; stroke-linejoin: miter; stroke-linecap: square"/>
   </g>
   <g id="patch_6">
    <path d="M 57.6 41.472 
L 414.72 41.472 
" style="fill: none; stroke: #000000; stroke-width: 0.8; stroke-linejoin: miter; stroke-linecap: square"/>
   </g>
   <g id="legend_1">
    <g id="patch_7">
     <path d="M 291.088125 86.2995 
L 406.32 86.2995 
Q 408.72 86.2995 408.72 83.8995 
L 408.72 49.872 
Q 408.72 47.472 406.32 47.472 
L 291.088125 47.472 
Q 288.688125 47.472 288.688125 49.872 
L 288.688125 83.8995 
Q 288.688125 86.2995 291.088125 86.2995 
z
" style="fill: #ffffff; opacity: 0.8; stroke: #cccccc; stroke-linejoin: miter"/>
    </g>
    <g id="line2d_51">
     <path d="M 293.488125 57.190125 
L 305.488125 57.190125 
L 317.488125 57.190125 
" style="fill: none; stroke: #3182bd; stroke-width: 1.5; stroke-linecap: square"/>
    </g>
    <g id="text_8">
     <!-- MOOCCubeX -->
     <g transform="translate(327.088125 61.390125) scale(0.12 -0.12)">
      <defs>
       <path id="DejaVuSans-4d" d="M 628 4666 
L 1569 4666 
L 2759 1491 
L 3956 4666 
L 4897 4666 
L 4897 0 
L 4281 0 
L 4281 4097 
L 3078 897 
L 2444 897 
L 1241 4097 
L 1241 0 
L 628 0 
L 628 4666 
z
" transform="scale(0.015625)"/>
       <path id="DejaVuSans-4f" d="M 2522 4238 
Q 1834 4238 1429 3725 
Q 1025 3213 1025 2328 
Q 1025 1447 1429 934 
Q 1834 422 2522 422 
Q 3209 422 3611 934 
Q 4013 1447 4013 2328 
Q 4013 3213 3611 3725 
Q 3209 4238 2522 4238 
z
M 2522 4750 
Q 3503 4750 4090 4092 
Q 4678 3434 4678 2328 
Q 4678 1225 4090 567 
Q 3503 -91 2522 -91 
Q 1538 -91 948 565 
Q 359 1222 359 2328 
Q 359 3434 948 4092 
Q 1538 4750 2522 4750 
z
" transform="scale(0.015625)"/>
       <path id="DejaVuSans-43" d="M 4122 4306 
L 4122 3641 
Q 3803 3938 3442 4084 
Q 3081 4231 2675 4231 
Q 1875 4231 1450 3742 
Q 1025 3253 1025 2328 
Q 1025 1406 1450 917 
Q 1875 428 2675 428 
Q 3081 428 3442 575 
Q 3803 722 4122 1019 
L 4122 359 
Q 3791 134 3420 21 
Q 3050 -91 2638 -91 
Q 1578 -91 968 557 
Q 359 1206 359 2328 
Q 359 3453 968 4101 
Q 1578 4750 2638 4750 
Q 3056 4750 3426 4639 
Q 3797 4528 4122 4306 
z
" transform="scale(0.015625)"/>
       <path id="DejaVuSans-75" d="M 544 1381 
L 544 3500 
L 1119 3500 
L 1119 1403 
Q 1119 906 1312 657 
Q 1506 409 1894 409 
Q 2359 409 2629 706 
Q 2900 1003 2900 1516 
L 2900 3500 
L 3475 3500 
L 3475 0 
L 2900 0 
L 2900 538 
Q 2691 219 2414 64 
Q 2138 -91 1772 -91 
Q 1169 -91 856 284 
Q 544 659 544 1381 
z
M 1991 3584 
L 1991 3584 
z
" transform="scale(0.015625)"/>
       <path id="DejaVuSans-62" d="M 3116 1747 
Q 3116 2381 2855 2742 
Q 2594 3103 2138 3103 
Q 1681 3103 1420 2742 
Q 1159 2381 1159 1747 
Q 1159 1113 1420 752 
Q 1681 391 2138 391 
Q 2594 391 2855 752 
Q 3116 1113 3116 1747 
z
M 1159 2969 
Q 1341 3281 1617 3432 
Q 1894 3584 2278 3584 
Q 2916 3584 3314 3078 
Q 3713 2572 3713 1747 
Q 3713 922 3314 415 
Q 2916 -91 2278 -91 
Q 1894 -91 1617 61 
Q 1341 213 1159 525 
L 1159 0 
L 581 0 
L 581 4863 
L 1159 4863 
L 1159 2969 
z
" transform="scale(0.015625)"/>
       <path id="DejaVuSans-58" d="M 403 4666 
L 1081 4666 
L 2241 2931 
L 3406 4666 
L 4084 4666 
L 2584 2425 
L 4184 0 
L 3506 0 
L 2194 1984 
L 872 0 
L 191 0 
L 1856 2491 
L 403 4666 
z
" transform="scale(0.015625)"/>
      </defs>
      <use xlink:href="#DejaVuSans-4d"/>
      <use xlink:href="#DejaVuSans-4f" x="86.279297"/>
      <use xlink:href="#DejaVuSans-4f" x="164.990234"/>
      <use xlink:href="#DejaVuSans-43" x="243.701172"/>
      <use xlink:href="#DejaVuSans-43" x="313.525391"/>
      <use xlink:href="#DejaVuSans-75" x="383.349609"/>
      <use xlink:href="#DejaVuSans-62" x="446.728516"/>
      <use xlink:href="#DejaVuSans-65" x="510.205078"/>
      <use xlink:href="#DejaVuSans-58" x="571.728516"/>
     </g>
    </g>
    <g id="line2d_52">
     <path d="M 293.488125 74.803875 
L 305.488125 74.803875 
L 317.488125 74.803875 
" style="fill: none; stroke: #e6550d; stroke-width: 1.5; stroke-linecap: square"/>
    </g>
    <g id="text_9">
     <!-- EdNet -->
     <g transform="translate(327.088125 79.003875) scale(0.12 -0.12)">
      <defs>
       <path id="DejaVuSans-45" d="M 628 4666 
L 3578 4666 
L 3578 4134 
L 1259 4134 
L 1259 2753 
L 3481 2753 
L 3481 2222 
L 1259 2222 
L 1259 531 
L 3634 531 
L 3634 0 
L 628 0 
L 628 4666 
z
" transform="scale(0.015625)"/>
       <path id="DejaVuSans-4e" d="M 628 4666 
L 1478 4666 
L 3547 763 
L 3547 4666 
L 4159 4666 
L 4159 0 
L 3309 0 
L 1241 3903 
L 1241 0 
L 628 0 
L 628 4666 
z
" transform="scale(0.015625)"/>
      </defs>
      <use xlink:href="#DejaVuSans-45"/>
      <use xlink:href="#DejaVuSans-64" x="63.183594"/>
      <use xlink:href="#DejaVuSans-4e" x="126.660156"/>
      <use xlink:href="#DejaVuSans-65" x="201.464844"/>
      <use xlink:href="#DejaVuSans-74" x="262.988281"/>
     </g>
    </g>
   </g>
  </g>
 </g>
 <defs>
  <clipPath id="p2378c07338">
   <rect x="57.6" y="41.472" width="357.12" height="266.112"/>
  </clipPath>
 </defs>
</svg>
