<?xml version="1.0" encoding="utf-8" standalone="no"?>
<!DOCTYPE svg PUBLIC "-//W3C//DTD SVG 1.1//EN"
  "http://www.w3.org/Graphics/SVG/1.1/DTD/svg11.dtd">
<svg xmlns:xlink="http://www.w3.org/1999/xlink" width="460.8pt" height="345.6pt" viewBox="0 0 460.8 345.6" xmlns="http://www.w3.org/2000/svg" version="1.1">
 <metadata>
  <rdf:RDF xmlns:dc="http://purl.org/dc/elements/1.1/" xmlns:cc="http://creativecommons.org/ns#" xmlns:rdf="http://www.w3.org/1999/02/22-rdf-syntax-ns#">
   <cc:Work>
    <dc:type rdf:resource="http://purl.org/dc/dcmitype/StillImage"/>
    <dc:date>2022-12-12T14:34:36.654610</dc:date>
    <dc:format>image/svg+xml</dc:format>
    <dc:creator>
     <cc:Agent>
      <dc:title>Matplotlib v3.6.2, https://matplotlib.org/</dc:title>
     </cc:Agent>
    </dc:creator>
   </cc:Work>
  </rdf:RDF>
 </metadata>
 <defs>
  <style type="text/css">*{stroke-linejoin: round; stroke-linecap: butt}</style>
 </defs>
 <g id="figure_1">
  <g id="patch_1">
   <path d="M 0 345.6 
L 460.8 345.6 
L 460.8 0 
L 0 0 
z
" style="fill: #ffffff"/>
  </g>
  <g id="axes_1">
   <g id="patch_2">
    <path d="M 64.823952 292.12 
L 434.186865 292.12 
L 434.186865 15.12 
L 64.823952 15.12 
z
" style="fill: #ffffff"/>
   </g>
   <g id="matplotlib.axis_1">
    <g id="xtick_1">
     <g id="line2d_1">
      <defs>
       <path id="mcb13b6f822" d="M 0 0 
L 0 3.5 
" style="stroke: #000000; stroke-width: 0.8"/>
      </defs>
      <g>
       <use xlink:href="#mcb13b6f822" x="81.613175" y="292.12" style="stroke: #000000; stroke-width: 0.8"/>
      </g>
     </g>
     <g id="text_1">
      <!-- 0 -->
      <g transform="translate(77.159425 309.757812) scale(0.14 -0.14)">
       <defs>
        <path id="DejaVuSans-30" d="M 2034 4250 
Q 1547 4250 1301 3770 
Q 1056 3291 1056 2328 
Q 1056 1369 1301 889 
Q 1547 409 2034 409 
Q 2525 409 2770 889 
Q 3016 1369 3016 2328 
Q 3016 3291 2770 3770 
Q 2525 4250 2034 4250 
z
M 2034 4750 
Q 2819 4750 3233 4129 
Q 3647 3509 3647 2328 
Q 3647 1150 3233 529 
Q 2819 -91 2034 -91 
Q 1250 -91 836 529 
Q 422 1150 422 2328 
Q 422 3509 836 4129 
Q 1250 4750 2034 4750 
z
" transform="scale(0.015625)"/>
       </defs>
       <use xlink:href="#DejaVuSans-30"/>
      </g>
     </g>
    </g>
    <g id="xtick_2">
     <g id="line2d_2">
      <g>
       <use xlink:href="#mcb13b6f822" x="150.847086" y="292.12" style="stroke: #000000; stroke-width: 0.8"/>
      </g>
     </g>
     <g id="text_2">
      <!-- 200 -->
      <g transform="translate(137.485836 309.757812) scale(0.14 -0.14)">
       <defs>
        <path id="DejaVuSans-32" d="M 1228 531 
L 3431 531 
L 3431 0 
L 469 0 
L 469 531 
Q 828 903 1448 1529 
Q 2069 2156 2228 2338 
Q 2531 2678 2651 2914 
Q 2772 3150 2772 3378 
Q 2772 3750 2511 3984 
Q 2250 4219 1831 4219 
Q 1534 4219 1204 4116 
Q 875 4013 500 3803 
L 500 4441 
Q 881 4594 1212 4672 
Q 1544 4750 1819 4750 
Q 2544 4750 2975 4387 
Q 3406 4025 3406 3419 
Q 3406 3131 3298 2873 
Q 3191 2616 2906 2266 
Q 2828 2175 2409 1742 
Q 1991 1309 1228 531 
z
" transform="scale(0.015625)"/>
       </defs>
       <use xlink:href="#DejaVuSans-32"/>
       <use xlink:href="#DejaVuSans-30" x="63.623047"/>
       <use xlink:href="#DejaVuSans-30" x="127.246094"/>
      </g>
     </g>
    </g>
    <g id="xtick_3">
     <g id="line2d_3">
      <g>
       <use xlink:href="#mcb13b6f822" x="220.080996" y="292.12" style="stroke: #000000; stroke-width: 0.8"/>
      </g>
     </g>
     <g id="text_3">
      <!-- 400 -->
      <g transform="translate(206.719746 309.757812) scale(0.14 -0.14)">
       <defs>
        <path id="DejaVuSans-34" d="M 2419 4116 
L 825 1625 
L 2419 1625 
L 2419 4116 
z
M 2253 4666 
L 3047 4666 
L 3047 1625 
L 3713 1625 
L 3713 1100 
L 3047 1100 
L 3047 0 
L 2419 0 
L 2419 1100 
L 313 1100 
L 313 1709 
L 2253 4666 
z
" transform="scale(0.015625)"/>
       </defs>
       <use xlink:href="#DejaVuSans-34"/>
       <use xlink:href="#DejaVuSans-30" x="63.623047"/>
       <use xlink:href="#DejaVuSans-30" x="127.246094"/>
      </g>
     </g>
    </g>
    <g id="xtick_4">
     <g id="line2d_4">
      <g>
       <use xlink:href="#mcb13b6f822" x="289.314907" y="292.12" style="stroke: #000000; stroke-width: 0.8"/>
      </g>
     </g>
     <g id="text_4">
      <!-- 600 -->
      <g transform="translate(275.953657 309.757812) scale(0.14 -0.14)">
       <defs>
        <path id="DejaVuSans-36" d="M 2113 2584 
Q 1688 2584 1439 2293 
Q 1191 2003 1191 1497 
Q 1191 994 1439 701 
Q 1688 409 2113 409 
Q 2538 409 2786 701 
Q 3034 994 3034 1497 
Q 3034 2003 2786 2293 
Q 2538 2584 2113 2584 
z
M 3366 4563 
L 3366 3988 
Q 3128 4100 2886 4159 
Q 2644 4219 2406 4219 
Q 1781 4219 1451 3797 
Q 1122 3375 1075 2522 
Q 1259 2794 1537 2939 
Q 1816 3084 2150 3084 
Q 2853 3084 3261 2657 
Q 3669 2231 3669 1497 
Q 3669 778 3244 343 
Q 2819 -91 2113 -91 
Q 1303 -91 875 529 
Q 447 1150 447 2328 
Q 447 3434 972 4092 
Q 1497 4750 2381 4750 
Q 2619 4750 2861 4703 
Q 3103 4656 3366 4563 
z
" transform="scale(0.015625)"/>
       </defs>
       <use xlink:href="#DejaVuSans-36"/>
       <use xlink:href="#DejaVuSans-30" x="63.623047"/>
       <use xlink:href="#DejaVuSans-30" x="127.246094"/>
      </g>
     </g>
    </g>
    <g id="xtick_5">
     <g id="line2d_5">
      <g>
       <use xlink:href="#mcb13b6f822" x="358.548818" y="292.12" style="stroke: #000000; stroke-width: 0.8"/>
      </g>
     </g>
     <g id="text_5">
      <!-- 800 -->
      <g transform="translate(345.187568 309.757812) scale(0.14 -0.14)">
       <defs>
        <path id="DejaVuSans-38" d="M 2034 2216 
Q 1584 2216 1326 1975 
Q 1069 1734 1069 1313 
Q 1069 891 1326 650 
Q 1584 409 2034 409 
Q 2484 409 2743 651 
Q 3003 894 3003 1313 
Q 3003 1734 2745 1975 
Q 2488 2216 2034 2216 
z
M 1403 2484 
Q 997 2584 770 2862 
Q 544 3141 544 3541 
Q 544 4100 942 4425 
Q 1341 4750 2034 4750 
Q 2731 4750 3128 4425 
Q 3525 4100 3525 3541 
Q 3525 3141 3298 2862 
Q 3072 2584 2669 2484 
Q 3125 2378 3379 2068 
Q 3634 1759 3634 1313 
Q 3634 634 3220 271 
Q 2806 -91 2034 -91 
Q 1263 -91 848 271 
Q 434 634 434 1313 
Q 434 1759 690 2068 
Q 947 2378 1403 2484 
z
M 1172 3481 
Q 1172 3119 1398 2916 
Q 1625 2713 2034 2713 
Q 2441 2713 2670 2916 
Q 2900 3119 2900 3481 
Q 2900 3844 2670 4047 
Q 2441 4250 2034 4250 
Q 1625 4250 1398 4047 
Q 1172 3844 1172 3481 
z
" transform="scale(0.015625)"/>
       </defs>
       <use xlink:href="#DejaVuSans-38"/>
       <use xlink:href="#DejaVuSans-30" x="63.623047"/>
       <use xlink:href="#DejaVuSans-30" x="127.246094"/>
      </g>
     </g>
    </g>
    <g id="xtick_6">
     <g id="line2d_6">
      <g>
       <use xlink:href="#mcb13b6f822" x="427.782728" y="292.12" style="stroke: #000000; stroke-width: 0.8"/>
      </g>
     </g>
     <g id="text_6">
      <!-- 1000 -->
      <g transform="translate(409.967728 309.757812) scale(0.14 -0.14)">
       <defs>
        <path id="DejaVuSans-31" d="M 794 531 
L 1825 531 
L 1825 4091 
L 703 3866 
L 703 4441 
L 1819 4666 
L 2450 4666 
L 2450 531 
L 3481 531 
L 3481 0 
L 794 0 
L 794 531 
z
" transform="scale(0.015625)"/>
       </defs>
       <use xlink:href="#DejaVuSans-31"/>
       <use xlink:href="#DejaVuSans-30" x="63.623047"/>
       <use xlink:href="#DejaVuSans-30" x="127.246094"/>
       <use xlink:href="#DejaVuSans-30" x="190.869141"/>
      </g>
     </g>
    </g>
    <g id="text_7">
     <!-- Videos -->
     <g transform="translate(226.249002 327.307187) scale(0.14 -0.14)">
      <defs>
       <path id="DejaVuSans-56" d="M 1831 0 
L 50 4666 
L 709 4666 
L 2188 738 
L 3669 4666 
L 4325 4666 
L 2547 0 
L 1831 0 
z
" transform="scale(0.015625)"/>
       <path id="DejaVuSans-69" d="M 603 3500 
L 1178 3500 
L 1178 0 
L 603 0 
L 603 3500 
z
M 603 4863 
L 1178 4863 
L 1178 4134 
L 603 4134 
L 603 4863 
z
" transform="scale(0.015625)"/>
       <path id="DejaVuSans-64" d="M 2906 2969 
L 2906 4863 
L 3481 4863 
L 3481 0 
L 2906 0 
L 2906 525 
Q 2725 213 2448 61 
Q 2172 -91 1784 -91 
Q 1150 -91 751 415 
Q 353 922 353 1747 
Q 353 2572 751 3078 
Q 1150 3584 1784 3584 
Q 2172 3584 2448 3432 
Q 2725 3281 2906 2969 
z
M 947 1747 
Q 947 1113 1208 752 
Q 1469 391 1925 391 
Q 2381 391 2643 752 
Q 2906 1113 2906 1747 
Q 2906 2381 2643 2742 
Q 2381 3103 1925 3103 
Q 1469 3103 1208 2742 
Q 947 2381 947 1747 
z
" transform="scale(0.015625)"/>
       <path id="DejaVuSans-65" d="M 3597 1894 
L 3597 1613 
L 953 1613 
Q 991 1019 1311 708 
Q 1631 397 2203 397 
Q 2534 397 2845 478 
Q 3156 559 3463 722 
L 3463 178 
Q 3153 47 2828 -22 
Q 2503 -91 2169 -91 
Q 1331 -91 842 396 
Q 353 884 353 1716 
Q 353 2575 817 3079 
Q 1281 3584 2069 3584 
Q 2775 3584 3186 3129 
Q 3597 2675 3597 1894 
z
M 3022 2063 
Q 3016 2534 2758 2815 
Q 2500 3097 2075 3097 
Q 1594 3097 1305 2825 
Q 1016 2553 972 2059 
L 3022 2063 
z
" transform="scale(0.015625)"/>
       <path id="DejaVuSans-6f" d="M 1959 3097 
Q 1497 3097 1228 2736 
Q 959 2375 959 1747 
Q 959 1119 1226 758 
Q 1494 397 1959 397 
Q 2419 397 2687 759 
Q 2956 1122 2956 1747 
Q 2956 2369 2687 2733 
Q 2419 3097 1959 3097 
z
M 1959 3584 
Q 2709 3584 3137 3096 
Q 3566 2609 3566 1747 
Q 3566 888 3137 398 
Q 2709 -91 1959 -91 
Q 1206 -91 779 398 
Q 353 888 353 1747 
Q 353 2609 779 3096 
Q 1206 3584 1959 3584 
z
" transform="scale(0.015625)"/>
       <path id="DejaVuSans-73" d="M 2834 3397 
L 2834 2853 
Q 2591 2978 2328 3040 
Q 2066 3103 1784 3103 
Q 1356 3103 1142 2972 
Q 928 2841 928 2578 
Q 928 2378 1081 2264 
Q 1234 2150 1697 2047 
L 1894 2003 
Q 2506 1872 2764 1633 
Q 3022 1394 3022 966 
Q 3022 478 2636 193 
Q 2250 -91 1575 -91 
Q 1294 -91 989 -36 
Q 684 19 347 128 
L 347 722 
Q 666 556 975 473 
Q 1284 391 1588 391 
Q 1994 391 2212 530 
Q 2431 669 2431 922 
Q 2431 1156 2273 1281 
Q 2116 1406 1581 1522 
L 1381 1569 
Q 847 1681 609 1914 
Q 372 2147 372 2553 
Q 372 3047 722 3315 
Q 1072 3584 1716 3584 
Q 2034 3584 2315 3537 
Q 2597 3491 2834 3397 
z
" transform="scale(0.015625)"/>
      </defs>
      <use xlink:href="#DejaVuSans-56"/>
      <use xlink:href="#DejaVuSans-69" x="66.158203"/>
      <use xlink:href="#DejaVuSans-64" x="93.941406"/>
      <use xlink:href="#DejaVuSans-65" x="157.417969"/>
      <use xlink:href="#DejaVuSans-6f" x="218.941406"/>
      <use xlink:href="#DejaVuSans-73" x="280.123047"/>
     </g>
    </g>
   </g>
   <g id="matplotlib.axis_2">
    <g id="ytick_1">
     <g id="line2d_7">
      <defs>
       <path id="m76d6fc3a01" d="M 0 0 
L -3.5 0 
" style="stroke: #000000; stroke-width: 0.8"/>
      </defs>
      <g>
       <use xlink:href="#m76d6fc3a01" x="64.823952" y="279.529091" style="stroke: #000000; stroke-width: 0.8"/>
      </g>
     </g>
     <g id="text_8">
      <!-- $\mathdefault{10^{0}}$ -->
      <g transform="translate(33.183952 284.847997) scale(0.14 -0.14)">
       <use xlink:href="#DejaVuSans-31" transform="translate(0 0.765625)"/>
       <use xlink:href="#DejaVuSans-30" transform="translate(63.623047 0.765625)"/>
       <use xlink:href="#DejaVuSans-30" transform="translate(128.203125 39.046875) scale(0.7)"/>
      </g>
     </g>
    </g>
    <g id="ytick_2">
     <g id="line2d_8">
      <g>
       <use xlink:href="#m76d6fc3a01" x="64.823952" y="213.346293" style="stroke: #000000; stroke-width: 0.8"/>
      </g>
     </g>
     <g id="text_9">
      <!-- $\mathdefault{10^{1}}$ -->
      <g transform="translate(33.183952 218.6652) scale(0.14 -0.14)">
       <use xlink:href="#DejaVuSans-31" transform="translate(0 0.684375)"/>
       <use xlink:href="#DejaVuSans-30" transform="translate(63.623047 0.684375)"/>
       <use xlink:href="#DejaVuSans-31" transform="translate(128.203125 38.965625) scale(0.7)"/>
      </g>
     </g>
    </g>
    <g id="ytick_3">
     <g id="line2d_9">
      <g>
       <use xlink:href="#m76d6fc3a01" x="64.823952" y="147.163496" style="stroke: #000000; stroke-width: 0.8"/>
      </g>
     </g>
     <g id="text_10">
      <!-- $\mathdefault{10^{2}}$ -->
      <g transform="translate(33.183952 152.482402) scale(0.14 -0.14)">
       <use xlink:href="#DejaVuSans-31" transform="translate(0 0.765625)"/>
       <use xlink:href="#DejaVuSans-30" transform="translate(63.623047 0.765625)"/>
       <use xlink:href="#DejaVuSans-32" transform="translate(128.203125 39.046875) scale(0.7)"/>
      </g>
     </g>
    </g>
    <g id="ytick_4">
     <g id="line2d_10">
      <g>
       <use xlink:href="#m76d6fc3a01" x="64.823952" y="80.980698" style="stroke: #000000; stroke-width: 0.8"/>
      </g>
     </g>
     <g id="text_11">
      <!-- $\mathdefault{10^{3}}$ -->
      <g transform="translate(33.183952 86.299604) scale(0.14 -0.14)">
       <defs>
        <path id="DejaVuSans-33" d="M 2597 2516 
Q 3050 2419 3304 2112 
Q 3559 1806 3559 1356 
Q 3559 666 3084 287 
Q 2609 -91 1734 -91 
Q 1441 -91 1130 -33 
Q 819 25 488 141 
L 488 750 
Q 750 597 1062 519 
Q 1375 441 1716 441 
Q 2309 441 2620 675 
Q 2931 909 2931 1356 
Q 2931 1769 2642 2001 
Q 2353 2234 1838 2234 
L 1294 2234 
L 1294 2753 
L 1863 2753 
Q 2328 2753 2575 2939 
Q 2822 3125 2822 3475 
Q 2822 3834 2567 4026 
Q 2313 4219 1838 4219 
Q 1578 4219 1281 4162 
Q 984 4106 628 3988 
L 628 4550 
Q 988 4650 1302 4700 
Q 1616 4750 1894 4750 
Q 2613 4750 3031 4423 
Q 3450 4097 3450 3541 
Q 3450 3153 3228 2886 
Q 3006 2619 2597 2516 
z
" transform="scale(0.015625)"/>
       </defs>
       <use xlink:href="#DejaVuSans-31" transform="translate(0 0.765625)"/>
       <use xlink:href="#DejaVuSans-30" transform="translate(63.623047 0.765625)"/>
       <use xlink:href="#DejaVuSans-33" transform="translate(128.203125 39.046875) scale(0.7)"/>
      </g>
     </g>
    </g>
    <g id="ytick_5">
     <g id="line2d_11">
      <defs>
       <path id="m9787ef9ce3" d="M 0 0 
L -2 0 
" style="stroke: #000000; stroke-width: 0.6"/>
      </defs>
      <g>
       <use xlink:href="#m9787ef9ce3" x="64.823952" y="289.780936" style="stroke: #000000; stroke-width: 0.6"/>
      </g>
     </g>
    </g>
    <g id="ytick_6">
     <g id="line2d_12">
      <g>
       <use xlink:href="#m9787ef9ce3" x="64.823952" y="285.942867" style="stroke: #000000; stroke-width: 0.6"/>
      </g>
     </g>
    </g>
    <g id="ytick_7">
     <g id="line2d_13">
      <g>
       <use xlink:href="#m9787ef9ce3" x="64.823952" y="282.55745" style="stroke: #000000; stroke-width: 0.6"/>
      </g>
     </g>
    </g>
    <g id="ytick_8">
     <g id="line2d_14">
      <g>
       <use xlink:href="#m9787ef9ce3" x="64.823952" y="259.606084" style="stroke: #000000; stroke-width: 0.6"/>
      </g>
     </g>
    </g>
    <g id="ytick_9">
     <g id="line2d_15">
      <g>
       <use xlink:href="#m9787ef9ce3" x="64.823952" y="247.951871" style="stroke: #000000; stroke-width: 0.6"/>
      </g>
     </g>
    </g>
    <g id="ytick_10">
     <g id="line2d_16">
      <g>
       <use xlink:href="#m9787ef9ce3" x="64.823952" y="239.683076" style="stroke: #000000; stroke-width: 0.6"/>
      </g>
     </g>
    </g>
    <g id="ytick_11">
     <g id="line2d_17">
      <g>
       <use xlink:href="#m9787ef9ce3" x="64.823952" y="233.269301" style="stroke: #000000; stroke-width: 0.6"/>
      </g>
     </g>
    </g>
    <g id="ytick_12">
     <g id="line2d_18">
      <g>
       <use xlink:href="#m9787ef9ce3" x="64.823952" y="228.028864" style="stroke: #000000; stroke-width: 0.6"/>
      </g>
     </g>
    </g>
    <g id="ytick_13">
     <g id="line2d_19">
      <g>
       <use xlink:href="#m9787ef9ce3" x="64.823952" y="223.598138" style="stroke: #000000; stroke-width: 0.6"/>
      </g>
     </g>
    </g>
    <g id="ytick_14">
     <g id="line2d_20">
      <g>
       <use xlink:href="#m9787ef9ce3" x="64.823952" y="219.760069" style="stroke: #000000; stroke-width: 0.6"/>
      </g>
     </g>
    </g>
    <g id="ytick_15">
     <g id="line2d_21">
      <g>
       <use xlink:href="#m9787ef9ce3" x="64.823952" y="216.374652" style="stroke: #000000; stroke-width: 0.6"/>
      </g>
     </g>
    </g>
    <g id="ytick_16">
     <g id="line2d_22">
      <g>
       <use xlink:href="#m9787ef9ce3" x="64.823952" y="193.423286" style="stroke: #000000; stroke-width: 0.6"/>
      </g>
     </g>
    </g>
    <g id="ytick_17">
     <g id="line2d_23">
      <g>
       <use xlink:href="#m9787ef9ce3" x="64.823952" y="181.769074" style="stroke: #000000; stroke-width: 0.6"/>
      </g>
     </g>
    </g>
    <g id="ytick_18">
     <g id="line2d_24">
      <g>
       <use xlink:href="#m9787ef9ce3" x="64.823952" y="173.500279" style="stroke: #000000; stroke-width: 0.6"/>
      </g>
     </g>
    </g>
    <g id="ytick_19">
     <g id="line2d_25">
      <g>
       <use xlink:href="#m9787ef9ce3" x="64.823952" y="167.086503" style="stroke: #000000; stroke-width: 0.6"/>
      </g>
     </g>
    </g>
    <g id="ytick_20">
     <g id="line2d_26">
      <g>
       <use xlink:href="#m9787ef9ce3" x="64.823952" y="161.846067" style="stroke: #000000; stroke-width: 0.6"/>
      </g>
     </g>
    </g>
    <g id="ytick_21">
     <g id="line2d_27">
      <g>
       <use xlink:href="#m9787ef9ce3" x="64.823952" y="157.415341" style="stroke: #000000; stroke-width: 0.6"/>
      </g>
     </g>
    </g>
    <g id="ytick_22">
     <g id="line2d_28">
      <g>
       <use xlink:href="#m9787ef9ce3" x="64.823952" y="153.577271" style="stroke: #000000; stroke-width: 0.6"/>
      </g>
     </g>
    </g>
    <g id="ytick_23">
     <g id="line2d_29">
      <g>
       <use xlink:href="#m9787ef9ce3" x="64.823952" y="150.191854" style="stroke: #000000; stroke-width: 0.6"/>
      </g>
     </g>
    </g>
    <g id="ytick_24">
     <g id="line2d_30">
      <g>
       <use xlink:href="#m9787ef9ce3" x="64.823952" y="127.240488" style="stroke: #000000; stroke-width: 0.6"/>
      </g>
     </g>
    </g>
    <g id="ytick_25">
     <g id="line2d_31">
      <g>
       <use xlink:href="#m9787ef9ce3" x="64.823952" y="115.586276" style="stroke: #000000; stroke-width: 0.6"/>
      </g>
     </g>
    </g>
    <g id="ytick_26">
     <g id="line2d_32">
      <g>
       <use xlink:href="#m9787ef9ce3" x="64.823952" y="107.317481" style="stroke: #000000; stroke-width: 0.6"/>
      </g>
     </g>
    </g>
    <g id="ytick_27">
     <g id="line2d_33">
      <g>
       <use xlink:href="#m9787ef9ce3" x="64.823952" y="100.903705" style="stroke: #000000; stroke-width: 0.6"/>
      </g>
     </g>
    </g>
    <g id="ytick_28">
     <g id="line2d_34">
      <g>
       <use xlink:href="#m9787ef9ce3" x="64.823952" y="95.663269" style="stroke: #000000; stroke-width: 0.6"/>
      </g>
     </g>
    </g>
    <g id="ytick_29">
     <g id="line2d_35">
      <g>
       <use xlink:href="#m9787ef9ce3" x="64.823952" y="91.232543" style="stroke: #000000; stroke-width: 0.6"/>
      </g>
     </g>
    </g>
    <g id="ytick_30">
     <g id="line2d_36">
      <g>
       <use xlink:href="#m9787ef9ce3" x="64.823952" y="87.394474" style="stroke: #000000; stroke-width: 0.6"/>
      </g>
     </g>
    </g>
    <g id="ytick_31">
     <g id="line2d_37">
      <g>
       <use xlink:href="#m9787ef9ce3" x="64.823952" y="84.009057" style="stroke: #000000; stroke-width: 0.6"/>
      </g>
     </g>
    </g>
    <g id="ytick_32">
     <g id="line2d_38">
      <g>
       <use xlink:href="#m9787ef9ce3" x="64.823952" y="61.057691" style="stroke: #000000; stroke-width: 0.6"/>
      </g>
     </g>
    </g>
    <g id="ytick_33">
     <g id="line2d_39">
      <g>
       <use xlink:href="#m9787ef9ce3" x="64.823952" y="49.403479" style="stroke: #000000; stroke-width: 0.6"/>
      </g>
     </g>
    </g>
    <g id="ytick_34">
     <g id="line2d_40">
      <g>
       <use xlink:href="#m9787ef9ce3" x="64.823952" y="41.134683" style="stroke: #000000; stroke-width: 0.6"/>
      </g>
     </g>
    </g>
    <g id="ytick_35">
     <g id="line2d_41">
      <g>
       <use xlink:href="#m9787ef9ce3" x="64.823952" y="34.720908" style="stroke: #000000; stroke-width: 0.6"/>
      </g>
     </g>
    </g>
    <g id="ytick_36">
     <g id="line2d_42">
      <g>
       <use xlink:href="#m9787ef9ce3" x="64.823952" y="29.480471" style="stroke: #000000; stroke-width: 0.6"/>
      </g>
     </g>
    </g>
    <g id="ytick_37">
     <g id="line2d_43">
      <g>
       <use xlink:href="#m9787ef9ce3" x="64.823952" y="25.049745" style="stroke: #000000; stroke-width: 0.6"/>
      </g>
     </g>
    </g>
    <g id="ytick_38">
     <g id="line2d_44">
      <g>
       <use xlink:href="#m9787ef9ce3" x="64.823952" y="21.211676" style="stroke: #000000; stroke-width: 0.6"/>
      </g>
     </g>
    </g>
    <g id="ytick_39">
     <g id="line2d_45">
      <g>
       <use xlink:href="#m9787ef9ce3" x="64.823952" y="17.826259" style="stroke: #000000; stroke-width: 0.6"/>
      </g>
     </g>
    </g>
    <g id="text_12">
     <!-- Watched -->
     <g transform="translate(26.272389 184.165156) rotate(-90) scale(0.14 -0.14)">
      <defs>
       <path id="DejaVuSans-57" d="M 213 4666 
L 850 4666 
L 1831 722 
L 2809 4666 
L 3519 4666 
L 4500 722 
L 5478 4666 
L 6119 4666 
L 4947 0 
L 4153 0 
L 3169 4050 
L 2175 0 
L 1381 0 
L 213 4666 
z
" transform="scale(0.015625)"/>
       <path id="DejaVuSans-61" d="M 2194 1759 
Q 1497 1759 1228 1600 
Q 959 1441 959 1056 
Q 959 750 1161 570 
Q 1363 391 1709 391 
Q 2188 391 2477 730 
Q 2766 1069 2766 1631 
L 2766 1759 
L 2194 1759 
z
M 3341 1997 
L 3341 0 
L 2766 0 
L 2766 531 
Q 2569 213 2275 61 
Q 1981 -91 1556 -91 
Q 1019 -91 701 211 
Q 384 513 384 1019 
Q 384 1609 779 1909 
Q 1175 2209 1959 2209 
L 2766 2209 
L 2766 2266 
Q 2766 2663 2505 2880 
Q 2244 3097 1772 3097 
Q 1472 3097 1187 3025 
Q 903 2953 641 2809 
L 641 3341 
Q 956 3463 1253 3523 
Q 1550 3584 1831 3584 
Q 2591 3584 2966 3190 
Q 3341 2797 3341 1997 
z
" transform="scale(0.015625)"/>
       <path id="DejaVuSans-74" d="M 1172 4494 
L 1172 3500 
L 2356 3500 
L 2356 3053 
L 1172 3053 
L 1172 1153 
Q 1172 725 1289 603 
Q 1406 481 1766 481 
L 2356 481 
L 2356 0 
L 1766 0 
Q 1100 0 847 248 
Q 594 497 594 1153 
L 594 3053 
L 172 3053 
L 172 3500 
L 594 3500 
L 594 4494 
L 1172 4494 
z
" transform="scale(0.015625)"/>
       <path id="DejaVuSans-63" d="M 3122 3366 
L 3122 2828 
Q 2878 2963 2633 3030 
Q 2388 3097 2138 3097 
Q 1578 3097 1268 2742 
Q 959 2388 959 1747 
Q 959 1106 1268 751 
Q 1578 397 2138 397 
Q 2388 397 2633 464 
Q 2878 531 3122 666 
L 3122 134 
Q 2881 22 2623 -34 
Q 2366 -91 2075 -91 
Q 1284 -91 818 406 
Q 353 903 353 1747 
Q 353 2603 823 3093 
Q 1294 3584 2113 3584 
Q 2378 3584 2631 3529 
Q 2884 3475 3122 3366 
z
" transform="scale(0.015625)"/>
       <path id="DejaVuSans-68" d="M 3513 2113 
L 3513 0 
L 2938 0 
L 2938 2094 
Q 2938 2591 2744 2837 
Q 2550 3084 2163 3084 
Q 1697 3084 1428 2787 
Q 1159 2491 1159 1978 
L 1159 0 
L 581 0 
L 581 4863 
L 1159 4863 
L 1159 2956 
Q 1366 3272 1645 3428 
Q 1925 3584 2291 3584 
Q 2894 3584 3203 3211 
Q 3513 2838 3513 2113 
z
" transform="scale(0.015625)"/>
      </defs>
      <use xlink:href="#DejaVuSans-57"/>
      <use xlink:href="#DejaVuSans-61" x="92.501953"/>
      <use xlink:href="#DejaVuSans-74" x="153.78125"/>
      <use xlink:href="#DejaVuSans-63" x="192.990234"/>
      <use xlink:href="#DejaVuSans-68" x="247.970703"/>
      <use xlink:href="#DejaVuSans-65" x="311.349609"/>
      <use xlink:href="#DejaVuSans-64" x="372.873047"/>
     </g>
    </g>
   </g>
   <g id="line2d_46">
    <path d="M 81.613175 27.710909 
L 82.305514 43.908679 
L 82.651684 44.597451 
L 82.997853 44.751873 
L 83.344023 45.386326 
L 83.690192 46.68142 
L 84.382531 48.156652 
L 84.728701 48.239338 
L 85.07487 49.250591 
L 85.42104 49.808721 
L 85.76721 50.958588 
L 86.459549 51.080208 
L 86.805718 52.061639 
L 87.151888 52.699214 
L 87.498057 52.97995 
L 87.844227 53.110451 
L 88.190396 53.4945 
L 88.536566 53.671788 
L 88.882736 54.086005 
L 89.228905 54.23297 
L 89.575075 54.68994 
L 89.921244 54.712981 
L 90.267414 55.401115 
L 90.613583 56.361299 
L 91.652092 56.569537 
L 91.998262 56.766913 
L 92.344431 57.15323 
L 93.03677 57.304178 
L 93.729109 57.800304 
L 95.806127 58.6467 
L 96.152296 58.673142 
L 96.498466 58.819012 
L 97.190805 59.532403 
L 97.883144 59.696414 
L 98.921653 60.305923 
L 99.267822 60.36198 
L 99.613992 60.601446 
L 100.306331 60.71483 
L 100.6525 60.885749 
L 101.344839 61.043323 
L 101.691009 61.115234 
L 102.729518 61.888761 
L 103.421857 62.456465 
L 105.152705 63.407488 
L 106.191213 63.610951 
L 106.883552 63.800049 
L 107.229722 63.815863 
L 107.575891 64.21408 
L 107.922061 64.439515 
L 108.268231 64.439515 
L 108.96057 65.476443 
L 109.306739 65.560364 
L 109.652909 66.621863 
L 109.999078 66.656766 
L 110.345248 67.096671 
L 110.691417 67.869423 
L 111.037587 68.2545 
L 111.383756 68.34695 
L 111.729926 68.644806 
L 112.422265 68.851387 
L 112.768435 68.926877 
L 113.460774 69.269058 
L 114.153113 70.241506 
L 115.191622 71.494908 
L 115.537791 71.515578 
L 115.883961 71.723109 
L 116.23013 72.163862 
L 116.922469 72.248586 
L 117.268639 72.892109 
L 117.614808 73.022561 
L 117.960978 73.728483 
L 118.653317 73.862796 
L 118.999487 73.975204 
L 119.345656 74.224061 
L 120.730334 74.566922 
L 121.076504 74.913922 
L 121.422674 75.100716 
L 122.461182 75.171078 
L 123.499691 75.430556 
L 123.84586 75.908419 
L 124.19203 75.908419 
L 124.884369 76.615745 
L 126.269047 77.340918 
L 126.615217 77.340918 
L 126.961386 77.877705 
L 127.307556 77.955214 
L 127.999895 78.582925 
L 128.346065 79.170624 
L 128.692234 79.224652 
L 129.038404 79.414554 
L 129.384573 80.019688 
L 130.423082 80.299018 
L 130.769251 80.837342 
L 131.115421 80.837342 
L 131.461591 81.298621 
L 132.15393 81.385941 
L 132.500099 81.945215 
L 132.846269 82.064356 
L 133.192438 82.364388 
L 133.884777 82.424772 
L 134.230947 82.637121 
L 134.577117 82.698082 
L 134.923286 83.004838 
L 135.269456 83.035695 
L 135.961795 83.628352 
L 136.307964 83.659885 
L 136.654134 83.818074 
L 137.000303 83.818074 
L 137.346473 84.073001 
L 138.384982 84.233486 
L 139.76966 84.524637 
L 140.115829 84.55717 
L 140.461999 84.851635 
L 140.808169 84.851635 
L 141.154338 85.01654 
L 141.500508 85.049635 
L 141.846677 85.215683 
L 142.192847 85.685786 
L 142.885186 85.923753 
L 143.231355 86.40568 
L 143.577525 86.579774 
L 144.269864 86.614719 
L 146.000712 87.072922 
L 146.346881 87.430425 
L 146.693051 87.466421 
L 147.38539 87.719663 
L 147.73156 87.828882 
L 148.077729 88.269957 
L 148.770068 88.567813 
L 149.462407 88.906632 
L 149.808577 89.05851 
L 150.154746 89.05851 
L 150.500916 89.211195 
L 150.847086 89.211195 
L 151.193255 89.326243 
L 151.539425 89.674177 
L 151.885594 89.674177 
L 152.231764 89.908494 
L 153.270272 90.105229 
L 153.616442 90.946542 
L 153.962612 91.150538 
L 154.654951 91.191511 
L 155.34729 91.813226 
L 156.385798 92.065727 
L 157.078138 92.363142 
L 157.424307 92.363142 
L 159.155155 93.31843 
L 159.847494 93.80825 
L 161.578342 94.124356 
L 161.924511 94.48993 
L 165.040037 95.615404 
L 165.732376 95.759238 
L 166.424715 96.390974 
L 169.540241 97.390825 
L 169.886411 97.595038 
L 170.232581 97.595038 
L 171.617259 98.112009 
L 173.001937 98.426715 
L 174.040446 98.851755 
L 174.386615 99.120633 
L 175.771293 99.611044 
L 176.463633 99.998345 
L 176.809802 100.054102 
L 177.155972 100.278219 
L 177.502141 100.334522 
L 178.19448 100.731764 
L 181.310006 101.779189 
L 181.656176 102.017226 
L 182.348515 102.136988 
L 183.040854 102.378019 
L 183.733193 102.438594 
L 184.079363 102.499297 
L 184.771702 103.113484 
L 185.81021 103.614461 
L 186.15638 103.677701 
L 186.50255 104.382689 
L 187.194889 104.382689 
L 187.887228 104.708944 
L 188.233397 104.708944 
L 188.579567 105.038946 
L 188.925736 105.574958 
L 189.618076 105.574958 
L 189.964245 105.778568 
L 190.310415 105.84676 
L 190.656584 106.190167 
L 193.079771 106.677936 
L 194.11828 107.245714 
L 194.810619 107.317481 
L 195.156788 107.389428 
L 195.502958 107.606356 
L 195.849128 107.606356 
L 196.195297 107.75189 
L 196.541467 108.045186 
L 197.233806 108.192965 
L 197.579975 108.416067 
L 198.272314 108.49082 
L 199.656993 108.867534 
L 200.003162 109.24925 
L 200.349332 109.24925 
L 200.695501 109.480737 
L 201.041671 109.558316 
L 201.38784 109.792316 
L 202.080179 109.792316 
L 202.426349 110.266109 
L 203.118688 110.747844 
L 203.464858 110.747844 
L 203.811027 110.991773 
L 204.157197 111.073545 
L 204.503366 111.485931 
L 205.888045 111.569123 
L 207.618892 112.414561 
L 208.657401 112.500489 
L 210.042079 112.759825 
L 211.080588 112.846792 
L 211.426757 113.021521 
L 213.849944 113.109286 
L 214.196114 113.197319 
L 214.888453 113.911463 
L 216.273131 114.183909 
L 216.619301 114.551235 
L 218.003979 114.829842 
L 218.350148 114.829842 
L 219.042488 115.205571 
L 219.734827 115.205571 
L 220.080996 115.490626 
L 224.235031 116.560703 
L 224.5812 116.560703 
L 224.92737 116.859591 
L 228.389066 117.775369 
L 229.773744 117.878947 
L 230.119913 118.087229 
L 231.158422 118.191939 
L 232.5431 118.508377 
L 233.581609 118.614635 
L 235.658626 119.260568 
L 236.697135 119.921352 
L 237.043304 119.921352 
L 237.389474 120.257529 
L 237.735643 120.826713 
L 238.427983 120.826713 
L 239.120322 121.05758 
L 239.466491 121.290317 
L 239.812661 121.290317 
L 240.15883 121.407395 
L 241.197339 122.000052 
L 241.543509 122.000052 
L 241.889678 122.120064 
L 242.235848 122.120064 
L 242.928187 122.361602 
L 243.274356 122.361602 
L 243.620526 122.483136 
L 243.966695 122.483136 
L 244.312865 122.974478 
L 244.659035 123.098638 
L 245.005204 123.348577 
L 245.697543 123.348577 
L 246.043713 123.474366 
L 246.389882 123.474366 
L 247.082221 123.727608 
L 247.428391 123.727608 
L 248.4669 124.111705 
L 249.159239 124.501005 
L 249.505408 124.631952 
L 249.851578 124.631952 
L 250.543917 124.895649 
L 251.236256 124.895649 
L 251.928595 125.161788 
L 252.620934 125.161788 
L 253.313273 125.430415 
L 253.659443 125.430415 
L 254.351782 125.701576 
L 254.697952 125.701576 
L 255.044121 125.838121 
L 255.390291 125.838121 
L 256.08263 126.113174 
L 256.774969 126.530753 
L 257.813478 126.530753 
L 258.159647 126.671305 
L 258.505817 126.671305 
L 258.851986 126.812548 
L 259.544325 127.240488 
L 259.890495 127.240488 
L 261.275173 127.821171 
L 261.621343 128.115972 
L 261.967512 128.115972 
L 262.659851 128.413828 
L 263.006021 128.714802 
L 263.35219 128.86648 
L 263.69836 129.172258 
L 264.04453 129.326375 
L 264.390699 129.326375 
L 265.083038 129.637111 
L 265.429208 129.951244 
L 266.121547 130.268847 
L 266.467716 130.268847 
L 266.813886 130.428975 
L 267.160056 130.751931 
L 267.506225 130.751931 
L 267.852395 131.243273 
L 268.198564 131.408939 
L 268.544734 131.408939 
L 268.890903 131.575564 
L 269.237073 131.575564 
L 269.583242 131.743161 
L 269.929412 131.743161 
L 270.275582 132.081316 
L 270.621751 132.7698 
L 270.967921 132.7698 
L 271.31409 132.944529 
L 271.66026 132.944529 
L 272.698768 133.475181 
L 273.044938 133.834471 
L 273.391107 133.834471 
L 273.737277 134.015814 
L 274.083447 134.015814 
L 274.429616 134.381969 
L 274.775786 134.381969 
L 275.121955 134.566811 
L 275.814294 134.566811 
L 276.506633 134.9401 
L 276.852803 134.9401 
L 277.198973 135.318301 
L 277.545142 135.318301 
L 277.891312 135.509283 
L 278.237481 135.895099 
L 278.583651 136.089966 
L 278.92982 136.48371 
L 279.27599 136.48371 
L 279.622159 136.682623 
L 280.660668 136.682623 
L 281.006838 136.882922 
L 281.353007 136.882922 
L 281.699177 137.084627 
L 282.045346 137.084627 
L 282.391516 137.287757 
L 283.430025 137.287757 
L 283.776194 137.492333 
L 284.122364 137.492333 
L 284.468533 137.698376 
L 284.814703 138.114946 
L 285.507042 138.114946 
L 285.853211 138.325517 
L 286.199381 138.966648 
L 286.89172 138.966648 
L 287.584059 139.844359 
L 288.622568 140.520692 
L 289.314907 140.520692 
L 289.661076 140.74972 
L 290.699585 140.74972 
L 291.045755 141.213324 
L 291.391924 141.44796 
L 292.430433 142.897486 
L 292.776602 142.897486 
L 293.122772 143.397373 
L 294.161281 144.163894 
L 294.85362 144.163894 
L 295.892128 144.951418 
L 296.238298 145.488683 
L 297.276807 145.488683 
L 297.622976 145.761129 
L 297.969146 145.761129 
L 298.315315 146.036182 
L 298.661485 146.036182 
L 299.007654 146.313892 
L 299.353824 146.313892 
L 299.699994 146.594312 
L 300.738502 146.594312 
L 301.084672 146.877495 
L 301.430841 146.877495 
L 301.777011 147.163496 
L 302.12318 147.163496 
L 302.46935 147.452371 
L 303.854028 147.452371 
L 304.200198 147.744178 
L 304.892537 147.744178 
L 305.238706 148.336835 
L 305.584876 148.336835 
L 306.277215 148.941969 
L 306.969554 148.941969 
L 307.315724 149.249382 
L 309.046571 149.249382 
L 309.392741 149.560119 
L 309.738911 149.560119 
L 310.08508 149.874251 
L 311.123589 149.874251 
L 311.815928 150.513007 
L 312.508267 150.513007 
L 312.854437 150.837788 
L 313.892945 150.837788 
L 314.239115 151.166281 
L 314.585284 151.834749 
L 314.931454 151.834749 
L 315.277623 152.174904 
L 315.623793 152.174904 
L 315.969963 152.519134 
L 317.354641 152.519134 
L 317.70081 152.867536 
L 318.04698 152.867536 
L 318.393149 153.577271 
L 318.739319 153.938821 
L 319.777828 153.938821 
L 320.470167 154.675857 
L 322.201015 154.675857 
L 322.547184 155.051586 
L 322.893354 155.051586 
L 323.585693 155.818106 
L 323.931862 155.818106 
L 324.278032 156.209171 
L 324.970371 156.209171 
L 325.31654 156.60563 
L 326.00888 156.60563 
L 326.355049 157.007634 
L 327.739727 157.007634 
L 328.085897 157.415341 
L 329.470575 157.415341 
L 329.816745 158.248524 
L 330.509084 158.248524 
L 330.855253 158.674352 
L 331.547592 158.674352 
L 332.239932 159.545413 
L 332.932271 159.545413 
L 333.27844 159.991047 
L 333.62461 159.991047 
L 333.970779 160.443699 
L 335.355458 160.443699 
L 335.701627 160.903594 
L 337.086305 160.903594 
L 337.432475 161.370968 
L 338.124814 161.370968 
L 338.470984 161.846067 
L 338.817153 161.846067 
L 339.509492 162.820493 
L 340.89417 162.820493 
L 341.24034 163.320381 
L 341.932679 163.320381 
L 342.278849 163.829116 
L 343.317357 163.829116 
L 343.663527 164.347019 
L 344.355866 164.347019 
L 345.048205 165.41169 
L 346.086714 165.41169 
L 346.432883 165.959189 
L 346.779053 165.959189 
L 347.125222 166.517319 
L 347.471392 166.517319 
L 347.817561 167.086503 
L 348.509901 167.086503 
L 348.85607 167.667186 
L 350.933087 167.667186 
L 351.279257 168.259842 
L 352.317766 168.259842 
L 352.663935 168.864977 
L 353.356274 168.864977 
L 353.702444 169.483126 
L 354.394783 169.483126 
L 354.740953 170.114862 
L 356.125631 170.114862 
L 356.4718 170.760795 
L 357.510309 170.760795 
L 357.856479 171.421579 
L 358.548818 171.421579 
L 359.241157 172.790543 
L 359.587326 172.790543 
L 359.933496 173.500279 
L 361.318174 173.500279 
L 361.664344 174.227984 
L 362.356683 174.227984 
L 362.702852 174.974593 
L 363.395191 174.974593 
L 364.4337 177.338348 
L 365.818378 177.338348 
L 366.164548 178.171532 
L 366.856887 178.171532 
L 367.203056 179.02959 
L 368.587735 179.02959 
L 368.933904 179.914054 
L 369.972413 179.914054 
L 370.318582 180.826602 
L 370.664752 180.826602 
L 371.010922 181.769074 
L 371.703261 181.769074 
L 372.04943 182.7435 
L 373.434108 182.7435 
L 373.780278 183.752124 
L 374.126448 183.752124 
L 374.472617 184.797433 
L 375.164956 184.797433 
L 375.511126 185.882196 
L 376.203465 185.882196 
L 376.549634 187.00951 
L 376.895804 187.00951 
L 377.241974 188.18285 
L 378.280482 188.18285 
L 378.626652 189.406133 
L 380.01133 189.406133 
L 380.357499 190.683802 
L 381.742178 190.683802 
L 382.088347 192.020919 
L 383.473025 192.020919 
L 383.819195 193.423286 
L 384.165365 193.423286 
L 384.511534 194.8976 
L 385.896212 194.8976 
L 386.242382 196.451645 
L 387.280891 196.451645 
L 387.62706 198.094539 
L 389.011738 198.094539 
L 389.357908 199.837062 
L 390.396417 199.837062 
L 390.742586 201.692081 
L 392.127264 201.692081 
L 392.473434 203.675131 
L 393.858112 203.675131 
L 394.204282 205.805203 
L 397.319808 205.805203 
L 397.665977 208.105857 
L 400.089164 208.105857 
L 400.435334 210.60681 
L 402.85852 210.60681 
L 403.20469 213.346293 
L 405.281707 213.346293 
L 405.627877 216.374652 
L 408.051064 216.374652 
L 408.397233 219.760069 
L 410.82042 219.760069 
L 411.16659 223.598138 
L 412.897438 223.598138 
L 413.243607 228.028864 
L 414.282116 228.028864 
L 414.628285 233.269301 
L 415.666794 233.269301 
L 416.359133 259.606084 
L 417.051472 259.606084 
L 417.397642 279.529091 
L 417.397642 279.529091 
" clip-path="url(#p26f3300faf)" style="fill: none; stroke: #ff7f0e; stroke-width: 1.5; stroke-linecap: square"/>
   </g>
   <g id="patch_3">
    <path d="M 64.823952 292.12 
L 64.823952 15.12 
" style="fill: none; stroke: #000000; stroke-width: 0.8; stroke-linejoin: miter; stroke-linecap: square"/>
   </g>
   <g id="patch_4">
    <path d="M 434.186865 292.12 
L 434.186865 15.12 
" style="fill: none; stroke: #000000; stroke-width: 0.8; stroke-linejoin: miter; stroke-linecap: square"/>
   </g>
   <g id="patch_5">
    <path d="M 64.823952 292.12 
L 434.186865 292.12 
" style="fill: none; stroke: #000000; stroke-width: 0.8; stroke-linejoin: miter; stroke-linecap: square"/>
   </g>
   <g id="patch_6">
    <path d="M 64.823952 15.12 
L 434.186865 15.12 
" style="fill: none; stroke: #000000; stroke-width: 0.8; stroke-linejoin: miter; stroke-linecap: square"/>
   </g>
   <g id="legend_1">
    <g id="patch_7">
     <path d="M 337.27624 46.869375 
L 424.386865 46.869375 
Q 427.186865 46.869375 427.186865 44.069375 
L 427.186865 24.92 
Q 427.186865 22.12 424.386865 22.12 
L 337.27624 22.12 
Q 334.47624 22.12 334.47624 24.92 
L 334.47624 44.069375 
Q 334.47624 46.869375 337.27624 46.869375 
z
" style="fill: #ffffff; opacity: 0.8; stroke: #cccccc; stroke-linejoin: miter"/>
    </g>
    <g id="line2d_47">
     <path d="M 340.07624 33.457812 
L 354.07624 33.457812 
L 368.07624 33.457812 
" style="fill: none; stroke: #ff7f0e; stroke-width: 1.5; stroke-linecap: square"/>
    </g>
    <g id="text_13">
     <!-- EdNet -->
     <g transform="translate(379.27624 38.357812) scale(0.14 -0.14)">
      <defs>
       <path id="DejaVuSans-45" d="M 628 4666 
L 3578 4666 
L 3578 4134 
L 1259 4134 
L 1259 2753 
L 3481 2753 
L 3481 2222 
L 1259 2222 
L 1259 531 
L 3634 531 
L 3634 0 
L 628 0 
L 628 4666 
z
" transform="scale(0.015625)"/>
       <path id="DejaVuSans-4e" d="M 628 4666 
L 1478 4666 
L 3547 763 
L 3547 4666 
L 4159 4666 
L 4159 0 
L 3309 0 
L 1241 3903 
L 1241 0 
L 628 0 
L 628 4666 
z
" transform="scale(0.015625)"/>
      </defs>
      <use xlink:href="#DejaVuSans-45"/>
      <use xlink:href="#DejaVuSans-64" x="63.183594"/>
      <use xlink:href="#DejaVuSans-4e" x="126.660156"/>
      <use xlink:href="#DejaVuSans-65" x="201.464844"/>
      <use xlink:href="#DejaVuSans-74" x="262.988281"/>
     </g>
    </g>
   </g>
  </g>
 </g>
 <defs>
  <clipPath id="p26f3300faf">
   <rect x="64.823952" y="15.12" width="369.362913" height="277"/>
  </clipPath>
 </defs>
</svg>
